<svg preserveAspectRatio="none" width="100%" height="100%" overflow="visible" style="display: block;" viewBox="0 0 16 16" fill="none" xmlns="http://www.w3.org/2000/svg">
<path id="Shape" d="M4.98811 6.60832C4.92883 6.87568 4.66509 7.04596 4.39655 6.98919C4.12638 6.93207 3.95367 6.66674 4.01079 6.39657L4.01101 6.39557L4.01124 6.39447L4.01178 6.39199C4.01723 6.36769 4.02351 6.34355 4.03036 6.3196C4.04174 6.2798 4.05867 6.22647 4.08271 6.16406C4.13026 6.04058 4.20855 5.87389 4.33261 5.70453C4.58972 5.35354 5.04179 5 5.75359 5C6.30575 5 6.75549 5.21512 7.06185 5.56126C7.35994 5.89804 7.49998 6.33261 7.49998 6.75C7.49998 7.099 7.431 7.39794 7.29507 7.65577C7.15987 7.91222 6.97453 8.09735 6.78808 8.24136C6.63051 8.36306 6.45565 8.46685 6.30894 8.55394L6.25222 8.58767C6.08366 8.68832 5.94599 8.77523 5.82722 8.87803C5.43333 9.21901 5.1749 9.57998 5.06318 10H6.99998C7.27612 10 7.49998 10.2239 7.49998 10.5C7.49998 10.7761 7.27612 11 6.99998 11H4.49999C4.22384 11 3.99999 10.7761 3.99999 10.5C3.99999 9.48935 4.4747 8.72621 5.17274 8.12196C5.36392 7.95647 5.56872 7.8311 5.73953 7.7291L5.7978 7.69437C5.95158 7.60281 6.07076 7.53185 6.1768 7.44994C6.28786 7.36416 6.36129 7.28271 6.41048 7.18941C6.45894 7.09749 6.49998 6.9635 6.49998 6.75C6.49998 6.54779 6.43104 6.35736 6.31304 6.22404C6.20332 6.10008 6.02986 6 5.75359 6C5.42321 6 5.24848 6.14646 5.13933 6.29547C5.08025 6.37612 5.04055 6.45943 5.01589 6.52345C5.00383 6.55478 4.9961 6.57958 4.99184 6.59446C4.98973 6.60185 4.98811 6.60832 4.98811 6.60832ZM9 5C9.27614 5 9.5 5.22386 9.5 5.5V8H11V5.5C11 5.22386 11.2239 5 11.5 5C11.7761 5 12 5.22386 12 5.5V10.5C12 10.7761 11.7761 11 11.5 11C11.2239 11 11 10.7761 11 10.5V9H9C8.72386 9 8.5 8.77614 8.5 8.5V5.5C8.5 5.22386 8.72386 5 9 5ZM8 0C3.58172 0 0 3.58172 0 8C0 12.4183 3.58172 16 8 16C12.4183 16 16 12.4183 16 8C16 3.58172 12.4183 0 8 0ZM1 8C1 4.13401 4.13401 1 8 1C11.866 1 15 4.13401 15 8C15 11.866 11.866 15 8 15C4.13401 15 1 11.866 1 8Z" fill="var(--fill-0, #272320)"/>
</svg>
