<svg preserveAspectRatio="none" width="100%" height="100%" overflow="visible" style="display: block;" viewBox="0 0 20 20" fill="none" xmlns="http://www.w3.org/2000/svg">
<path id="Shape" d="M20 10C20 4.47715 15.5228 0 10 0C4.47715 0 0 4.47715 0 10C0 15.5228 4.47715 20 10 20C15.5228 20 20 15.5228 20 10ZM5.49956 6.74427C5.84708 6.36181 6.41524 5.99994 7.24996 5.99994C8.40233 5.99994 9.14421 6.792 9.40451 7.66118C9.65806 8.5078 9.50427 9.55638 8.78498 10.279C8.53778 10.5274 8.24684 10.7521 7.99212 10.9487L7.9514 10.9802C7.67221 11.196 7.42286 11.3916 7.20288 11.6109C6.94689 11.8663 6.73824 12.1454 6.61656 12.4999H8.74996C9.16417 12.4999 9.49996 12.8357 9.49996 13.2499C9.49996 13.6642 9.16417 13.9999 8.74996 13.9999H5.74996C5.55104 13.9999 5.36027 13.9209 5.21962 13.7803C5.07897 13.6396 4.99995 13.4488 4.99996 13.2499C4.99998 12.003 5.52397 11.1669 6.14363 10.5489C6.44003 10.2533 6.7618 10.0038 7.03412 9.79336L7.03711 9.79105C7.32312 9.57 7.54503 9.39849 7.72185 9.22085C7.99417 8.94725 8.08865 8.49584 7.96757 8.09152C7.85324 7.70976 7.59759 7.49994 7.24996 7.49994C6.89717 7.49994 6.71534 7.63676 6.60973 7.753C6.55037 7.81832 6.50976 7.88475 6.48499 7.93316C6.47292 7.95674 6.46562 7.97407 6.46245 7.98203L6.46139 7.98474C6.33241 8.3717 5.91657 8.58548 5.52572 8.46302C5.13045 8.33917 4.91042 7.91835 5.03426 7.52308L5.06895 7.42691C5.08751 7.38032 5.1139 7.31973 5.14969 7.24981C5.22062 7.1112 5.33236 6.92829 5.49956 6.74427ZM11.25 6.00003C11.6642 6.00003 12 6.33582 12 6.75003V9.49932H13.5V6.75003C13.5 6.33582 13.8358 6.00003 14.25 6.00003C14.6642 6.00003 15 6.33582 15 6.75003V13.2204C15 13.6346 14.6642 13.9704 14.25 13.9704C13.8358 13.9704 13.5 13.6346 13.5 13.2204V10.9993H11.25C10.8358 10.9993 10.5 10.6635 10.5 10.2493V6.75003C10.5 6.33582 10.8358 6.00003 11.25 6.00003Z" fill="var(--fill-0, #272320)"/>
</svg>
