<svg preserveAspectRatio="none" width="100%" height="100%" overflow="visible" style="display: block;" viewBox="0 0 16 12" fill="none" xmlns="http://www.w3.org/2000/svg">
<path id="Shape" d="M0 2C0 0.895431 0.895431 0 2 0V12C0.895431 12 0 11.1046 0 10V2ZM7 4.5C7 4.22386 7.22386 4 7.5 4H11.5C11.7761 4 12 4.22386 12 4.5V5.5C12 5.77614 11.7761 6 11.5 6H7.5C7.22386 6 7 5.77614 7 5.5V4.5ZM3 12V0H14C15.1046 0 16 0.895431 16 2V10C16 11.1046 15.1046 12 14 12H3ZM7.5 3C6.67157 3 6 3.67157 6 4.5V5.5C6 6.32843 6.67157 7 7.5 7H11.5C12.3284 7 13 6.32843 13 5.5V4.5C13 3.67157 12.3284 3 11.5 3H7.5Z" fill="var(--fill-0, #272320)"/>
</svg>
