<svg preserveAspectRatio="none" width="100%" height="100%" overflow="visible" style="display: block;" viewBox="0 0 16 12" fill="none" xmlns="http://www.w3.org/2000/svg">
<path id="Shape" d="M6 4.5C6 3.67157 6.67157 3 7.5 3H11.5C12.3284 3 13 3.67157 13 4.5V5.5C13 6.32843 12.3284 7 11.5 7H7.5C6.67157 7 6 6.32843 6 5.5V4.5ZM7.5 4C7.22386 4 7 4.22386 7 4.5V5.5C7 5.77614 7.22386 6 7.5 6H11.5C11.7761 6 12 5.77614 12 5.5V4.5C12 4.22386 11.7761 4 11.5 4H7.5ZM0 2C0 0.89543 0.895431 0 2 0H14C15.1046 0 16 0.89543 16 2V10C16 11.1046 15.1046 12 14 12H2C0.895431 12 0 11.1046 0 10V2ZM4 11H14C14.5523 11 15 10.5523 15 10V2C15 1.44772 14.5523 1 14 1H4V11ZM3 1H2C1.44772 1 1 1.44772 1 2V10C1 10.5523 1.44772 11 2 11H3V1Z" fill="var(--fill-0, #272320)"/>
</svg>
