<svg preserveAspectRatio="none" width="100%" height="100%" overflow="visible" style="display: block;" viewBox="0 0 20 16" fill="none" xmlns="http://www.w3.org/2000/svg">
<path id="Shape" d="M0 2C0 0.895431 0.895431 0 2 0H3L3 16H2C0.895431 16 0 15.1046 0 14V2ZM14 4.5H10C9.72386 4.5 9.5 4.72386 9.5 5V6C9.5 6.27614 9.72386 6.5 10 6.5H14C14.2761 6.5 14.5 6.27614 14.5 6V5C14.5 4.72386 14.2761 4.5 14 4.5ZM4.5 16H18C19.1046 16 20 15.1046 20 14V2C20 0.895431 19.1046 0 18 0H4.5L4.5 16ZM10 3H14C15.1046 3 16 3.89543 16 5V6C16 7.10457 15.1046 8 14 8H10C8.89543 8 8 7.10457 8 6V5C8 3.89543 8.89543 3 10 3Z" fill="var(--fill-0, #272320)"/>
</svg>
