<svg preserveAspectRatio="none" width="100%" height="100%" overflow="visible" style="display: block;" viewBox="0 0 20 16" fill="none" xmlns="http://www.w3.org/2000/svg">
<path id="Shape" d="M8 5C8 3.89543 8.89543 3 10 3H14C15.1046 3 16 3.89543 16 5V6C16 7.10457 15.1046 8 14 8H10C8.89543 8 8 7.10457 8 6V5ZM10 4.5C9.72386 4.5 9.5 4.72386 9.5 5V6C9.5 6.27614 9.72386 6.5 10 6.5H14C14.2761 6.5 14.5 6.27614 14.5 6V5C14.5 4.72386 14.2761 4.5 14 4.5H10ZM2 0C0.895431 0 0 0.895431 0 2V14C0 15.1046 0.895431 16 2 16H18C19.1046 16 20 15.1046 20 14V2C20 0.895431 19.1046 0 18 0H2ZM18 1.5C18.2761 1.5 18.5 1.72386 18.5 2V14C18.5 14.2761 18.2761 14.5 18 14.5H5.5V1.5H18ZM2 1.5H4V14.5H2C1.72386 14.5 1.5 14.2761 1.5 14V2C1.5 1.72386 1.72386 1.5 2 1.5Z" fill="var(--fill-0, #272320)"/>
</svg>
