<svg preserveAspectRatio="none" width="100%" height="100%" overflow="visible" style="display: block;" viewBox="0 0 10 10.5" fill="none" xmlns="http://www.w3.org/2000/svg">
<path id="Shape" d="M5 0C2.79086 0 1 1.79086 1 4V5.38197L0.0527869 7.27639C-0.0247102 7.43139 -0.0164282 7.61546 0.0746751 7.76287C0.165778 7.91027 0.326712 8 0.500001 8H9.5C9.67329 8 9.83422 7.91027 9.92533 7.76287C10.0164 7.61546 10.0247 7.43139 9.94721 7.27639L9 5.38197V4C9 1.79086 7.20914 0 5 0ZM4.99998 10.5C4.06806 10.5 3.28501 9.86261 3.06299 9H6.93697C6.71495 9.86261 5.9319 10.5 4.99998 10.5Z" fill="var(--fill-0, #272320)"/>
</svg>
