<svg preserveAspectRatio="none" width="100%" height="100%" overflow="visible" style="display: block;" viewBox="0 0 10 10" fill="none" xmlns="http://www.w3.org/2000/svg">
<path id="Shape" d="M2 4V5.5C2 5.57762 1.98193 5.65418 1.94721 5.72361L1.30902 7H8.69098L8.05279 5.72361C8.01807 5.65418 8 5.57762 8 5.5V4C8 2.34315 6.65685 1 5 1C3.34315 1 2 2.34315 2 4ZM3 8H0.500001C0.326712 8 0.165778 7.91027 0.0746751 7.76287C-0.0164282 7.61546 -0.0247102 7.43139 0.0527869 7.27639L1 5.38197V4C1 1.79086 2.79086 0 5 0C7.20914 0 9 1.79086 9 4V5.38197L9.94721 7.27639C10.0247 7.43139 10.0164 7.61546 9.92533 7.76287C9.83422 7.91027 9.67329 8 9.5 8H7C7 9.10457 6.10457 10 5 10C3.89543 10 3 9.10457 3 8ZM6 8H4C4 8.55228 4.44772 9 5 9C5.55229 9 6 8.55228 6 8Z" fill="var(--fill-0, #272320)"/>
</svg>
