<svg preserveAspectRatio="none" width="100%" height="100%" overflow="visible" style="display: block;" viewBox="0 0 11 12.5" fill="none" xmlns="http://www.w3.org/2000/svg">
<path id="Shape" d="M5.50001 0C3.01473 0 1.00001 2.01472 1.00001 4.5V6.9014L0.0357031 9.31446C-0.0258537 9.4685 -0.00700649 9.64304 0.0860148 9.78038C0.179036 9.91773 0.334119 10 0.500002 10H10.5C10.6659 10 10.821 9.91773 10.914 9.78038C11.007 9.64304 11.0259 9.4685 10.9643 9.31446L10 6.9014V4.5C10 2.01472 7.98529 0 5.50001 0ZM5.49998 12.5C4.56806 12.5 3.78501 11.8626 3.56299 11H7.43697C7.21495 11.8626 6.4319 12.5 5.49998 12.5Z" fill="var(--fill-0, #272320)"/>
</svg>
