<svg preserveAspectRatio="none" width="100%" height="100%" overflow="visible" style="display: block;" viewBox="0 0 11 12" fill="none" xmlns="http://www.w3.org/2000/svg">
<path id="Shape" d="M5.50001 0C3.01473 0 1.00001 2.01472 1.00001 4.5V6.9014L0.0357031 9.31446C-0.0258537 9.4685 -0.00700649 9.64304 0.0860148 9.78038C0.179036 9.91773 0.334119 10 0.500002 10H3.5C3.5 11.1084 4.39164 12 5.5 12C6.60836 12 7.5 11.1084 7.5 10H10.5C10.6659 10 10.821 9.91773 10.914 9.78038C11.007 9.64304 11.0259 9.4685 10.9643 9.31446L10 6.9014V4.5C10 2.01472 7.98529 0 5.50001 0ZM6.5 10C6.5 10.5561 6.05607 11 5.5 11C4.94393 11 4.5 10.5561 4.5 10H6.5ZM2.00001 4.5C2.00001 2.567 3.56701 1 5.50001 1C7.433 1 9.00001 2.567 9.00001 4.5V6.9976C9.00001 7.06116 9.01212 7.12413 9.03571 7.18315L9.76175 9H1.23826L1.96431 7.18315C1.98789 7.12413 2.00001 7.06116 2.00001 6.9976V4.5Z" fill="var(--fill-0, #272320)"/>
</svg>
