<svg preserveAspectRatio="none" width="100%" height="100%" overflow="visible" style="display: block;" viewBox="0 0 20.0072 22.0025" fill="none" xmlns="http://www.w3.org/2000/svg">
<path id="Shape" d="M13.4712 19.0024C13.2281 20.6987 11.7691 22.0025 10.0056 22.0025C8.24202 22.0025 6.78301 20.6987 6.5399 19.0024H13.4712ZM10.0056 0C14.6153 0 18.3681 3.66899 18.503 8.24605V8.50124H18.5068L18.5066 12.613L19.9206 16.2573C19.9588 16.3557 19.9845 16.4583 19.9975 16.5627L20.0072 16.7203C20.0072 17.383 19.5036 17.9281 18.8581 17.9937L18.7272 18.0003H1.28034C1.12164 18.0003 0.964313 17.9708 0.816398 17.9133C0.198722 17.673 -0.126749 17.006 0.046107 16.3807L0.087384 16.2563L1.50356 12.612L1.50431 8.50124C1.50431 3.80614 5.31045 0 10.0056 0Z" fill="var(--fill-0, #272320)"/>
</svg>
