<svg preserveAspectRatio="none" width="100%" height="100%" overflow="visible" style="display: block;" viewBox="0 0 20.0072 22.0025" fill="none" xmlns="http://www.w3.org/2000/svg">
<path id="Shape" d="M10.0056 0C14.6153 0 18.3681 3.66899 18.503 8.24605L18.5068 8.50124L18.5066 13.113L19.9206 16.757C19.9588 16.8554 19.9845 16.958 19.9975 17.0624L20.0072 17.22C20.0072 17.8827 19.5036 18.4278 18.8581 18.4934L18.7272 18.5L13.507 18.5011C13.507 20.4348 11.9393 22.0025 10.0056 22.0025C8.13623 22.0025 6.60905 20.5376 6.50931 18.6932L6.504 18.499L1.28034 18.5C1.12164 18.5 0.964313 18.4705 0.816398 18.413C0.198722 18.1727 -0.126749 17.5057 0.046107 16.8804L0.087384 16.7561L1.50356 13.112L1.50431 8.50124C1.50431 3.80614 5.31045 0 10.0056 0ZM12.0015 18.6504L12.006 18.499L8.00413 18.5011C8.00413 19.6064 8.9002 20.5025 10.0056 20.5025C11.0607 20.5025 11.9251 19.686 12.0015 18.6504ZM10.0056 1.5C6.21943 1.5 3.13524 4.50532 3.00837 8.26055L3.00431 8.50124V13.2534C3.00431 13.3154 2.99663 13.377 2.98151 13.4369L2.95331 13.5252L1.60156 16.999H18.4056L17.0576 13.5246C17.0352 13.467 17.0201 13.4069 17.0125 13.3457L17.0068 13.2534V8.50124C17.0068 4.63456 13.8722 1.5 10.0056 1.5Z" fill="var(--fill-0, #272320)"/>
</svg>
