<svg preserveAspectRatio="none" width="100%" height="100%" overflow="visible" style="display: block;" viewBox="0 0 22 24" fill="none" xmlns="http://www.w3.org/2000/svg">
<path id="Shape" d="M2.00001 9C2.00001 4.02944 6.02945 0 11 0C15.9706 0 20 4.02944 20 9V12.8074L21.9285 17.6286C22.0517 17.9367 22.0141 18.2859 21.8281 18.5606C21.642 18.8354 21.3318 19 21 19H1C0.66818 19 0.357967 18.8354 0.171937 18.5606C-0.014093 18.2859 -0.0517083 17.9367 0.0715287 17.6286L2.00001 12.8074V9ZM7.1249 21C7.56654 22.7294 9.12886 24 11 24C12.8711 24 14.4335 22.7294 14.8751 21H7.1249Z" fill="var(--fill-0, #272320)"/>
</svg>
