<svg preserveAspectRatio="none" width="100%" height="100%" overflow="visible" style="display: block;" viewBox="0 0 22.0049 24" fill="none" xmlns="http://www.w3.org/2000/svg">
<path id="Shape" d="M11.0025 0C6.0319 0 2.00246 4.02944 2.00246 9V13.8037L0.0725095 18.6286C-0.190236 19.2855 0.29352 20 1.00099 20H7.00245C7.00245 22.2091 8.79331 24 11.0024 24C13.2116 24 15.0024 22.2091 15.0024 20H21.004C21.7114 20 22.1952 19.2855 21.9324 18.6286L20.0025 13.8037V9C20.0025 4.02944 15.973 0 11.0025 0ZM14.0024 20C14.0024 21.6569 12.6593 23 11.0024 23C9.34559 23 8.00245 21.6569 8.00245 20H14.0024ZM3.00246 9C3.00246 4.58172 6.58418 1 11.0025 1C15.4207 1 19.0025 4.58172 19.0025 9V13.8037C19.0025 13.9309 19.0267 14.057 19.074 14.1751L21.004 19H1.00099L2.93094 14.1751C2.97818 14.057 3.00246 13.931 3.00246 13.8037V9Z" fill="var(--fill-0, #272320)"/>
</svg>
