<svg preserveAspectRatio="none" width="100%" height="100%" overflow="visible" style="display: block;" viewBox="0 0 35.9965 40" fill="none" xmlns="http://www.w3.org/2000/svg">
<path id="Shape" d="M5.49821 15V23.75C5.49821 23.9238 5.46198 24.0956 5.39183 24.2546L2.63608 30.5H33.3604L30.6046 24.2546C30.5344 24.0956 30.4982 23.9238 30.4982 23.75V15C30.4982 8.09644 24.9018 2.5 17.9982 2.5C11.0947 2.5 5.49821 8.09644 5.49821 15ZM11.9983 33H2.25251C0.626869 33 -0.462257 31.329 0.194 29.8417L2.99821 23.4865V15C2.99821 6.71573 9.71394 0 17.9982 0C26.2825 0 32.9982 6.71573 32.9982 15V23.4865L35.8025 29.8417C36.4588 31.329 35.3696 33 33.744 33H23.9983V34C23.9983 37.3137 21.312 40 17.9983 40C14.6846 40 11.9983 37.3137 11.9983 34V33ZM21.4983 33H14.4983V34C14.4983 35.933 16.0653 37.5 17.9983 37.5C19.9313 37.5 21.4983 35.933 21.4983 34V33Z" fill="var(--fill-0, #272320)"/>
</svg>
