<svg preserveAspectRatio="none" width="100%" height="100%" overflow="visible" style="display: block;" viewBox="0 0 12.9972 14.0038" fill="none" xmlns="http://www.w3.org/2000/svg">
<path id="Shape" d="M9.05622 8.362L10.7172 11.487C10.6412 11.552 10.5632 11.617 10.4972 11.693C10.1302 11.273 9.59722 11.002 8.99722 11.002C8.39722 11.002 7.86422 11.273 7.49722 11.693C7.35922 11.535 7.19122 11.407 7.01122 11.298L6.21822 9.806C6.12422 9.629 5.87122 9.629 5.77722 9.806L4.99122 11.284C4.40022 11.632 3.99722 12.268 3.99722 13.002C3.99722 13.045 4.00722 13.086 4.01022 13.129L3.99422 13.159C3.58122 13.935 2.61822 14.23 1.84222 13.817C1.06622 13.404 0.771223 12.441 1.18422 11.665L2.93922 8.365C2.97722 8.293 2.99822 8.212 2.99822 8.13V6.208C2.99822 6.004 2.87422 5.821 2.68522 5.744L0.990223 5.059C0.174223 4.73 -0.214777 3.802 0.120223 2.989C0.454223 2.179 1.38322 1.788 2.19622 2.117L2.97722 2.433C3.23322 2.536 3.41622 2.734 3.52222 2.951C3.96822 3.87 4.91022 4.502 5.99822 4.502C7.08622 4.502 8.02822 3.87 8.47422 2.951C8.57922 2.734 8.76322 2.537 9.01922 2.433L9.80022 2.117C10.6132 1.789 11.5422 2.179 11.8762 2.989C12.2112 3.802 11.8222 4.73 11.0062 5.059L9.31122 5.744C9.12222 5.82 8.99822 6.004 8.99822 6.208V8.129C8.99822 8.211 9.01822 8.291 9.05622 8.364V8.362ZM5.99722 3.5C6.96322 3.5 7.74722 2.716 7.74722 1.75C7.74722 0.784 6.96322 0 5.99722 0C5.03122 0 4.24722 0.784 4.24722 1.75C4.24722 2.716 5.03122 3.5 5.99722 3.5ZM11.9972 12.001C11.4452 12.001 10.9972 12.449 10.9972 13.001C10.9972 13.553 11.4452 14.001 11.9972 14.001C12.5492 14.001 12.9972 13.553 12.9972 13.001C12.9972 12.449 12.5492 12.001 11.9972 12.001ZM5.99722 12.001C5.44522 12.001 4.99722 12.449 4.99722 13.001C4.99722 13.553 5.44522 14.001 5.99722 14.001C6.54922 14.001 6.99722 13.553 6.99722 13.001C6.99722 12.449 6.54922 12.001 5.99722 12.001ZM8.99722 12.001C8.44522 12.001 7.99722 12.449 7.99722 13.001C7.99722 13.553 8.44522 14.001 8.99722 14.001C9.54922 14.001 9.99722 13.553 9.99722 13.001C9.99722 12.449 9.54922 12.001 8.99722 12.001Z" fill="var(--fill-0, #272320)"/>
</svg>
