<svg preserveAspectRatio="none" width="100%" height="100%" overflow="visible" style="display: block;" viewBox="0 0 12.9962 14.0008" fill="none" xmlns="http://www.w3.org/2000/svg">
<path id="Shape" d="M8.99622 5.868L11.0042 5.057C11.8192 4.728 12.2092 3.8 11.8742 2.987C11.5402 2.177 10.6112 1.786 9.79822 2.115L8.18722 2.766C8.22622 2.6 8.24722 2.427 8.24722 2.25C8.24722 1.007 7.24022 0 5.99722 0C4.75422 0 3.74722 1.007 3.74722 2.25C3.74722 2.428 3.76822 2.601 3.80722 2.766L2.19622 2.115C1.38322 1.787 0.454223 2.177 0.120223 2.987C-0.214777 3.8 0.174223 4.728 0.990223 5.057L2.99822 5.868V8.252L1.18522 11.662C0.772223 12.438 1.06722 13.402 1.84322 13.814C2.61922 14.227 3.58322 13.932 3.99522 13.156L4.01122 13.126C4.00822 13.083 3.99822 13.043 3.99822 12.999C3.99822 12.265 4.40022 11.629 4.99222 11.281L5.99822 9.388L7.01222 11.295C7.19222 11.404 7.36022 11.532 7.49822 11.69C7.66722 11.496 7.87522 11.339 8.10522 11.22L6.88122 8.918C6.50522 8.211 5.49122 8.211 5.11522 8.918L3.11222 12.686C2.95922 12.975 2.60122 13.084 2.31222 12.931C2.02422 12.778 1.91422 12.42 2.06722 12.131L3.88022 8.72C3.95722 8.575 3.99722 8.414 3.99722 8.251V5.867C3.99722 5.459 3.75022 5.093 3.37222 4.94L1.36422 4.129C1.06322 4.007 0.920223 3.667 1.04422 3.367C1.16922 3.064 1.51722 2.918 1.82122 3.041L5.24822 4.426C5.72922 4.62 6.26622 4.62 6.74622 4.426L10.1732 3.041C10.4762 2.918 10.8252 3.065 10.9502 3.367C11.0742 3.667 10.9312 4.007 10.6302 4.129L8.62222 4.94C8.24422 5.093 7.99722 5.46 7.99722 5.867V8.25C7.99722 8.414 8.03722 8.575 8.11422 8.719L9.34722 11.038C9.80222 11.121 10.2042 11.354 10.4972 11.69C10.5632 11.614 10.6412 11.549 10.7172 11.484L8.99722 8.249V5.866L8.99622 5.868ZM5.99622 3.499C5.30622 3.499 4.74622 2.939 4.74622 2.249C4.74622 1.559 5.30622 0.999 5.99622 0.999C6.68622 0.999 7.24622 1.559 7.24622 2.249C7.24622 2.939 6.68622 3.499 5.99622 3.499ZM6.99622 13C6.99622 13.552 6.54822 14 5.99622 14C5.44422 14 4.99622 13.552 4.99622 13C4.99622 12.448 5.44422 12 5.99622 12C6.54822 12 6.99622 12.448 6.99622 13ZM12.9962 13C12.9962 13.552 12.5482 14 11.9962 14C11.4442 14 10.9962 13.552 10.9962 13C10.9962 12.448 11.4442 12 11.9962 12C12.5482 12 12.9962 12.448 12.9962 13ZM9.99622 13C9.99622 13.552 9.54822 14 8.99622 14C8.44422 14 7.99622 13.552 7.99622 13C7.99622 12.448 8.44422 12 8.99622 12C9.54822 12 9.99622 12.448 9.99622 13Z" fill="var(--fill-0, #272320)"/>
</svg>
