<svg preserveAspectRatio="none" width="100%" height="100%" overflow="visible" style="display: block;" viewBox="0 0 15.8297 16.6667" fill="none" xmlns="http://www.w3.org/2000/svg">
<path id="Shape" d="M6.71971 9.89167L5.48304 13.4825C5.71971 13.3892 5.97554 13.3333 6.24554 13.3333C6.44804 13.3333 6.63971 13.3717 6.82471 13.425L7.49554 11.4758L8.54221 14.515C8.74971 14.0867 9.09638 13.7408 9.52721 13.5367L8.27138 9.89083C8.01804 9.15417 6.97304 9.15083 6.71888 9.89083L6.71971 9.89167ZM14.8397 2.80167C14.428 1.85167 13.3247 1.41083 12.3722 1.815L9.97554 2.8325C9.98971 2.72417 9.99721 2.6125 9.99721 2.5C9.99721 1.11917 8.87804 0 7.49721 0C6.11638 0 4.99721 1.11917 4.99721 2.5C4.99721 2.6125 5.00471 2.72333 5.01888 2.8325L2.62221 1.815C1.66971 1.41083 0.565542 1.85167 0.154709 2.80167C-0.257791 3.75417 0.183042 4.8575 1.13888 5.26333L4.16638 6.54833V9.6325L2.60054 14.18C2.26304 15.1592 2.78388 16.2258 3.76304 16.5633C4.03388 16.6567 4.31054 16.6783 4.57721 16.6492C4.32138 16.3033 4.16471 15.8792 4.16471 15.4167C4.16471 15.4042 4.16804 15.3925 4.16804 15.3808C3.84304 15.2675 3.67054 14.9133 3.78221 14.5875L5.35971 10.0067C5.39721 9.8975 5.41638 9.78333 5.41638 9.6675V6.41C5.41638 5.99167 5.16638 5.61417 4.78138 5.45083L1.62721 4.11167C1.30971 3.97667 1.16471 3.61333 1.30138 3.2975C1.43971 2.97833 1.81304 2.82833 2.13388 2.965L6.27638 4.72333C6.40888 4.78 6.54471 4.82667 6.68221 4.86333C6.93804 4.95167 7.21138 4.99917 7.49721 4.99917C7.78304 4.99917 8.05638 4.95167 8.31138 4.86333C8.44888 4.82583 8.58471 4.77917 8.71804 4.7225L12.8605 2.96417C13.1814 2.82833 13.5547 2.9775 13.693 3.29667C13.8297 3.6125 13.6847 3.97667 13.3672 4.11083L10.2172 5.44833C9.83221 5.61167 9.58221 5.98917 9.58221 6.4075V9.6775C9.58221 9.79333 9.60138 9.9075 9.63888 10.0167L10.7939 13.37C11.6555 13.53 12.3255 14.2192 12.4639 15.0883C12.5122 14.7925 12.4989 14.4825 12.3939 14.1792L10.8322 9.64333V6.54583L13.8555 5.2625C14.8114 4.85667 15.2522 3.75417 14.8397 2.80167ZM7.93888 3.66917C7.64804 3.74 7.34388 3.74 7.05304 3.66917C6.58138 3.49 6.24638 3.03417 6.24638 2.5C6.24638 1.81 6.80638 1.25 7.49638 1.25C8.18638 1.25 8.74638 1.81 8.74638 2.5C8.74638 3.03417 8.41138 3.49083 7.93971 3.66917H7.93888ZM7.49638 15.4167C7.49638 16.1067 6.93638 16.6667 6.24638 16.6667C5.55638 16.6667 4.99638 16.1067 4.99638 15.4167C4.99638 14.7267 5.55638 14.1667 6.24638 14.1667C6.93638 14.1667 7.49638 14.7267 7.49638 15.4167ZM10.413 16.6667C11.103 16.6667 11.663 16.1067 11.663 15.4167C11.663 14.7267 11.103 14.1667 10.413 14.1667C9.72304 14.1667 9.16304 14.7267 9.16304 15.4167C9.16304 16.1067 9.72304 16.6667 10.413 16.6667ZM14.5797 16.6667C15.2697 16.6667 15.8297 16.1067 15.8297 15.4167C15.8297 14.7267 15.2697 14.1667 14.5797 14.1667C13.8897 14.1667 13.3297 14.7267 13.3297 15.4167C13.3297 16.1067 13.8897 16.6667 14.5797 16.6667Z" fill="var(--fill-0, #272320)"/>
</svg>
