<svg preserveAspectRatio="none" width="100%" height="100%" overflow="visible" style="display: block;" viewBox="0 0 15.2546 16.25" fill="none" xmlns="http://www.w3.org/2000/svg">
<path id="Shape" d="M11.8766 13.594C11.9246 13.712 11.9566 13.831 11.9776 13.952C11.5986 13.243 10.8636 12.751 10.0046 12.751C9.23156 12.751 8.57056 13.159 8.16656 13.756L7.23356 11.447C7.14956 11.239 6.85456 11.239 6.76956 11.447L6.22956 12.783C6.15356 12.775 6.08256 12.75 6.00356 12.75C4.76356 12.75 3.75356 13.76 3.75356 15C3.75356 15.351 3.84156 15.68 3.98556 15.976C3.69256 16.016 3.38756 15.991 3.09356 15.872C2.19756 15.51 1.76456 14.49 2.12656 13.594L3.96656 9.039C3.99056 8.98 4.00255 8.916 4.00255 8.852V6.987C4.00255 6.789 3.88656 6.611 3.70556 6.53L1.03355 5.34C0.149555 4.946 -0.243444 3.911 0.156556 3.03C0.555556 2.151 1.59256 1.758 2.47356 2.15L3.74956 2.718C3.99556 2.828 4.17156 3.025 4.26956 3.242C4.74256 4.28 5.78856 4.999 7.00156 4.999C8.21456 4.999 9.26056 4.279 9.73256 3.242C9.83156 3.025 10.0066 2.828 10.2526 2.718L11.5286 2.15C12.4106 1.757 13.4466 2.151 13.8456 3.03C14.2456 3.911 13.8526 4.946 12.9686 5.34L10.2966 6.53C10.1166 6.61 9.99956 6.789 9.99956 6.987V8.863C9.99956 8.927 10.0116 8.991 10.0356 9.05L11.8716 13.594H11.8766ZM7.00456 4C8.10956 4 9.00456 3.105 9.00456 2C9.00456 0.895 8.10956 0 7.00456 0C5.89956 0 5.00456 0.895 5.00456 2C5.00456 3.105 5.89956 4 7.00456 4ZM6.00456 13.75C5.31456 13.75 4.75456 14.31 4.75456 15C4.75456 15.69 5.31456 16.25 6.00456 16.25C6.69456 16.25 7.25456 15.69 7.25456 15C7.25456 14.31 6.69456 13.75 6.00456 13.75ZM10.0046 13.75C9.31456 13.75 8.75456 14.31 8.75456 15C8.75456 15.69 9.31456 16.25 10.0046 16.25C10.6946 16.25 11.2546 15.69 11.2546 15C11.2546 14.31 10.6946 13.75 10.0046 13.75ZM14.0046 13.75C13.3146 13.75 12.7546 14.31 12.7546 15C12.7546 15.69 13.3146 16.25 14.0046 16.25C14.6946 16.25 15.2546 15.69 15.2546 15C15.2546 14.31 14.6946 13.75 14.0046 13.75Z" fill="var(--fill-0, #272320)"/>
</svg>
