<svg preserveAspectRatio="none" width="100%" height="100%" overflow="visible" style="display: block;" viewBox="0 0 15.2516 16.251" fill="none" xmlns="http://www.w3.org/2000/svg">
<path id="Shape" d="M5.99756 10.683L5.08056 12.953C5.36256 12.826 5.67256 12.751 6.00156 12.751C6.08056 12.751 6.15156 12.776 6.22756 12.784L6.92456 11.058C6.93356 11.035 6.94456 11.025 6.95256 11.02C6.96256 11.013 6.97856 11.008 6.99856 11.008C7.01856 11.008 7.03355 11.013 7.04455 11.02C7.05255 11.025 7.06355 11.034 7.07255 11.058L8.16255 13.756C8.36555 13.455 8.62956 13.207 8.94956 13.034L7.99955 10.683C7.63555 9.782 6.36156 9.782 5.99756 10.683ZM13.8466 3.032C13.4476 2.153 12.4106 1.76 11.5296 2.152L9.43256 3.086C9.47756 2.898 9.50156 2.702 9.50156 2.5C9.50156 1.119 8.38256 0 7.00156 0C5.62056 0 4.50156 1.119 4.50156 2.5C4.50156 2.702 4.52556 2.898 4.57056 3.086L2.47356 2.152C1.59156 1.759 0.555556 2.153 0.156556 3.032C-0.243444 3.913 0.149555 4.948 1.03355 5.342L4.00156 6.664V8.951L2.12455 13.596C1.76255 14.492 2.19556 15.512 3.09156 15.874C3.38556 15.993 3.69056 16.018 3.98356 15.978C3.83956 15.681 3.75056 15.353 3.75056 15.001C3.65556 15.001 3.55856 14.985 3.46556 14.948C3.08156 14.793 2.89555 14.356 3.05155 13.972L4.92856 9.327C4.97656 9.208 5.00156 9.081 5.00156 8.952V6.665C5.00156 6.27 4.76956 5.912 4.40856 5.751L1.44055 4.429C1.06355 4.261 0.896555 3.822 1.06756 3.446C1.23956 3.068 1.68756 2.897 2.06756 3.066L5.98555 4.81C6.63255 5.098 7.37156 5.098 8.01956 4.81L11.9376 3.066C12.3176 2.897 12.7656 3.067 12.9376 3.446C13.1086 3.822 12.9416 4.261 12.5646 4.429L9.59655 5.751C9.23555 5.912 9.00356 6.27 9.00356 6.665V8.963C9.00356 9.091 9.02856 9.219 9.07656 9.338L10.4836 12.822C11.1306 12.967 11.6706 13.383 11.9756 13.954C11.9546 13.834 11.9226 13.715 11.8756 13.597L10.0036 8.963V6.665L12.9716 5.343C13.8556 4.949 14.2486 3.914 13.8486 3.033L13.8466 3.032ZM7.00156 4C6.17356 4 5.50156 3.328 5.50156 2.5C5.50156 1.672 6.17356 1 7.00156 1C7.82956 1 8.50156 1.672 8.50156 2.5C8.50156 3.328 7.82956 4 7.00156 4ZM7.25156 15.001C7.25156 15.691 6.69156 16.251 6.00156 16.251C5.31156 16.251 4.75156 15.691 4.75156 15.001C4.75156 14.311 5.31156 13.751 6.00156 13.751C6.69156 13.751 7.25156 14.311 7.25156 15.001ZM10.0016 16.251C10.6916 16.251 11.2516 15.691 11.2516 15.001C11.2516 14.311 10.6916 13.751 10.0016 13.751C9.31156 13.751 8.75156 14.311 8.75156 15.001C8.75156 15.691 9.31156 16.251 10.0016 16.251ZM14.0016 16.251C14.6916 16.251 15.2516 15.691 15.2516 15.001C15.2516 14.311 14.6916 13.751 14.0016 13.751C13.3116 13.751 12.7516 14.311 12.7516 15.001C12.7516 15.691 13.3116 16.251 14.0016 16.251Z" fill="var(--fill-0, #272320)"/>
</svg>
