<svg preserveAspectRatio="none" width="100%" height="100%" overflow="visible" style="display: block;" viewBox="0 0 18.9967 20" fill="none" xmlns="http://www.w3.org/2000/svg">
<path id="Shape" d="M14.8737 17.017C14.9987 17.381 15.0157 17.753 14.9577 18.108C14.7677 16.916 13.7417 16 12.4977 16C11.5077 16 10.6587 16.583 10.2537 17.419L9.23465 14.458C9.15765 14.233 8.83965 14.233 8.76165 14.458L8.19265 16.11C7.97065 16.045 7.74065 16 7.49765 16C6.11865 16 4.99765 17.121 4.99765 18.5C4.99765 19.055 5.18565 19.564 5.49265 19.979C5.17265 20.014 4.84065 19.988 4.51565 19.876C3.34065 19.472 2.71665 18.191 3.12065 17.016L4.99965 11.559V8.52C4.99965 8.119 4.75965 7.756 4.39065 7.599L1.36665 6.316C0.219651 5.829 -0.309349 4.505 0.185651 3.362C0.679651 2.222 2.00365 1.693 3.14665 2.178L4.75265 2.86C5.09365 3.005 5.33065 3.283 5.44765 3.591C5.98965 5.025 7.37565 6.043 8.99665 6.043C10.6177 6.043 12.0037 5.025 12.5457 3.591C12.6627 3.283 12.8997 3.005 13.2407 2.86L14.8467 2.178C15.9897 1.693 17.3147 2.222 17.8077 3.362C18.3027 4.505 17.7737 5.829 16.6267 6.316L13.6077 7.597C13.2387 7.754 12.9987 8.116 12.9987 8.517V11.559L14.8727 17.016L14.8737 17.017ZM8.99665 4.5C10.2397 4.5 11.2467 3.493 11.2467 2.25C11.2467 1.007 10.2397 0 8.99665 0C7.75365 0 6.74665 1.007 6.74665 2.25C6.74665 3.493 7.75365 4.5 8.99665 4.5ZM7.49665 17C6.66865 17 5.99665 17.672 5.99665 18.5C5.99665 19.328 6.66865 20 7.49665 20C8.32465 20 8.99665 19.328 8.99665 18.5C8.99665 17.672 8.32465 17 7.49665 17ZM12.4967 17C11.6687 17 10.9967 17.672 10.9967 18.5C10.9967 19.328 11.6687 20 12.4967 20C13.3247 20 13.9967 19.328 13.9967 18.5C13.9967 17.672 13.3247 17 12.4967 17ZM17.4967 17C16.6687 17 15.9967 17.672 15.9967 18.5C15.9967 19.328 16.6687 20 17.4967 20C18.3247 20 18.9967 19.328 18.9967 18.5C18.9967 17.672 18.3247 17 17.4967 17Z" fill="var(--fill-0, #272320)"/>
</svg>
