<svg preserveAspectRatio="none" width="100%" height="100%" overflow="visible" style="display: block;" viewBox="0 0 18.9957 20" fill="none" xmlns="http://www.w3.org/2000/svg">
<path id="Shape" d="M8.06365 11.87L6.57965 16.179C6.86365 16.067 7.17065 16 7.49465 16C7.73765 16 7.96765 16.046 8.18965 16.11L8.99465 13.771L10.2507 17.418C10.4997 16.904 10.9157 16.489 11.4327 16.244L9.92565 11.869C9.62165 10.985 8.36765 10.981 8.06265 11.869L8.06365 11.87ZM17.8077 3.362C17.3137 2.222 15.9897 1.693 14.8467 2.178L11.9707 3.399C11.9877 3.269 11.9967 3.135 11.9967 3C11.9967 1.343 10.6537 0 8.99665 0C7.33965 0 5.99665 1.343 5.99665 3C5.99665 3.135 6.00565 3.268 6.02265 3.399L3.14665 2.178C2.00365 1.693 0.678651 2.222 0.185651 3.362C-0.309349 4.505 0.219651 5.829 1.36665 6.316L4.99965 7.858V11.559L3.12065 17.016C2.71565 18.191 3.34065 19.471 4.51565 19.876C4.84065 19.988 5.17265 20.014 5.49265 19.979C5.18565 19.564 4.99765 19.055 4.99765 18.5C4.99765 18.485 5.00165 18.471 5.00165 18.457C4.61165 18.321 4.40465 17.896 4.53865 17.505L6.43165 12.008C6.47665 11.877 6.49965 11.74 6.49965 11.601V7.692C6.49965 7.19 6.19965 6.737 5.73765 6.541L1.95265 4.934C1.57165 4.772 1.39765 4.336 1.56165 3.957C1.72765 3.574 2.17565 3.394 2.56065 3.558L7.53165 5.668C7.69065 5.736 7.85365 5.792 8.01865 5.836C8.32565 5.942 8.65365 5.999 8.99665 5.999C9.33965 5.999 9.66765 5.942 9.97365 5.836C10.1387 5.791 10.3017 5.735 10.4617 5.667L15.4327 3.557C15.8177 3.394 16.2657 3.573 16.4317 3.956C16.5957 4.335 16.4217 4.772 16.0407 4.933L12.2607 6.538C11.7987 6.734 11.4987 7.187 11.4987 7.689V11.613C11.4987 11.752 11.5217 11.889 11.5667 12.02L12.9527 16.044C13.9867 16.236 14.7907 17.063 14.9567 18.106C15.0147 17.751 14.9987 17.379 14.8727 17.015L12.9987 11.572V7.855L16.6267 6.315C17.7737 5.828 18.3027 4.505 17.8077 3.362ZM9.52665 4.403C9.17765 4.488 8.81265 4.488 8.46365 4.403C7.89765 4.188 7.49565 3.641 7.49565 3C7.49565 2.172 8.16765 1.5 8.99565 1.5C9.82365 1.5 10.4957 2.172 10.4957 3C10.4957 3.641 10.0937 4.189 9.52765 4.403H9.52665ZM8.99565 18.5C8.99565 19.328 8.32365 20 7.49565 20C6.66765 20 5.99565 19.328 5.99565 18.5C5.99565 17.672 6.66765 17 7.49565 17C8.32365 17 8.99565 17.672 8.99565 18.5ZM12.4957 20C13.3237 20 13.9957 19.328 13.9957 18.5C13.9957 17.672 13.3237 17 12.4957 17C11.6677 17 10.9957 17.672 10.9957 18.5C10.9957 19.328 11.6677 20 12.4957 20ZM17.4957 20C18.3237 20 18.9957 19.328 18.9957 18.5C18.9957 17.672 18.3237 17 17.4957 17C16.6677 17 15.9957 17.672 15.9957 18.5C15.9957 19.328 16.6677 20 17.4957 20Z" fill="var(--fill-0, #272320)"/>
</svg>
