<svg preserveAspectRatio="none" width="100%" height="100%" overflow="visible" style="display: block;" viewBox="0 0 12 12" fill="none" xmlns="http://www.w3.org/2000/svg">
<path id="Shape" d="M0 2C0 0.895429 0.89543 0 2 0H7.99999C9.10456 0 9.99999 0.89543 9.99999 2V7.99999C9.99999 9.10456 9.10456 9.99999 7.99999 9.99999H2C0.895429 9.99999 0 9.10456 0 7.99999V2ZM4.5 4.49999H2.5C2.22386 4.49999 2 4.72385 2 4.99999C2 5.27614 2.22386 5.49999 2.5 5.49999H4.5V7.5C4.5 7.77614 4.72386 8 5 8C5.27614 8 5.5 7.77614 5.5 7.5V5.49999H7.49999C7.77613 5.49999 7.99999 5.27614 7.99999 4.99999C7.99999 4.72385 7.77613 4.49999 7.49999 4.49999H5.5V2.5C5.5 2.22386 5.27614 2 5 2C4.72386 2 4.5 2.22386 4.5 2.5V4.49999ZM8.5 11C9.88071 11 11 9.88071 11 8.5V1.26758C11.5978 1.61339 12 2.25973 12 3.00001V8.5C12 10.433 10.433 12 8.5 12H3.00001C2.25973 12 1.61339 11.5978 1.26758 11H8.5Z" fill="var(--fill-0, #272320)"/>
</svg>
