<svg preserveAspectRatio="none" width="100%" height="100%" overflow="visible" style="display: block;" viewBox="0 0 12 12" fill="none" xmlns="http://www.w3.org/2000/svg">
<path id="Shape" d="M2 4.99999C2 4.72385 2.22386 4.49999 2.5 4.49999H4.5V2.5C4.5 2.22386 4.72386 2 5 2C5.27614 2 5.5 2.22386 5.5 2.5V4.49999H7.49999C7.77613 4.49999 7.99999 4.72385 7.99999 4.99999C7.99999 5.27614 7.77613 5.49999 7.49999 5.49999H5.5V7.5C5.5 7.77614 5.27614 8 5 8C4.72386 8 4.5 7.77614 4.5 7.5V5.49999H2.5C2.22386 5.49999 2 5.27614 2 4.99999ZM2 0C0.89543 0 0 0.895429 0 2V7.99999C0 9.10456 0.895429 9.99999 2 9.99999H7.99999C9.10456 9.99999 9.99999 9.10456 9.99999 7.99999V2C9.99999 0.89543 9.10456 0 7.99999 0H2ZM0.999999 2C0.999999 1.44771 1.44771 0.999999 2 0.999999H7.99999C8.55227 0.999999 8.99999 1.44771 8.99999 2V7.99999C8.99999 8.55227 8.55227 8.99999 7.99999 8.99999H2C1.44771 8.99999 0.999999 8.55227 0.999999 7.99999V2ZM8.5 11C9.88071 11 11 9.88071 11 8.5V1.26758C11.5978 1.61339 12 2.25973 12 3.00001V8.5C12 10.433 10.433 12 8.5 12H3.00001C2.25973 12 1.61339 11.5978 1.26758 11H8.5Z" fill="var(--fill-0, #272320)"/>
</svg>
