<svg preserveAspectRatio="none" width="100%" height="100%" overflow="visible" style="display: block;" viewBox="0 0 15 14.9999" fill="none" xmlns="http://www.w3.org/2000/svg">
<path id="Shape" d="M0 1.875C0 0.839466 0.839466 0 1.875 0H11.0417C12.0772 0 12.9167 0.839466 12.9167 1.875V11.0417C12.9167 12.0772 12.0772 12.9167 11.0417 12.9167H1.875C0.839466 12.9167 0 12.0772 0 11.0417V1.875ZM7.08333 3.54167C7.08333 3.19649 6.80351 2.91667 6.45833 2.91667C6.11316 2.91667 5.83333 3.19649 5.83333 3.54167V5.83333H3.54167C3.19649 5.83333 2.91667 6.11316 2.91667 6.45833C2.91667 6.80351 3.19649 7.08333 3.54167 7.08333H5.83333V9.375C5.83333 9.72018 6.11316 10 6.45833 10C6.80351 10 7.08333 9.72018 7.08333 9.375V7.08333H9.375C9.72018 7.08333 10 6.80351 10 6.45833C10 6.11316 9.72018 5.83333 9.375 5.83333H7.08333V3.54167ZM3.95835 14.9999C3.14197 14.9999 2.44744 14.4782 2.19004 13.7499H11.0417C12.5375 13.7499 13.75 12.5374 13.75 11.0416V2.18994C14.4783 2.44734 15 3.14186 15 3.95825V11.0416C15 13.2277 13.2278 14.9999 11.0417 14.9999H3.95835Z" fill="var(--fill-0, #272320)"/>
</svg>
