<svg preserveAspectRatio="none" width="100%" height="100%" overflow="visible" style="display: block;" viewBox="0 0 14 14" fill="none" xmlns="http://www.w3.org/2000/svg">
<path id="Shape" d="M13 2.26758C13.5978 2.61339 14 3.25973 14 4.00001V10C14 12.2091 12.2091 14 10 14H4C3.25972 14 2.61337 13.5978 2.26756 13H10C11.6569 13 13 11.6569 13 10V2.26758ZM12 2C12 0.89543 11.1046 3.97973e-07 10 3.49691e-07L2 0C0.895431 -4.82822e-08 3.97975e-07 0.895429 3.49693e-07 2L0 9.99999C-4.82823e-08 11.1046 0.89543 12 2 12H10C11.1046 12 12 11.1046 12 9.99999V2ZM9 5.99999C9 6.27614 8.77614 6.49999 8.5 6.49999L6.5 6.49999V8.49999C6.5 8.77613 6.27614 8.99999 6 8.99999C5.72386 8.99999 5.5 8.77613 5.5 8.49999V6.49999H3.5C3.22386 6.49999 3 6.27614 3 5.99999C3 5.72385 3.22386 5.49999 3.5 5.49999H5.5L5.5 3.5C5.5 3.22385 5.72386 3 6 3C6.27614 3 6.5 3.22385 6.5 3.5L6.5 5.49999L8.5 5.5C8.77614 5.5 9 5.72385 9 5.99999Z" fill="var(--fill-0, #272320)"/>
</svg>
