<svg preserveAspectRatio="none" width="100%" height="100%" overflow="visible" style="display: block;" viewBox="0 0 14 14" fill="none" xmlns="http://www.w3.org/2000/svg">
<path id="Shape" d="M13 2.26758V10C13 11.6569 11.6569 13 10 13H2.26756C2.61337 13.5978 3.25972 14 4 14H10C12.2091 14 14 12.2091 14 10V4.00001C14 3.25973 13.5978 2.61339 13 2.26758ZM8.5 6.49999C8.77614 6.49999 9 6.27614 9 5.99999C9 5.72385 8.77614 5.5 8.5 5.5L6.5 5.49999L6.5 3.5C6.5 3.22385 6.27614 3 6 3C5.72386 3 5.5 3.22385 5.5 3.5L5.5 5.49999H3.5C3.22386 5.49999 3 5.72385 3 5.99999C3 6.27614 3.22386 6.49999 3.5 6.49999H5.5V8.49999C5.5 8.77613 5.72386 8.99999 6 8.99999C6.27614 8.99999 6.5 8.77613 6.5 8.49999V6.49999L8.5 6.49999ZM10 3.49691e-07C11.1046 3.97973e-07 12 0.89543 12 2V9.99999C12 11.1046 11.1046 12 10 12H2C0.89543 12 -4.82823e-08 11.1046 0 9.99999L3.49693e-07 2C3.97975e-07 0.895429 0.895431 -4.82822e-08 2 0L10 3.49691e-07ZM11 2C11 1.44771 10.5523 0.999999 10 0.999999L2 0.999999C1.44772 0.999999 1 1.44771 1 2L1 9.99999C1 10.5523 1.44771 11 2 11H10C10.5523 11 11 10.5523 11 9.99999V2Z" fill="var(--fill-0, #272320)"/>
</svg>
