<svg preserveAspectRatio="none" width="100%" height="100%" overflow="visible" style="display: block;" viewBox="0 0 18 17.9999" fill="none" xmlns="http://www.w3.org/2000/svg">
<path id="Shape" d="M0 2.25C0 1.00736 1.00736 0 2.25 0H13.25C14.4926 0 15.5 1.00736 15.5 2.25V13.25C15.5 14.4926 14.4926 15.5 13.25 15.5H2.25C1.00736 15.5 0 14.4926 0 13.25V2.25ZM8.5 4.25C8.5 3.83579 8.16421 3.5 7.75 3.5C7.33579 3.5 7 3.83579 7 4.25V7H4.25C3.83579 7 3.5 7.33579 3.5 7.75C3.5 8.16421 3.83579 8.5 4.25 8.5H7V11.25C7 11.6642 7.33579 12 7.75 12C8.16421 12 8.5 11.6642 8.5 11.25V8.5H11.25C11.6642 8.5 12 8.16421 12 7.75C12 7.33579 11.6642 7 11.25 7H8.5V4.25ZM4.75002 17.9999C3.77036 17.9999 2.93693 17.3738 2.62805 16.4999H13.25C15.0449 16.4999 16.5 15.0448 16.5 13.2499V2.62793C17.3739 2.93681 18 3.77024 18 4.7499V13.2499C18 15.8733 15.8734 17.9999 13.25 17.9999H4.75002Z" fill="var(--fill-0, #272320)"/>
</svg>
