<svg preserveAspectRatio="none" width="100%" height="100%" overflow="visible" style="display: block;" viewBox="0 0 18 17.9999" fill="none" xmlns="http://www.w3.org/2000/svg">
<path id="Shape" d="M2.25 0C1.00736 0 0 1.00736 0 2.25V13.25C0 14.4926 1.00736 15.5 2.25 15.5H13.25C14.4926 15.5 15.5 14.4926 15.5 13.25V2.25C15.5 1.00736 14.4926 0 13.25 0H2.25ZM1.5 2.25C1.5 1.83579 1.83579 1.5 2.25 1.5H13.25C13.6642 1.5 14 1.83579 14 2.25V13.25C14 13.6642 13.6642 14 13.25 14H2.25C1.83579 14 1.5 13.6642 1.5 13.25V2.25ZM4.75002 17.9999C3.77036 17.9999 2.93693 17.3738 2.62805 16.4999H13.25C15.0449 16.4999 16.5 15.0448 16.5 13.2499V2.62793C17.3739 2.93681 18 3.77024 18 4.7499V13.2499C18 15.8733 15.8734 17.9999 13.25 17.9999H4.75002ZM7.75 3.5C8.16421 3.5 8.5 3.83579 8.5 4.25V7H11.25C11.6642 7 12 7.33579 12 7.75C12 8.16421 11.6642 8.5 11.25 8.5H8.5V11.25C8.5 11.6642 8.16421 12 7.75 12C7.33579 12 7 11.6642 7 11.25V8.5H4.25C3.83579 8.5 3.5 8.16421 3.5 7.75C3.5 7.33579 3.83579 7 4.25 7H7V4.25C7 3.83579 7.33579 3.5 7.75 3.5Z" fill="var(--fill-0, #272320)"/>
</svg>
