<svg preserveAspectRatio="none" width="100%" height="100%" overflow="visible" style="display: block;" viewBox="0 0 17.5 15.8333" fill="none" xmlns="http://www.w3.org/2000/svg">
<path id="Shape" d="M4.58333 6.66667C7.11464 6.66667 9.16667 8.71869 9.16667 11.25C9.16667 13.7813 7.11464 15.8333 4.58333 15.8333C2.05203 15.8333 0 13.7813 0 11.25C0 8.71869 2.05203 6.66667 4.58333 6.66667ZM15.8333 0C16.7538 0 17.5 0.746192 17.5 1.66667V11.6667C17.5 12.5871 16.7538 13.3333 15.8333 13.3333H9.58496C9.8524 12.692 10 11.9882 10 11.25C10 8.25846 7.57488 5.83333 4.58333 5.83333V0H15.8333ZM2.07926 10.8333C1.84956 10.8336 1.66342 11.02 1.66341 11.25C1.66341 11.48 1.84956 11.6664 2.07926 11.6667H7.08089C7.3106 11.6664 7.49674 11.48 7.49674 11.25C7.49674 11.02 7.3106 10.8336 7.08089 10.8333H2.07926ZM3.33333 5.97819C2.37715 6.20406 1.51888 6.68342 0.833333 7.34131V1.66667C0.833333 0.746192 1.57953 0 2.5 0H3.33333V5.97819ZM9.16667 2.5C8.24619 2.5 7.5 3.24619 7.5 4.16667V5C7.5 5.92047 8.24619 6.66667 9.16667 6.66667H12.5C13.4205 6.66667 14.1667 5.92047 14.1667 5V4.16667C14.1667 3.24619 13.4205 2.5 12.5 2.5H9.16667ZM12.5 3.75C12.7301 3.75 12.9167 3.93655 12.9167 4.16667V5C12.9167 5.23012 12.7301 5.41667 12.5 5.41667H9.16667C8.93655 5.41667 8.75 5.23012 8.75 5V4.16667C8.75 3.93655 8.93655 3.75 9.16667 3.75H12.5Z" fill="var(--fill-0, #272320)"/>
</svg>
