<svg preserveAspectRatio="none" width="100%" height="100%" overflow="visible" style="display: block;" viewBox="0 0 17 14" fill="none" xmlns="http://www.w3.org/2000/svg">
<path id="Shape" d="M4.5 5C6.98528 5 9 7.01472 9 9.5C9 11.9853 6.98528 14 4.5 14C2.01472 14 0 11.9853 0 9.5C0 7.01472 2.01472 5 4.5 5ZM15 0C16.1046 0 17 0.895431 17 2V10C17 11.1046 16.1046 12 15 12H9.40039C9.78381 11.2499 10 10.4002 10 9.5C10 8.59979 9.78381 7.75006 9.40039 7H12.5C13.3284 7 14 6.32843 14 5.5V4.5C14 3.67157 13.3284 3 12.5 3H8.5C7.67157 3 7 3.67157 7 4.5V4.59961C6.24994 4.21619 5.40021 4 4.5 4C4.33146 4 4.16468 4.00762 4 4.02246V0H15ZM2.5 9C2.22386 9 2 9.22386 2 9.5C2 9.77614 2.22386 10 2.5 10H6.5C6.77614 10 7 9.77614 7 9.5C7 9.22386 6.77614 9 6.5 9H2.5ZM12.5 4C12.7761 4 13 4.22386 13 4.5V5.5C13 5.77614 12.7761 6 12.5 6H8.74316C8.51972 5.72944 8.27056 5.48028 8 5.25684V4.5C8 4.22386 8.22386 4 8.5 4H12.5ZM3 4.20703C2.25768 4.41699 1.579 4.7787 1 5.25684V2C1 0.895431 1.89543 0 3 0V4.20703Z" fill="var(--fill-0, #272320)"/>
</svg>
