<svg preserveAspectRatio="none" width="100%" height="100%" overflow="visible" style="display: block;" viewBox="0 0 17 14" fill="none" xmlns="http://www.w3.org/2000/svg">
<path id="Shape" d="M4.5 5C6.98528 5 9 7.01472 9 9.5C9 11.9853 6.98528 14 4.5 14C2.01472 14 0 11.9853 0 9.5C0 7.01472 2.01472 5 4.5 5ZM15 0C16.1046 0 17 0.89543 17 2V10C17 11.1046 16.1046 12 15 12H9.40039C9.56232 11.6832 9.69436 11.3486 9.79297 11H15C15.5523 11 16 10.5523 16 10V2C16 1.44772 15.5523 1 15 1H5V4.02246C4.83532 4.00762 4.66854 4 4.5 4C4.33146 4 4.16468 4.00762 4 4.02246V1H3C2.44772 1 2 1.44772 2 2V4.59961C1.64228 4.78247 1.30706 5.00326 1 5.25684V2C1 0.89543 1.89543 0 3 0H15ZM2.5 9C2.22386 9 2 9.22386 2 9.5C2 9.77614 2.22386 10 2.5 10H6.5C6.77614 10 7 9.77614 7 9.5C7 9.22386 6.77614 9 6.5 9H2.5ZM12.5 3C13.3284 3 14 3.67157 14 4.5V5.5C14 6.32843 13.3284 7 12.5 7H9.40039C9.21753 6.64228 8.99674 6.30706 8.74316 6H12.5C12.7761 6 13 5.77614 13 5.5V4.5C13 4.22386 12.7761 4 12.5 4H8.5C8.22386 4 8 4.22386 8 4.5V5.25684C7.69294 5.00326 7.35772 4.78247 7 4.59961V4.5C7 3.67157 7.67157 3 8.5 3H12.5Z" fill="var(--fill-0, #272320)"/>
</svg>
