<svg preserveAspectRatio="none" width="100%" height="100%" overflow="visible" style="display: block;" viewBox="0 0 21 19" fill="none" xmlns="http://www.w3.org/2000/svg">
<path id="Shape" d="M5.5 8C8.53757 8 11 10.4624 11 13.5C11 16.5376 8.53757 19 5.5 19C2.46243 19 0 16.5376 0 13.5C0 10.4624 2.46243 8 5.5 8ZM19 0C20.1046 0 21 0.895431 21 2V14C21 15.1046 20.1046 16 19 16H11.502C11.8229 15.2304 12 14.3859 12 13.5C12 9.91015 9.08985 7 5.5 7V0H19ZM2.49512 13C2.21947 13.0003 1.9961 13.224 1.99609 13.5C1.99609 13.776 2.21947 13.9997 2.49512 14H8.49707C8.77272 13.9997 8.99609 13.776 8.99609 13.5C8.99609 13.224 8.77271 13.0003 8.49707 13H2.49512ZM4 7.17383C2.85258 7.44487 1.82266 8.02011 1 8.80957V2C1 0.895431 1.89543 0 3 0H4V7.17383ZM11 3C9.89543 3 9 3.89543 9 5V6C9 7.10457 9.89543 8 11 8H15C16.1046 8 17 7.10457 17 6V5C17 3.89543 16.1046 3 15 3H11ZM15 4.5C15.2761 4.5 15.5 4.72386 15.5 5V6C15.5 6.27614 15.2761 6.5 15 6.5H11C10.7239 6.5 10.5 6.27614 10.5 6V5C10.5 4.72386 10.7239 4.5 11 4.5H15Z" fill="var(--fill-0, #272320)"/>
</svg>
