<svg preserveAspectRatio="none" width="100%" height="100%" overflow="visible" style="display: block;" viewBox="0 0 21 19" fill="none" xmlns="http://www.w3.org/2000/svg">
<path id="Shape" d="M5.5 8C8.53757 8 11 10.4624 11 13.5C11 16.5376 8.53757 19 5.5 19C2.46243 19 0 16.5376 0 13.5C0 10.4624 2.46243 8 5.5 8ZM19 0C20.1046 0 21 0.895431 21 2V14C21 15.1046 20.1046 16 19 16H11.502C11.6997 15.5258 11.843 15.0232 11.9238 14.5H19C19.2761 14.5 19.5 14.2761 19.5 14V2C19.5 1.72386 19.2761 1.5 19 1.5H6.5V7.07617C6.17404 7.02584 5.84005 7 5.5 7C5.33177 7 5.16501 7.006 5 7.01855V1.5H3C2.72386 1.5 2.5 1.72386 2.5 2V7.73242C1.94901 8.0196 1.44424 8.38325 1 8.80957V2C1 0.895431 1.89543 0 3 0H19ZM2.49512 13C2.21947 13.0003 1.9961 13.224 1.99609 13.5C1.99609 13.776 2.21947 13.9997 2.49512 14H8.49707C8.77272 13.9997 8.99609 13.776 8.99609 13.5C8.99609 13.224 8.77271 13.0003 8.49707 13H2.49512ZM15 3C16.1046 3 17 3.89543 17 5V6C17 7.10457 16.1046 8 15 8H11C9.89543 8 9 7.10457 9 6V5C9 3.89543 9.89543 3 11 3H15ZM11 4.5C10.7239 4.5 10.5 4.72386 10.5 5V6C10.5 6.27614 10.7239 6.5 11 6.5H15C15.2761 6.5 15.5 6.27614 15.5 6V5C15.5 4.72386 15.2761 4.5 15 4.5H11Z" fill="var(--fill-0, #272320)"/>
</svg>
