<svg preserveAspectRatio="none" width="100%" height="100%" overflow="visible" style="display: block;" viewBox="0 0 14 14" fill="none" xmlns="http://www.w3.org/2000/svg">
<path id="Shape" d="M8 9.5C8 9.22386 8.22386 9 8.5 9H11C11.2761 9 11.5 9.22386 11.5 9.5C11.5 9.77614 11.2761 10 11 10H8.5C8.22386 10 8 9.77614 8 9.5ZM5 3.5C5 3.22386 4.77614 3 4.5 3C4.22386 3 4 3.22386 4 3.5V4.5H3C2.72386 4.5 2.5 4.72386 2.5 5C2.5 5.27614 2.72386 5.5 3 5.5H4V6.3C4 6.57614 4.22386 6.8 4.5 6.8C4.77614 6.8 5 6.57614 5 6.3V5.5H6C6.27614 5.5 6.5 5.27614 6.5 5C6.5 4.72386 6.27614 4.5 6 4.5H5V3.5ZM7 14C10.866 14 14 10.866 14 7C14 3.13401 10.866 0 7 0C3.13401 0 0 3.13401 0 7C0 10.866 3.13401 14 7 14ZM7 13C5.52314 13 4.17092 12.4664 3.12557 11.5815L11.5815 3.12557C12.4664 4.17092 13 5.52314 13 7C13 10.3137 10.3137 13 7 13ZM2.41847 10.8744C1.53358 9.82907 1 8.47685 1 7C1 3.68629 3.68629 1 7 1C8.47685 1 9.82907 1.53358 10.8744 2.41847L2.41847 10.8744Z" fill="var(--fill-0, #272320)"/>
</svg>
