<svg preserveAspectRatio="none" width="100%" height="100%" overflow="visible" style="display: block;" viewBox="0 0 16 16" fill="none" xmlns="http://www.w3.org/2000/svg">
<path id="Shape" d="M9.50009 10.0001C9.22394 10.0001 9.00008 10.224 9.00008 10.5001C9.00008 10.7762 9.22394 11.0001 9.50009 11.0001H12.5001C12.7762 11.0001 13.0001 10.7762 13.0001 10.5001C13.0001 10.224 12.7762 10.0001 12.5001 10.0001H9.50009ZM8 16C12.4183 16 16 12.4183 16 8C16 3.58172 12.4183 0 8 0C3.58172 0 0 3.58172 0 8C0 12.4183 3.58172 16 8 16ZM8 15C6.247 15 4.6445 14.3556 3.41645 13.2908L13.2908 3.41645C14.3556 4.6445 15 6.247 15 8C15 11.866 11.866 15 8 15ZM3.50003 5.00005C3.50003 4.7239 3.72389 4.50004 4.00004 4.50004H5.00005V3.50003C5.00005 3.22389 5.22391 3.00003 5.50005 3.00003C5.7762 3.00003 6.00006 3.22389 6.00006 3.50003V4.50004H7.00006C7.27621 4.50004 7.50007 4.7239 7.50007 5.00005C7.50007 5.27619 7.27621 5.50005 7.00006 5.50005H6.00006V6.50006C6.00006 6.7762 5.7762 7.00006 5.50005 7.00006C5.22391 7.00006 5.00005 6.7762 5.00005 6.50006V5.50005H4.00004C3.72389 5.50005 3.50003 5.27619 3.50003 5.00005Z" fill="var(--fill-0, #272320)"/>
</svg>
