<svg preserveAspectRatio="none" width="100%" height="100%" overflow="visible" style="display: block;" viewBox="0 0 16 16" fill="none" xmlns="http://www.w3.org/2000/svg">
<path id="Shape" d="M9.00008 10.5001C9.00008 10.224 9.22394 10.0001 9.50009 10.0001H12.5001C12.7762 10.0001 13.0001 10.224 13.0001 10.5001C13.0001 10.7762 12.7762 11.0001 12.5001 11.0001H9.50009C9.22394 11.0001 9.00008 10.7762 9.00008 10.5001ZM6.00006 3.50003C6.00006 3.22389 5.7762 3.00003 5.50005 3.00003C5.22391 3.00003 5.00005 3.22389 5.00005 3.50003V4.50004H4.00004C3.72389 4.50004 3.50003 4.7239 3.50003 5.00005C3.50003 5.27619 3.72389 5.50005 4.00004 5.50005H5.00005V6.50006C5.00005 6.7762 5.22391 7.00006 5.50005 7.00006C5.7762 7.00006 6.00006 6.7762 6.00006 6.50006V5.50005H7.00006C7.27621 5.50005 7.50007 5.27619 7.50007 5.00005C7.50007 4.7239 7.27621 4.50004 7.00006 4.50004H6.00006V3.50003ZM8 16C12.4183 16 16 12.4183 16 8C16 3.58172 12.4183 0 8 0C3.58172 0 0 3.58172 0 8C0 12.4183 3.58172 16 8 16ZM8 15C6.247 15 4.6445 14.3556 3.41645 13.2908L13.2908 3.41645C14.3556 4.6445 15 6.247 15 8C15 11.866 11.866 15 8 15ZM2.70933 12.5837C1.64444 11.3556 1.00001 9.75307 1.00001 8C1.00001 4.13401 4.13401 1.00001 8 1.00001C9.75307 1.00001 11.3556 1.64444 12.5837 2.70933L2.70933 12.5837Z" fill="var(--fill-0, #272320)"/>
</svg>
