<svg preserveAspectRatio="none" width="100%" height="100%" overflow="visible" style="display: block;" viewBox="0 0 20 20" fill="none" xmlns="http://www.w3.org/2000/svg">
<path id="Shape" d="M11.75 12.5C11.3358 12.5 11 12.8358 11 13.25C11 13.6642 11.3358 14 11.75 14H15.25C15.6642 14 16 13.6642 16 13.25C16 12.8358 15.6642 12.5 15.25 12.5H11.75ZM10 20C15.5228 20 20 15.5228 20 10C20 4.47715 15.5228 0 10 0C4.47715 0 0 4.47715 0 10C0 15.5228 4.47715 20 10 20ZM16.5174 4.54319C17.7549 6.01965 18.5 7.92281 18.5 10C18.5 14.6944 14.6944 18.5 10 18.5C7.92281 18.5 6.01965 17.7549 4.54319 16.5174L16.5174 4.54319ZM4 6.75C4 6.33579 4.33579 6 4.75 6H6V4.75C6 4.33579 6.33579 4 6.75 4C7.16421 4 7.5 4.33579 7.5 4.75V6H8.75C9.16421 6 9.5 6.33579 9.5 6.75C9.5 7.16421 9.16421 7.5 8.75 7.5H7.5V8.75C7.5 9.16421 7.16421 9.5 6.75 9.5C6.33579 9.5 6 9.16421 6 8.75V7.5H4.75C4.33579 7.5 4 7.16421 4 6.75Z" fill="var(--fill-0, #272320)"/>
</svg>
