<svg preserveAspectRatio="none" width="100%" height="100%" overflow="visible" style="display: block;" viewBox="0 0 24 24" fill="none" xmlns="http://www.w3.org/2000/svg">
<path id="Shape" d="M13.9502 15.3C13.536 15.3 13.2002 15.6358 13.2002 16.05C13.2002 16.4642 13.536 16.8 13.9502 16.8H18.4502C18.8644 16.8 19.2002 16.4642 19.2002 16.05C19.2002 15.6358 18.8644 15.3 18.4502 15.3H13.9502ZM12 24C18.6274 24 24 18.6274 24 12C24 5.37258 18.6274 0 12 0C5.37258 0 0 5.37258 0 12C0 18.6274 5.37258 24 12 24ZM12 22.5C9.37038 22.5 6.96654 21.5333 5.12443 19.936L19.936 5.12443C21.5333 6.96654 22.5 9.37038 22.5 12C22.5 17.799 17.799 22.5 12 22.5ZM5 8.25C5 7.83579 5.33579 7.5 5.75 7.5H7.4938L7.49024 5.7015C7.48941 5.28729 7.82453 4.95083 8.23875 4.95001C8.65296 4.94919 8.98941 5.28431 8.99023 5.69853L8.9938 7.5H10.75C11.1642 7.5 11.5 7.83579 11.5 8.25C11.5 8.66421 11.1642 9 10.75 9H8.99678L9.00024 10.7485C9.00106 11.1627 8.66594 11.4992 8.25173 11.5C7.83752 11.5008 7.50107 11.1657 7.50025 10.7515L7.49677 9H5.75C5.33579 9 5 8.66421 5 8.25Z" fill="var(--fill-0, #272320)"/>
</svg>
