<svg preserveAspectRatio="none" width="100%" height="100%" overflow="visible" style="display: block;" viewBox="0 0 24 24" fill="none" xmlns="http://www.w3.org/2000/svg">
<path id="Shape" d="M13.2002 16.05C13.2002 15.6358 13.536 15.3 13.9502 15.3H18.4502C18.8644 15.3 19.2002 15.6358 19.2002 16.05C19.2002 16.4642 18.8644 16.8 18.4502 16.8H13.9502C13.536 16.8 13.2002 16.4642 13.2002 16.05ZM8.99023 5.69853C8.98941 5.28431 8.65296 4.94919 8.23875 4.95001C7.82453 4.95083 7.48941 5.28729 7.49024 5.7015L7.4938 7.5H5.75C5.33579 7.5 5 7.83579 5 8.25C5 8.66421 5.33579 9 5.75 9H7.49677L7.50025 10.7515C7.50107 11.1657 7.83752 11.5008 8.25173 11.5C8.66594 11.4992 9.00106 11.1627 9.00024 10.7485L8.99678 9H10.75C11.1642 9 11.5 8.66421 11.5 8.25C11.5 7.83579 11.1642 7.5 10.75 7.5H8.9938L8.99023 5.69853ZM12 24C5.37258 24 0 18.6274 0 12C0 5.37258 5.37258 0 12 0C18.6274 0 24 5.37258 24 12C24 18.6274 18.6274 24 12 24ZM12 22.5C17.799 22.5 22.5 17.799 22.5 12C22.5 9.37038 21.5333 6.96654 19.936 5.12443L5.12443 19.936C6.96654 21.5333 9.37038 22.5 12 22.5ZM4.06379 18.8753L18.8753 4.06379C17.0332 2.46657 14.6295 1.5 12 1.5C6.20101 1.5 1.5 6.20101 1.5 12C1.5 14.6295 2.46657 17.0332 4.06379 18.8753Z" fill="var(--fill-0, #272320)"/>
</svg>
