<svg preserveAspectRatio="none" width="100%" height="100%" overflow="visible" style="display: block;" viewBox="0 0 40 40" fill="none" xmlns="http://www.w3.org/2000/svg">
<path id="Shape" d="M23.25 25.5C22.5596 25.5 22 26.0596 22 26.75C22 27.4403 22.5596 28 23.25 28H30.75C31.4404 28 32 27.4403 32 26.75C32 26.0596 31.4404 25.5 30.75 25.5H23.25ZM20 40C31.0457 40 40 31.0457 40 20C40 8.9543 31.0457 0 20 0C8.9543 0 0 8.9543 0 20C0 31.0457 8.9543 40 20 40ZM20 37.5C15.6174 37.5 11.6111 35.889 8.54094 33.2268L33.2269 8.54094C35.889 11.6111 37.5 15.6174 37.5 20C37.5 29.665 29.665 37.5 20 37.5ZM8.25 13.25C8.25 12.5596 8.80964 12 9.5 12H12.5V9.25003C12.5 8.55967 13.0596 8.00003 13.75 8.00003C14.4404 8.00003 15 8.55967 15 9.25003V12H17.7501C18.4405 12 19.0001 12.5596 19.0001 13.25C19.0001 13.9404 18.4405 14.5 17.7501 14.5H15V17.25C15 17.9404 14.4404 18.5 13.75 18.5C13.0596 18.5 12.5 17.9404 12.5 17.25V14.5H9.5C8.80964 14.5 8.25 13.9404 8.25 13.25Z" fill="var(--fill-0, #272320)"/>
</svg>
