<svg preserveAspectRatio="none" width="100%" height="100%" overflow="visible" style="display: block;" viewBox="0 0 40 40" fill="none" xmlns="http://www.w3.org/2000/svg">
<path id="Shape" d="M22 26.75C22 26.0596 22.5596 25.5 23.25 25.5H30.75C31.4404 25.5 32 26.0596 32 26.75C32 27.4403 31.4404 28 30.75 28H23.25C22.5596 28 22 27.4403 22 26.75ZM15 9.25003C15 8.55967 14.4404 8.00003 13.75 8.00003C13.0596 8.00003 12.5 8.55967 12.5 9.25003V12H9.5C8.80964 12 8.25 12.5596 8.25 13.25C8.25 13.9404 8.80964 14.5 9.5 14.5H12.5V17.25C12.5 17.9404 13.0596 18.5 13.75 18.5C14.4404 18.5 15 17.9404 15 17.25V14.5H17.7501C18.4405 14.5 19.0001 13.9404 19.0001 13.25C19.0001 12.5596 18.4405 12 17.7501 12H15V9.25003ZM20 40C8.9543 40 0 31.0457 0 20C0 8.9543 8.9543 0 20 0C31.0457 0 40 8.9543 40 20C40 31.0457 31.0457 40 20 40ZM20 37.5C29.665 37.5 37.5 29.665 37.5 20C37.5 15.6174 35.889 11.6111 33.2268 8.54094L8.54094 33.2268C11.6111 35.889 15.6174 37.5 20 37.5ZM6.77317 31.4591L31.4591 6.77317C28.3889 4.11102 24.3826 2.5 20 2.5C10.335 2.5 2.5 10.335 2.5 20C2.5 24.3826 4.11102 28.3889 6.77317 31.4591Z" fill="var(--fill-0, #272320)"/>
</svg>
