<svg preserveAspectRatio="none" width="100%" height="100%" overflow="visible" style="display: block;" viewBox="0 0 15.0021 17.002" fill="none" xmlns="http://www.w3.org/2000/svg">
<path id="Shape" d="M5.50214 2.5C5.50214 1.67157 6.17371 1 7.00214 1C7.83057 1 8.50214 1.67157 8.50214 2.5C8.50214 3.32843 7.83057 4 7.00214 4C6.17371 4 5.50214 3.32843 5.50214 2.5ZM7.00214 0C5.62143 0 4.50214 1.11929 4.50214 2.5C4.50214 2.70188 4.52607 2.89817 4.57124 3.08618L2.47397 2.15242C1.59234 1.75989 0.555607 2.15351 0.156642 3.03225C-0.243503 3.9136 0.149479 4.94864 1.03372 5.34233L4.00205 6.66392L4.00205 8.95089L2.12535 13.5959C1.76329 14.492 2.19624 15.512 3.09236 15.874C3.98848 16.2361 5.00843 15.8031 5.37049 14.907L5.45641 14.6944C5.23686 14.1898 5.09079 13.6459 5.03168 13.0761L4.44331 14.5324C4.28814 14.9165 3.85102 15.102 3.46696 14.9468C3.08291 14.7917 2.89736 14.3545 3.05253 13.9705L4.92923 9.3255C4.97733 9.20646 5.00205 9.07928 5.00205 8.95089V6.66392C5.00205 6.26897 4.76959 5.91101 4.40879 5.75037L1.44046 4.42879C1.06336 4.26089 0.896542 3.82152 1.06719 3.44566C1.23902 3.0672 1.68753 2.89691 2.06723 3.06596L5.98521 4.81036C6.63247 5.09854 7.37162 5.09854 8.01889 4.81036L11.9369 3.06596C12.3166 2.89691 12.7651 3.0672 12.9369 3.44566C13.1076 3.82152 12.9407 4.26089 12.5636 4.42879L9.59531 5.75037C9.23451 5.91101 9.00205 6.26897 9.00205 6.66392V7.20899C9.32433 7.11784 9.65864 7.05532 10.0021 7.02438V6.66392L12.9704 5.34233C13.8546 4.94864 14.2476 3.9136 13.8475 3.03225C13.4485 2.15351 12.4118 1.75989 11.5301 2.15242L9.43306 3.08609C9.47822 2.8981 9.50214 2.70185 9.50214 2.5C9.50214 1.11929 8.38285 0 7.00214 0ZM15.0021 12.502C15.0021 14.9872 12.9874 17.002 10.5021 17.002C8.01679 17.002 6.00208 14.9872 6.00208 12.502C6.00208 10.0167 8.01679 8.00195 10.5021 8.00195C12.9874 8.00195 15.0021 10.0167 15.0021 12.502ZM10.5021 10.002C10.2259 10.002 10.0021 10.2258 10.0021 10.502V12.502C10.0021 12.7781 10.2259 13.002 10.5021 13.002C10.7782 13.002 11.0021 12.7781 11.0021 12.502V10.502C11.0021 10.2258 10.7782 10.002 10.5021 10.002ZM10.5021 15.127C10.8473 15.127 11.1271 14.8471 11.1271 14.502C11.1271 14.1568 10.8473 13.877 10.5021 13.877C10.1569 13.877 9.87708 14.1568 9.87708 14.502C9.87708 14.8471 10.1569 15.127 10.5021 15.127Z" fill="var(--fill-0, #272320)"/>
</svg>
