<svg preserveAspectRatio="none" width="100%" height="100%" overflow="visible" style="display: block;" viewBox="0 0 15.8311 17.5" fill="none" xmlns="http://www.w3.org/2000/svg">
<path id="Shape" d="M7.05456 3.66917C6.58295 3.49031 6.24772 3.03431 6.24772 2.5C6.24772 1.80964 6.80737 1.25 7.49772 1.25C8.18808 1.25 8.74772 1.80964 8.74772 2.5C8.74772 3.03439 8.41238 3.49046 7.94066 3.66925C7.64958 3.74001 7.34562 3.73998 7.05456 3.66917ZM4.99772 2.5C4.99772 2.61266 5.00517 2.72359 5.01961 2.8323L2.62268 1.81486C1.67007 1.4105 0.566127 1.85184 0.154812 2.80147C-0.257921 3.75438 0.183112 4.85757 1.13901 5.26332L4.16649 6.54841V9.63294L2.60067 14.1804C2.26353 15.1595 2.78396 16.2266 3.76308 16.5637C4.74219 16.9008 5.80923 16.3804 6.14636 15.4013L6.26735 15.0499C5.98657 14.3953 5.8311 13.6741 5.8311 12.9167C5.8311 12.7456 5.83903 12.5764 5.85454 12.4094L4.96447 14.9943C4.85209 15.3207 4.49641 15.4942 4.17004 15.3818C3.84366 15.2694 3.67019 14.9137 3.78257 14.5874L5.35974 10.0069C5.39731 9.89781 5.41649 9.78321 5.41649 9.6678V6.41052C5.41649 5.99251 5.16661 5.61499 4.78183 5.45166L1.62743 4.11269C1.31029 3.97807 1.16491 3.61443 1.30184 3.29828C1.44019 2.97886 1.81385 2.82948 2.13427 2.9655L6.27675 4.72388C6.4095 4.78022 6.54517 4.82698 6.68277 4.86416C6.93821 4.9522 7.21238 5 7.49772 5C7.78289 5 8.05691 4.95225 8.31222 4.86432C8.45002 4.82712 8.58589 4.7803 8.71882 4.72388L12.8613 2.9655C13.1817 2.82948 13.5554 2.97886 13.6937 3.29828C13.8307 3.61443 13.6853 3.97807 13.3681 4.11269L10.2178 5.44993C9.83303 5.61326 9.58315 5.99078 9.58315 6.40879V7.76058C9.98164 7.63203 10.4003 7.5484 10.8332 7.51563V6.54668L13.8566 5.26332C14.8125 4.85757 15.2535 3.75438 14.8408 2.80147C14.4294 1.85184 13.3255 1.4105 12.3729 1.81486L9.97582 2.83236C9.99027 2.72362 9.99772 2.61268 9.99772 2.5C9.99772 1.11929 8.87843 0 7.49772 0C6.11701 0 4.99772 1.11929 4.99772 2.5ZM15.8311 12.9167C15.8311 15.448 13.7791 17.5 11.2478 17.5C8.71646 17.5 6.66443 15.448 6.66443 12.9167C6.66443 10.3854 8.71646 8.33333 11.2478 8.33333C13.7791 8.33333 15.8311 10.3854 15.8311 12.9167ZM14.0424 10.9554C13.8797 10.7927 13.6159 10.7927 13.4531 10.9554L10.4144 13.9941L9.04239 12.622C8.87967 12.4593 8.61585 12.4593 8.45313 12.622C8.29042 12.7848 8.29042 13.0486 8.45313 13.2113L10.1198 14.878C10.2825 15.0407 10.5463 15.0407 10.7091 14.878L14.0424 11.5446C14.2051 11.3819 14.2051 11.1181 14.0424 10.9554Z" fill="var(--fill-0, #272320)"/>
</svg>
