<svg preserveAspectRatio="none" width="100%" height="100%" overflow="visible" style="display: block;" viewBox="0 0 15.0021 17" fill="none" xmlns="http://www.w3.org/2000/svg">
<path id="Shape" d="M7.00208 4C8.10664 4 9.00208 3.10457 9.00208 2C9.00208 0.895431 8.10664 0 7.00208 0C5.89751 0 5.00208 0.895431 5.00208 2C5.00208 3.10457 5.89751 4 7.00208 4ZM2.47397 2.15059C1.59234 1.75806 0.555607 2.15168 0.156642 3.03042C-0.243503 3.91176 0.149479 4.94681 1.03372 5.3405L3.70542 6.53002C3.88582 6.61034 4.00205 6.78931 4.00205 6.98679V8.85187C4.00205 8.91606 3.98969 8.97965 3.96564 9.03917L2.12535 13.5941C1.76329 14.4902 2.19624 15.5101 3.09236 15.8722C3.98848 16.2342 5.00843 15.8013 5.37049 14.9052L5.45644 14.6925C5.16415 14.0207 5.00208 13.2793 5.00208 12.5C5.00208 9.63099 7.19881 7.27505 10.0021 7.02242V6.98679C10.0021 6.78931 10.1183 6.61034 10.2987 6.53002L12.9704 5.3405C13.8546 4.94681 14.2476 3.91176 13.8475 3.03042C13.4485 2.15168 12.4118 1.75806 11.5301 2.15059L10.254 2.71875C10.0078 2.82838 9.83241 3.02588 9.73359 3.24269C9.26064 4.28043 8.21487 5.00012 7.00208 5.00012C5.78929 5.00012 4.74354 4.28044 4.27058 3.24271C4.17176 3.0259 3.9964 2.82841 3.75015 2.71878L2.47397 2.15059ZM15.0021 12.5C15.0021 14.9853 12.9874 17 10.5021 17C8.01679 17 6.00208 14.9853 6.00208 12.5C6.00208 10.0147 8.01679 8 10.5021 8C12.9874 8 15.0021 10.0147 15.0021 12.5ZM12.8556 10.6464C12.6604 10.4512 12.3438 10.4512 12.1485 10.6464L9.50208 13.2929L8.85563 12.6464C8.66037 12.4512 8.34378 12.4512 8.14852 12.6464C7.95326 12.8417 7.95326 13.1583 8.14852 13.3536L9.14852 14.3536C9.34378 14.5488 9.66037 14.5488 9.85563 14.3536L12.8556 11.3536C13.0509 11.1583 13.0509 10.8417 12.8556 10.6464Z" fill="var(--fill-0, #272320)"/>
</svg>
