<svg preserveAspectRatio="none" width="100%" height="100%" overflow="visible" style="display: block;" viewBox="0 0 18.9974 21" fill="none" xmlns="http://www.w3.org/2000/svg">
<path id="Shape" d="M8.99744 4.5C10.2401 4.5 11.2474 3.49264 11.2474 2.25C11.2474 1.00736 10.2401 0 8.99744 0C7.7548 0 6.74744 1.00736 6.74744 2.25C6.74744 3.49264 7.7548 4.5 8.99744 4.5ZM3.14722 2.17803C2.00408 1.69279 0.679353 2.22239 0.185775 3.36195C-0.309505 4.50545 0.219734 5.82927 1.36682 6.31618L4.39052 7.59966C4.7599 7.75645 4.99978 8.11888 4.99978 8.52016V11.5597L3.1208 17.0167C2.71624 18.1916 3.34075 19.4721 4.51569 19.8766C5.69063 20.2812 6.97107 19.6567 7.37564 18.4817L7.52091 18.0598C7.18399 17.2743 6.99744 16.4089 6.99744 15.5C6.99744 12.0776 9.64245 9.27295 12.9998 9.01877V8.51809C12.9998 8.1168 13.2397 7.75438 13.6091 7.59759L16.6279 6.31618C17.775 5.82927 18.3042 4.50545 17.8089 3.36195C17.3153 2.22239 15.9906 1.69279 14.8475 2.17803L13.2415 2.85973C12.9008 3.00435 12.6631 3.28256 12.5467 3.59067C12.0046 5.02499 10.619 6.04295 8.99739 6.04295C7.37583 6.04295 5.99016 5.025 5.4481 3.5907C5.33167 3.2826 5.09402 3.00439 4.75332 2.85978L3.14722 2.17803ZM18.9974 15.5C18.9974 18.5376 16.535 21 13.4974 21C10.4599 21 7.99744 18.5376 7.99744 15.5C7.99744 12.4624 10.4599 10 13.4974 10C16.535 10 18.9974 12.4624 18.9974 15.5ZM16.851 13.1464C16.6557 12.9512 16.3391 12.9512 16.1439 13.1464L12.4974 16.7929L10.851 15.1464C10.6557 14.9512 10.3391 14.9512 10.1439 15.1464C9.94862 15.3417 9.94862 15.6583 10.1439 15.8536L12.1439 17.8536C12.3391 18.0488 12.6557 18.0488 12.851 17.8536L16.851 13.8536C17.0463 13.6583 17.0463 13.3417 16.851 13.1464Z" fill="var(--fill-0, #272320)"/>
</svg>
