<svg preserveAspectRatio="none" width="100%" height="100%" overflow="visible" style="display: block;" viewBox="0 0 23 25" fill="none" xmlns="http://www.w3.org/2000/svg">
<path id="Shape" d="M11.0001 5.5C12.5189 5.5 13.7501 4.26878 13.7501 2.75C13.7501 1.23122 12.5189 0 11.0001 0C9.48134 0 8.25012 1.23122 8.25012 2.75C8.25012 4.26878 9.48134 5.5 11.0001 5.5ZM3.24334 3.12191C1.94219 2.69914 0.544679 3.41121 0.121911 4.71236C-0.300858 6.01351 0.411209 7.41102 1.71236 7.83379L6.30904 9.32734C6.72106 9.46121 7.00002 9.84517 7.00002 10.2784V13.375C7.00002 13.5026 6.97559 13.6291 6.92805 13.7475L4.17606 20.6038C3.66893 21.8672 4.27961 23.3059 5.54073 23.8188C6.80432 24.3327 8.24188 23.7225 8.75 22.4565L9.38427 20.8763C9.13501 20.1296 9 19.3306 9 18.5C9 14.8716 11.5766 11.8449 15 11.15V10.2784C15 9.84517 15.279 9.46121 15.691 9.32734L20.2877 7.83379C21.5888 7.41102 22.3009 6.01351 21.8781 4.71236C21.4554 3.41121 20.0578 2.69914 18.7567 3.12191L15.6462 4.13258C15.19 4.2808 14.85 4.60008 14.6352 4.95354C13.8886 6.18219 12.5395 7.0002 11.0001 7.0002C9.46066 7.0002 8.11159 6.18221 7.36499 4.95357C7.15021 4.60012 6.81018 4.28085 6.35402 4.13263L3.24334 3.12191ZM23 18.5C23 22.0899 20.0899 25 16.5 25C12.9101 25 10 22.0899 10 18.5C10 14.9101 12.9101 12 16.5 12C20.0899 12 23 14.9101 23 18.5ZM20.3536 15.6464C20.1583 15.4512 19.8417 15.4512 19.6464 15.6464L15 20.2929L13.3536 18.6464C13.1583 18.4512 12.8417 18.4512 12.6464 18.6464C12.4512 18.8417 12.4512 19.1583 12.6464 19.3536L14.6464 21.3536C14.8417 21.5488 15.1583 21.5488 15.3536 21.3536L20.3536 16.3536C20.5488 16.1583 20.5488 15.8417 20.3536 15.6464Z" fill="var(--fill-0, #272320)"/>
</svg>
