<svg preserveAspectRatio="none" width="100%" height="100%" overflow="visible" style="display: block;" viewBox="0 0 23 25" fill="none" xmlns="http://www.w3.org/2000/svg">
<path id="Shape" d="M9.00002 3.5C9.00002 4.42867 9.63297 5.20951 10.491 5.43465C10.8282 5.48812 11.1718 5.48812 11.509 5.43465C12.3671 5.20951 13 4.42867 13 3.5C13 2.39543 12.1046 1.5 11 1.5C9.89545 1.5 9.00002 2.39543 9.00002 3.5ZM7.66266 4.55763C7.55701 4.22395 7.50002 3.86863 7.50002 3.5C7.50002 1.567 9.06702 0 11 0C12.933 0 14.5 1.567 14.5 3.5C14.5 3.86863 14.443 4.22395 14.3374 4.55763L18.7567 3.12171C20.0578 2.69894 21.4554 3.41101 21.8781 4.71216C22.3009 6.01331 21.5888 7.41082 20.2877 7.83359L15 9.55165V11.15C14.4783 11.2559 13.9763 11.416 13.5 11.6241V9.37002C13.5 8.82848 13.8487 8.34854 14.3637 8.18119L19.8242 6.407C20.3374 6.24023 20.6183 5.68895 20.4515 5.17568C20.2848 4.66241 19.7335 4.38152 19.2202 4.54829L12.4678 6.74227C12.2549 6.81148 12.0382 6.86523 11.8195 6.90353C11.5566 6.9666 11.2822 7 11 7C10.7178 7 10.4434 6.9666 10.1805 6.90353C9.96183 6.86523 9.74517 6.81148 9.53219 6.74227L2.77981 4.54829C2.26655 4.38152 1.71527 4.66241 1.5485 5.17568C1.38172 5.68895 1.66262 6.24023 2.17588 6.407L7.63629 8.1812C8.15132 8.34854 8.50002 8.82848 8.50002 9.37002V13.3265C8.50002 13.6775 8.43284 14.0252 8.30211 14.3509L5.56811 21.1623C5.36858 21.6594 5.60962 22.2273 6.10581 22.4291C6.59953 22.6299 7.15942 22.3922 7.35795 21.8976L9.04193 17.7022C9.01421 17.9643 9 18.2305 9 18.5C9 19.3305 9.13499 20.1295 9.38424 20.8762L8.75 22.4563C8.24188 23.7222 6.80432 24.3324 5.54073 23.8186C4.27961 23.3057 3.66893 21.867 4.17606 20.6036L6.91006 13.7922C6.96948 13.6441 7.00002 13.4861 7.00002 13.3265V9.55165L1.71236 7.83359C0.411209 7.41082 -0.300858 6.0133 0.121911 4.71216C0.544679 3.41101 1.94219 2.69894 3.24334 3.12171L7.66266 4.55763ZM23 18.5C23 22.0899 20.0899 25 16.5 25C12.9101 25 10 22.0899 10 18.5C10 14.9101 12.9101 12 16.5 12C20.0899 12 23 14.9101 23 18.5ZM20.3536 15.6464C20.1583 15.4512 19.8417 15.4512 19.6464 15.6464L15 20.2929L13.3536 18.6464C13.1583 18.4512 12.8417 18.4512 12.6464 18.6464C12.4512 18.8417 12.4512 19.1583 12.6464 19.3536L14.6464 21.3536C14.8417 21.5488 15.1583 21.5488 15.3536 21.3536L20.3536 16.3536C20.5488 16.1583 20.5488 15.8417 20.3536 15.6464Z" fill="var(--fill-0, #272320)"/>
</svg>
