<svg preserveAspectRatio="none" width="100%" height="100%" overflow="visible" style="display: block;" viewBox="0 0 27.5 28.5" fill="none" xmlns="http://www.w3.org/2000/svg">
<path id="Shape" d="M13 7C14.933 7 16.5 5.433 16.5 3.5C16.5 1.567 14.933 0 13 0C11.067 0 9.5 1.567 9.5 3.5C9.5 5.433 11.067 7 13 7ZM4.0738 4.16824C2.46929 3.61576 0.720713 4.4686 0.168237 6.07311C-0.384239 7.67761 0.468601 9.42619 2.07311 9.97867L7.66282 11.9034C7.8646 11.9728 8.00004 12.1627 8.00004 12.3761V15.8934C8.00004 15.9693 7.98273 16.0443 7.94943 16.1125L4.30744 23.5797C3.56354 25.105 4.19692 26.9444 5.72214 27.6883C7.24736 28.4322 9.08684 27.7989 9.83074 26.2736L11.2911 23.2794C11.1011 22.5514 11 21.7875 11 21C11 16.7076 14.0049 13.117 18.0259 12.2172C18.0744 12.0727 18.1876 11.9549 18.3373 11.9033L23.9269 9.97867C25.5314 9.42619 26.3842 7.67761 25.8318 6.07311C25.2793 4.4686 23.5307 3.61576 21.9262 4.16824L18.9523 5.19222C18.4328 5.37111 18.0463 5.74379 17.8128 6.16441C16.873 7.85753 15.0692 8.99978 13 8.99978C10.9308 8.99978 9.12704 7.85754 8.18726 6.16443C7.95379 5.74381 7.56726 5.37113 7.04774 5.19225L4.0738 4.16824ZM20 13.5C24.1421 13.5 27.5 16.8579 27.5 21C27.5 25.1421 24.1421 28.5 20 28.5C15.8579 28.5 12.5 25.1421 12.5 21C12.5 16.8579 15.8579 13.5 20 13.5ZM24.5303 18.2197C24.2374 17.9268 23.7626 17.9268 23.4697 18.2197L18.75 22.9393L16.7803 20.9697C16.4874 20.6768 16.0126 20.6768 15.7197 20.9697C15.4268 21.2626 15.4268 21.7374 15.7197 22.0303L18.2197 24.5303C18.5126 24.8232 18.9874 24.8232 19.2803 24.5303L24.5303 19.2803C24.8232 18.9874 24.8232 18.5126 24.5303 18.2197Z" fill="var(--fill-0, #272320)"/>
</svg>
