<svg preserveAspectRatio="none" width="100%" height="100%" overflow="visible" style="display: block;" viewBox="0 0 27.5005 28.5" fill="none" xmlns="http://www.w3.org/2000/svg">
<path id="Shape" d="M3.52817 5.08569L10.094 6.74814C9.41615 6.0315 9.00049 5.06429 9.00049 4C9.00049 1.79086 10.7913 0 13.0005 0C15.2096 0 17.0005 1.79086 17.0005 4C17.0005 5.06623 16.5833 6.03503 15.9033 6.75207L22.4742 5.09476C23.911 4.73238 25.3841 5.53906 25.8527 6.94477C26.383 8.53551 25.4223 10.236 23.7861 10.6029L18.0005 11.9002V12.2229C17.6594 12.3003 17.3257 12.3971 17.0005 12.512V11.4999C17.0005 11.2659 17.1628 11.0632 17.3911 11.012L23.5674 9.62709C24.6256 9.3898 25.247 8.28991 24.904 7.261C24.601 6.35177 23.6481 5.83 22.7188 6.06439L14.85 8.04905C13.6359 8.35525 12.3648 8.35467 11.151 8.04735L3.28272 6.0551C2.35268 5.81962 1.39849 6.34155 1.09511 7.2517C0.752312 8.28009 1.37254 9.37959 2.42999 9.61809L8.61054 11.0121C8.83857 11.0635 9.00053 11.2661 9.00053 11.4999V15.9999C9.00053 16.0775 8.98246 16.154 8.94774 16.2235L5.04883 24.0213C4.55285 25.0133 4.92613 26.2199 5.89562 26.7585C6.92656 27.3312 8.22698 26.9289 8.7544 25.8741L11.0079 21.3671C11.032 21.9674 11.1149 22.5526 11.2509 23.1171L9.64883 26.3213C8.86679 27.8854 6.9386 28.4819 5.40997 27.6326C3.97247 26.834 3.41899 25.0449 4.1544 23.5741L8.00053 15.8818V11.8996L2.20996 10.5936C0.5753 10.2249 -0.38349 8.52521 0.146422 6.93548C0.615413 5.5285 2.09046 4.72167 3.52817 5.08569ZM13.0005 7C14.6573 7 16.0005 5.65685 16.0005 4C16.0005 2.34315 14.6573 1 13.0005 1C11.3436 1 10.0005 2.34315 10.0005 4C10.0005 5.65685 11.3436 7 13.0005 7ZM20.0005 13.5C24.1426 13.5 27.5005 16.8579 27.5005 21C27.5005 25.1421 24.1426 28.5 20.0005 28.5C15.8584 28.5 12.5005 25.1421 12.5005 21C12.5005 16.8579 15.8584 13.5 20.0005 13.5ZM24.5308 18.2197C24.2379 17.9268 23.7631 17.9268 23.4702 18.2197L18.7505 22.9393L16.7808 20.9697C16.4879 20.6768 16.0131 20.6768 15.7202 20.9697C15.4273 21.2626 15.4273 21.7374 15.7202 22.0303L18.2202 24.5303C18.5131 24.8232 18.9879 24.8232 19.2808 24.5303L24.5308 19.2803C24.8237 18.9874 24.8237 18.5126 24.5308 18.2197Z" fill="var(--fill-0, #272320)"/>
</svg>
