<svg preserveAspectRatio="none" width="100%" height="100%" overflow="visible" style="display: block;" viewBox="0 0 27.5 28.5" fill="none" xmlns="http://www.w3.org/2000/svg">
<path id="Shape" d="M10.5 4.5C10.5 3.11929 11.6193 2 13 2C14.3807 2 15.5 3.11929 15.5 4.5C15.5 5.88071 14.3807 7 13 7C11.6193 7 10.5 5.88071 10.5 4.5ZM13 0C10.5147 0 8.50003 2.01472 8.50003 4.5C8.50003 4.93498 8.56175 5.35555 8.6769 5.75343L4.0738 4.16845C2.46929 3.61598 0.720713 4.46882 0.168237 6.07332C-0.384239 7.67783 0.468601 9.42641 2.07311 9.97888L8.00004 12.0197V15.7781C8.00004 15.9301 7.96543 16.08 7.89883 16.2165L4.30744 23.58C3.56354 25.1052 4.19692 26.9447 5.72214 27.6886C7.24736 28.4325 9.08684 27.7991 9.83073 26.2739L11.2912 23.2795C11.1012 22.5515 11 21.7876 11 21C11 20.2226 11.0986 19.4682 11.2839 18.7486C11.2543 18.7983 11.2264 18.85 11.2003 18.9035L8.03315 25.3971C7.77346 25.9295 7.13132 26.1507 6.59888 25.891C6.06645 25.6313 5.84534 24.9891 6.10503 24.4567L9.69642 17.0933C9.8962 16.6836 10 16.2339 10 15.7781V11.663C10 11.0228 9.59372 10.4532 8.98839 10.2448L2.72424 8.08785C2.16413 7.89498 1.86641 7.28457 2.05927 6.72446C2.25214 6.16434 2.86255 5.86663 3.42266 6.05949L11.0466 8.68462C12.3124 9.12047 13.6876 9.12047 14.9534 8.68462L22.5773 6.05949C23.1375 5.86663 23.7479 6.16434 23.9407 6.72446C24.1336 7.28458 23.8359 7.89498 23.2758 8.08785L17.0117 10.2447C16.4064 10.4532 16 11.0228 16 11.663V12.9355C16.6285 12.6232 17.2987 12.3821 18 12.223V12.0197L23.9269 9.97888C25.5314 9.42641 26.3842 7.67783 25.8318 6.07332C25.2793 4.46882 23.5307 3.61598 21.9262 4.16845L17.3232 5.75341C17.4383 5.35554 17.5 4.93498 17.5 4.5C17.5 2.01472 15.4853 0 13 0ZM20 13.5C24.1421 13.5 27.5 16.8579 27.5 21C27.5 25.1421 24.1421 28.5 20 28.5C15.8579 28.5 12.5 25.1421 12.5 21C12.5 16.8579 15.8579 13.5 20 13.5ZM24.5303 18.2197C24.2374 17.9268 23.7626 17.9268 23.4697 18.2197L18.75 22.9393L16.7803 20.9697C16.4874 20.6768 16.0126 20.6768 15.7197 20.9697C15.4268 21.2626 15.4268 21.7374 15.7197 22.0303L18.2197 24.5303C18.5126 24.8232 18.9874 24.8232 19.2803 24.5303L24.5303 19.2803C24.8232 18.9874 24.8232 18.5126 24.5303 18.2197Z" fill="var(--fill-0, #272320)"/>
</svg>
