<svg preserveAspectRatio="none" width="100%" height="100%" overflow="visible" style="display: block;" viewBox="0 0 38.9961 42" fill="none" xmlns="http://www.w3.org/2000/svg">
<path id="Shape" d="M17.9973 10.5C20.8968 10.5 23.2473 8.1495 23.2473 5.25C23.2473 2.35051 20.8968 0 17.9973 0C15.0978 0 12.7473 2.35051 12.7473 5.25C12.7473 8.1495 15.0978 10.5 17.9973 10.5ZM5.7056 6.25746C3.49961 5.45467 1.06042 6.59191 0.257502 8.79757C-0.545412 11.0032 0.592004 13.4421 2.79799 14.2449L10.67 17.1096C10.8675 17.1815 10.999 17.3692 10.999 17.5794L10.9994 22.0179C10.9994 22.3708 10.9315 22.7206 10.7992 23.0479L6.30884 34.1602C5.42943 36.3365 6.48103 38.8135 8.65765 39.6928C10.8343 40.5721 13.3117 39.5207 14.1911 37.3444L15.4197 34.304C15.1433 33.249 14.9961 32.1417 14.9961 31C14.9961 24.8511 19.2651 19.6993 25.0009 18.3467L25.001 17.5794C25.001 17.3692 25.1325 17.1815 25.33 17.1096L33.202 14.2449C35.408 13.4421 36.5454 11.0032 35.7425 8.79757C34.9396 6.59191 32.5004 5.45467 30.2944 6.25746L26.4824 7.6447C25.6626 7.94303 25.0605 8.54058 24.6771 9.18867C23.326 11.4727 20.8407 12.9999 18 12.9999C15.1593 12.9999 12.674 11.4727 11.3229 9.18866C10.9395 8.54057 10.3373 7.94302 9.51754 7.64469L5.7056 6.25746ZM38.9961 31C38.9961 37.0751 34.0712 42 27.9961 42C21.921 42 16.9961 37.0751 16.9961 31C16.9961 24.9249 21.921 20 27.9961 20C34.0712 20 38.9961 24.9249 38.9961 31ZM34.7032 26.2929C34.3127 25.9024 33.6795 25.9024 33.289 26.2929L25.9961 33.5858L22.7032 30.2929C22.3127 29.9024 21.6795 29.9024 21.289 30.2929C20.8985 30.6834 20.8985 31.3166 21.289 31.7071L25.289 35.7071C25.6795 36.0976 26.3127 36.0976 26.7032 35.7071L34.7032 27.7071C35.0937 27.3166 35.0937 26.6834 34.7032 26.2929Z" fill="var(--fill-0, #272320)"/>
</svg>
