<svg preserveAspectRatio="none" width="100%" height="100%" overflow="visible" style="display: block;" viewBox="0 0 14 13" fill="none" xmlns="http://www.w3.org/2000/svg">
<path id="Shape" d="M7.84843 0.845126L8.91731 3.03867L7.88562 3.04848L5.00002 1.99908L5.00002 1.49409C5.00731 -0.090657 7.15262 -0.582828 7.84843 0.845126ZM10.9715 4.01918C12.6394 4.00332 14 5.35105 14 7.01907L14 7.5007C14 8.52929 12.9883 9.25271 12.015 8.9201L9.77293 8.15393L4.53678 9.9173C3.00091 10.4345 1.84981 8.48622 3.0439 7.39053L4.26369 6.27126L1.02151 5.16331C0.0712941 4.8386 -0.297725 3.69008 0.285531 2.87266L2.0046 0.463421C2.62632 -0.407912 4.00002 0.031936 4.00002 1.10234L4.00002 2.69948L7.54385 3.98827C7.65639 4.0292 7.77538 4.04958 7.89513 4.04844L10.9715 4.01918ZM0 12.5C0 12.2239 0.223858 12 0.5 12H13.5C13.7761 12 14 12.2239 14 12.5C14 12.7761 13.7761 13 13.5 13H0.5C0.223858 13 0 12.7761 0 12.5Z" fill="var(--fill-0, #272320)"/>
</svg>
