<svg preserveAspectRatio="none" width="100%" height="100%" overflow="visible" style="display: block;" viewBox="0 0 14 13" fill="none" xmlns="http://www.w3.org/2000/svg">
<path id="Shape" d="M5 3.06314L5 1.50219C5 -0.0889759 7.15143 -0.585258 7.84843 0.845126L9.40237 4.03411L10.9715 4.01918C12.6394 4.00332 14 5.35105 14 7.01907L14 7.5007C14 8.52929 12.9883 9.25271 12.015 8.9201L9.77293 8.15393L4.53678 9.9173C3.00091 10.4345 1.84981 8.48622 3.0439 7.39053L4.26369 6.27126L1.02151 5.16331C0.0712941 4.8386 -0.297725 3.69008 0.285531 2.87266L2.0046 0.463421C2.62632 -0.407912 4.00002 0.0319361 4.00002 1.10234L4.00002 2.69948L5 3.06314ZM8.29509 4.04464L6.94948 1.28317C6.71714 0.806376 6 0.971804 6 1.50219L6 3.42681L7.54385 3.98827C7.65639 4.0292 7.77538 4.04958 7.89513 4.04844L8.29509 4.04464ZM0 12.5C0 12.2239 0.223858 12 0.5 12H13.5C13.7761 12 14 12.2239 14 12.5C14 12.7761 13.7761 13 13.5 13H0.5C0.223858 13 0 12.7761 0 12.5ZM1.34488 4.21704L4.58706 5.32499C5.30521 5.5704 5.49898 6.49497 4.93978 7.00808L3.71999 8.12734C3.32196 8.49257 3.70566 9.14201 4.21762 8.9696L9.45377 7.20623C9.66227 7.13601 9.88811 7.13651 10.0963 7.20765L12.3383 7.97382C12.6628 8.0847 13 7.84355 13 7.50069L13 7.01906C13 5.90705 12.093 5.00856 10.981 5.01914L7.90464 5.04839C7.66513 5.05067 7.42717 5.00991 7.20207 4.92805L3.32914 3.51957C3.13155 3.44772 3.00002 3.25993 3.00002 3.04968L3.00002 1.10234C3.00002 1.00503 2.87514 0.965042 2.81862 1.04425L1.09955 3.45349C0.905136 3.72596 1.02814 4.1088 1.34488 4.21704Z" fill="var(--fill-0, #272320)"/>
</svg>
