<svg preserveAspectRatio="none" width="100%" height="100%" overflow="visible" style="display: block;" viewBox="0 0 16.0018 15" fill="none" xmlns="http://www.w3.org/2000/svg">
<path id="Shape" d="M9.88485 2.99983L8.85404 0.852918C8.16329 -0.585752 6.00183 -0.093738 6.00183 1.50216V2.24496L8.76969 2.99983H9.88485ZM8.76969 3.99983C8.68081 3.99983 8.59233 3.98798 8.50658 3.96459L4.0019 2.7361V1.20449C4.0019 -0.0181198 2.38738 -0.457703 1.76755 0.59611L0.242401 3.18912C-0.324023 4.15213 0.144746 5.39211 1.20659 5.73956L4.61841 6.85597L2.94585 8.38344C1.76801 9.4591 2.86062 11.3862 4.38844 10.9278L10.9999 8.94412L14.0308 9.93588C15.0006 10.2532 15.9973 9.53063 15.9973 8.51027L15.9973 7.99991C15.9973 5.79076 14.2065 3.99989 11.9973 3.99989L8.76969 3.99983ZM0.00183106 14.5C0.00183106 14.2239 0.225689 14 0.501831 14H15.5018C15.778 14 16.0018 14.2239 16.0018 14.5C16.0018 14.7761 15.778 15 15.5018 15H0.501831C0.225689 15 0.00183106 14.7761 0.00183106 14.5Z" fill="var(--fill-0, #272320)"/>
</svg>
