<svg preserveAspectRatio="none" width="100%" height="100%" overflow="visible" style="display: block;" viewBox="0 0 16.0018 15" fill="none" xmlns="http://www.w3.org/2000/svg">
<path id="Shape" d="M10.365 3.99989L8.85404 0.852918C8.16329 -0.585752 6.00183 -0.093738 6.00183 1.50216V3.28153L4.0019 2.7361V1.20449C4.0019 -0.0181198 2.38738 -0.457703 1.76755 0.59611L0.242401 3.18912C-0.324023 4.15213 0.144746 5.39211 1.20659 5.73956L4.61841 6.85597L2.94585 8.38344C1.76801 9.4591 2.86062 11.3862 4.38844 10.9278L10.9999 8.94412L14.0308 9.93588C15.0006 10.2532 15.9973 9.53062 15.9973 8.51027L15.9973 7.99991C15.9973 5.79076 14.2065 3.99989 11.9973 3.99989L10.365 3.99989ZM9.25572 3.99989H8.76971C8.68083 3.99989 8.59234 3.98804 8.50659 3.96465L7.00183 3.55426L7.00183 1.50216C7.00183 0.970195 7.72232 0.806192 7.95257 1.28575L9.25572 3.99989ZM0.00183105 14.5C0.00183105 14.2239 0.225689 14 0.501831 14H15.5018C15.778 14 16.0018 14.2239 16.0018 14.5C16.0018 14.7761 15.778 15 15.5018 15H0.501831C0.225689 15 0.00183105 14.7761 0.00183105 14.5ZM11.5887 8.08783C11.2049 7.9656 10.7931 7.96215 10.4072 8.07792L4.10106 9.96996C3.59179 10.1228 3.22759 9.4804 3.6202 9.12184L5.29276 7.59438C5.85819 7.07799 5.65718 6.1437 4.9294 5.90556L1.51758 4.78915C1.06251 4.64024 0.861604 4.10882 1.10436 3.6961L2.6295 1.10309C2.73281 0.927455 3.0019 1.00072 3.0019 1.20449V3.118C3.0019 3.34347 3.15281 3.54105 3.37034 3.60038L8.24348 4.92941C8.41498 4.97619 8.59195 4.99989 8.76971 4.99989L11.9973 4.99989C13.6542 4.99989 14.9973 6.34304 14.9973 7.9999L14.9973 8.51027C14.9973 8.85038 14.6651 9.09124 14.3418 8.98547L11.9538 8.20406L11.5887 8.08783Z" fill="var(--fill-0, #272320)"/>
</svg>
