<svg preserveAspectRatio="none" width="100%" height="100%" overflow="visible" style="display: block;" viewBox="0 0 18.0011 18" fill="none" xmlns="http://www.w3.org/2000/svg">
<path id="Shape" d="M7.0011 2.03861V2.8168L10.0277 4.01923H12.1465L10.8971 1.21103C10.0034 -0.797592 7.0011 -0.159882 7.0011 2.03861ZM9.72182 4.97376L5.50111 3.29699V1.75637C5.50111 0.0185233 3.24204 -0.656769 2.28825 0.795878L0.37879 3.70404C-0.412927 4.90985 0.0856091 6.53837 1.41666 7.09435L4.91997 8.55765L2.87501 10.4562C1.24748 11.9672 2.87073 14.6214 4.95727 13.8611L11.7183 11.3973L15.1805 12.8434C16.5218 13.4037 18.0011 12.4184 18.0011 10.9648V9.73466C18.0011 7.13046 15.89 5.01934 13.2858 5.01934L9.95944 5.01923C9.87807 5.01923 9.79744 5.0038 9.72182 4.97376ZM0.00109865 17.25C0.00109865 16.8358 0.336885 16.5 0.751099 16.5H17.2511C17.6653 16.5 18.0011 16.8358 18.0011 17.25C18.0011 17.6642 17.6653 18 17.2511 18H0.751099C0.336885 18 0.00109865 17.6642 0.00109865 17.25Z" fill="var(--fill-0, #272320)"/>
</svg>
