<svg preserveAspectRatio="none" width="100%" height="100%" overflow="visible" style="display: block;" viewBox="0 0 18.0011 18" fill="none" xmlns="http://www.w3.org/2000/svg">
<path id="Shape" d="M8.5011 4.48886L8.5011 2.03861C8.5011 1.45992 9.29137 1.29206 9.5266 1.82077L10.9497 5.01934H9.95948C9.87812 5.01934 9.79749 5.00391 9.72187 4.97387L8.5011 4.48886ZM12.5915 5.01934L10.8971 1.21103C10.0034 -0.797592 7.0011 -0.159883 7.0011 2.03861V3.89292L5.50111 3.29699V1.75637C5.50111 0.0185232 3.24204 -0.656769 2.28825 0.795878L0.37879 3.70404C-0.412927 4.90985 0.0856091 6.53837 1.41666 7.09435L4.91997 8.55765L2.87501 10.4562C1.24748 11.9672 2.87073 14.6214 4.95727 13.8611L11.7183 11.3973L15.1805 12.8434C16.5218 13.4037 18.0011 12.4184 18.0011 10.9648V9.73466C18.0011 7.13046 15.89 5.01934 13.2858 5.01934H12.5915ZM4.00111 3.95136C4.00111 4.17095 4.13507 4.36831 4.33913 4.44939L9.16803 6.36788C9.4199 6.46795 9.68846 6.51934 9.95948 6.51934H13.2858C15.0616 6.51934 16.5011 7.95889 16.5011 9.73466V10.9648C16.5011 11.3474 16.1117 11.6068 15.7587 11.4593L12.1161 9.93783C11.8842 9.84098 11.6244 9.83497 11.3883 9.92101L4.44369 12.4517C3.89446 12.6519 3.46719 11.9532 3.89559 11.5555L6.50975 9.12849C7.04281 8.63359 6.88596 7.75324 6.21478 7.4729L1.99479 5.71023C1.53037 5.51625 1.35643 4.94804 1.63267 4.52732L3.54213 1.61916C3.67838 1.41163 4.00111 1.50811 4.00111 1.75637V3.95136ZM0.00109867 17.25C0.00109867 16.8358 0.336885 16.5 0.751099 16.5H17.2511C17.6653 16.5 18.0011 16.8358 18.0011 17.25C18.0011 17.6642 17.6653 18 17.2511 18H0.751099C0.336885 18 0.00109867 17.6642 0.00109867 17.25Z" fill="var(--fill-0, #272320)"/>
</svg>
