<svg preserveAspectRatio="none" width="100%" height="100%" overflow="visible" style="display: block;" viewBox="0 0 15.2306 15.9629" fill="none" xmlns="http://www.w3.org/2000/svg">
<path id="Shape" d="M7.61528 0C7.77021 0 7.91639 0.0718229 8.01107 0.194463L9.30451 1.86996C9.43035 2.03298 9.64327 2.10216 9.8409 2.04425L11.8722 1.44901C12.0208 1.40544 12.1813 1.43325 12.3067 1.52432C12.432 1.61539 12.508 1.75942 12.5126 1.91428L12.5741 4.03006C12.5801 4.23591 12.7117 4.41703 12.9056 4.48634L14.8988 5.19872C15.0447 5.25086 15.1582 5.36769 15.2061 5.51504C15.254 5.66239 15.2308 5.82361 15.1434 5.95155L13.9496 7.69944C13.8335 7.86951 13.8335 8.09339 13.9496 8.26344L15.1434 10.0113C15.2308 10.1393 15.254 10.3005 15.2061 10.4478C15.1582 10.5952 15.0447 10.712 14.8988 10.7642L12.9056 11.4765C12.7117 11.5459 12.5801 11.727 12.5741 11.9328L12.5126 14.0486C12.508 14.2035 12.432 14.3475 12.3067 14.4386C12.1813 14.5296 12.0208 14.5575 11.8722 14.5139L9.8409 13.9186C9.64328 13.8607 9.43035 13.9299 9.30451 14.0929L8.01107 15.7684C7.91639 15.8911 7.77021 15.9629 7.61528 15.9629C7.46035 15.9629 7.31417 15.8911 7.21949 15.7684L5.92605 14.0929C5.80021 13.9299 5.58729 13.8607 5.38966 13.9186L3.3584 14.5139C3.20973 14.5575 3.04925 14.5296 2.9239 14.4386C2.79856 14.3475 2.72252 14.2035 2.71801 14.0486L2.65643 11.9328C2.65043 11.727 2.51884 11.5459 2.32492 11.4765L0.331725 10.7642C0.185831 10.712 0.0723513 10.5952 0.0244746 10.4478C-0.0234021 10.3005 -0.000266493 10.1393 0.0871151 10.0113L1.28092 8.26344C1.39707 8.09338 1.39707 7.86951 1.28092 7.69945L0.0871151 5.95155C-0.000266433 5.82361 -0.0234021 5.66239 0.0244746 5.51504C0.0723513 5.36769 0.185831 5.25086 0.331725 5.19872L2.32492 4.48634C2.51884 4.41703 2.65043 4.23591 2.65643 4.03006L2.71801 1.91428C2.72252 1.75942 2.79856 1.61539 2.9239 1.52432C3.04925 1.43325 3.20973 1.40544 3.3584 1.44901L5.38966 2.04425C5.58729 2.10216 5.80021 2.03298 5.92605 1.86996L7.21949 0.194463C7.31417 0.0718229 7.46035 0 7.61528 0ZM7.60937 4.48145C7.33323 4.48145 7.10937 4.7053 7.10937 4.98145V7.48145H4.60937C4.33323 7.48145 4.10937 7.7053 4.10937 7.98145C4.10937 8.25759 4.33323 8.48145 4.60937 8.48145H7.10937V10.9814C7.10937 11.2576 7.33323 11.4814 7.60937 11.4814C7.88552 11.4814 8.10937 11.2576 8.10937 10.9814V8.48145H10.6094C10.8855 8.48145 11.1094 8.25759 11.1094 7.98145C11.1094 7.7053 10.8855 7.48145 10.6094 7.48145H8.10937V4.98145C8.10937 4.7053 7.88552 4.48145 7.60937 4.48145Z" fill="var(--fill-0, #272320)"/>
</svg>
