<svg preserveAspectRatio="none" width="100%" height="100%" overflow="visible" style="display: block;" viewBox="0 0 15.2306 15.9629" fill="none" xmlns="http://www.w3.org/2000/svg">
<g id="Shape">
<path d="M7.61231 4.48145C7.88845 4.48145 8.11231 4.7053 8.11231 4.98145V7.48145H10.6123C10.8884 7.48145 11.1123 7.7053 11.1123 7.98145C11.1123 8.25759 10.8884 8.48145 10.6123 8.48145H8.11231V10.9814C8.11231 11.2576 7.88845 11.4814 7.61231 11.4814C7.33617 11.4814 7.11231 11.2576 7.11231 10.9814V8.48145H4.61231C4.33617 8.48145 4.11231 8.25759 4.11231 7.98145C4.11231 7.7053 4.33617 7.48145 4.61231 7.48145H7.11231V4.98145C7.11231 4.7053 7.33617 4.48145 7.61231 4.48145Z" fill="var(--fill-0, #272320)"/>
<path d="M8.01107 0.194463C7.91639 0.0718229 7.77021 0 7.61528 0C7.46035 0 7.31417 0.0718229 7.21949 0.194463L5.92605 1.86996C5.80021 2.03298 5.58729 2.10216 5.38966 2.04425L3.3584 1.44901C3.20973 1.40544 3.04925 1.43325 2.9239 1.52432C2.79856 1.61539 2.72252 1.75942 2.71801 1.91428L2.65643 4.03006C2.65043 4.23591 2.51884 4.41703 2.32492 4.48634L0.331725 5.19872C0.185831 5.25086 0.0723513 5.36769 0.0244746 5.51504C-0.0234021 5.66239 -0.000266433 5.82361 0.0871151 5.95155L1.28092 7.69945C1.39707 7.86951 1.39707 8.09338 1.28092 8.26344L0.0871151 10.0113C-0.000266493 10.1393 -0.0234021 10.3005 0.0244746 10.4478C0.0723513 10.5952 0.185831 10.712 0.331725 10.7642L2.32492 11.4765C2.51884 11.5459 2.65043 11.727 2.65643 11.9328L2.71801 14.0486C2.72252 14.2035 2.79856 14.3475 2.9239 14.4386C3.04925 14.5296 3.20973 14.5575 3.3584 14.5139L5.38966 13.9186C5.58729 13.8607 5.80021 13.9299 5.92605 14.0929L7.21949 15.7684C7.31417 15.8911 7.46035 15.9629 7.61528 15.9629C7.77021 15.9629 7.91639 15.8911 8.01107 15.7684L9.30451 14.0929C9.43035 13.9299 9.64328 13.8607 9.8409 13.9186L11.8722 14.5139C12.0208 14.5575 12.1813 14.5296 12.3067 14.4386C12.432 14.3475 12.508 14.2035 12.5126 14.0486L12.5741 11.9328C12.5801 11.727 12.7117 11.5459 12.9056 11.4765L14.8988 10.7642C15.0447 10.712 15.1582 10.5952 15.2061 10.4478C15.254 10.3005 15.2308 10.1393 15.1434 10.0113L13.9496 8.26344C13.8335 8.09339 13.8335 7.86951 13.9496 7.69944L15.1434 5.95155C15.2308 5.82361 15.254 5.66239 15.2061 5.51504C15.1582 5.36769 15.0447 5.25086 14.8988 5.19872L12.9056 4.48634C12.7117 4.41703 12.5801 4.23591 12.5741 4.03006L12.5126 1.91428C12.508 1.75942 12.432 1.61539 12.3067 1.52432C12.1813 1.43325 12.0208 1.40544 11.8722 1.44901L9.8409 2.04425C9.64327 2.10216 9.43035 2.03298 9.30451 1.86996L8.01107 0.194463ZM6.71763 2.48104L7.61528 1.31823L8.51294 2.48104C8.89047 2.97009 9.52923 3.17763 10.1221 3.00389L11.5318 2.59079L11.5746 4.05915C11.5925 4.67671 11.9873 5.22007 12.5691 5.42801L13.9524 5.9224L13.1239 7.13545C12.7754 7.64563 12.7754 8.31726 13.1239 8.82744L13.9524 10.0405L12.5691 10.5349C11.9873 10.7428 11.5925 11.2862 11.5746 11.9037L11.5318 13.3721L10.1221 12.959C9.52923 12.7853 8.89047 12.9928 8.51294 13.4819L7.61528 14.6447L6.71762 13.4819C6.34009 12.9928 5.70133 12.7853 5.10844 12.959L3.69874 13.3721L3.656 11.9037C3.63803 11.2862 3.24325 10.7428 2.66147 10.5349L1.27819 10.0405L2.10669 8.82744C2.45514 8.31726 2.45514 7.64563 2.10669 7.13545L1.27819 5.9224L2.66147 5.428C3.24325 5.22007 3.63803 4.67671 3.656 4.05915L3.69874 2.59079L5.10844 3.00389C5.70133 3.17763 6.34009 2.97009 6.71763 2.48104Z" fill="var(--fill-0, #272320)"/>
</g>
</svg>
