<svg preserveAspectRatio="none" width="100%" height="100%" overflow="visible" style="display: block;" viewBox="0 0 17.9991 17.9991" fill="none" xmlns="http://www.w3.org/2000/svg">
<path id="Shape" d="M8.40751 0.289552C8.70777 -0.0965169 9.29128 -0.0965175 9.59155 0.289552L10.6547 1.65646C10.7921 1.83318 11.0303 1.89699 11.2377 1.81267L12.8418 1.16046C13.2949 0.976246 13.8002 1.268 13.8672 1.75248L14.1045 3.46781C14.1351 3.68958 14.3095 3.86393 14.5312 3.8946L16.2466 4.13183C16.7311 4.19884 17.0228 4.70417 16.8386 5.15724L16.1864 6.76139C16.1021 6.96878 16.1659 7.20694 16.3426 7.34439L17.7095 8.40751C18.0956 8.70777 18.0956 9.29128 17.7095 9.59155L16.3426 10.6547C16.1659 10.7921 16.1021 11.0303 16.1864 11.2377L16.8386 12.8418C17.0228 13.2949 16.7311 13.8002 16.2466 13.8672L14.5312 14.1045C14.3095 14.1351 14.1351 14.3095 14.1045 14.5312L13.8672 16.2466C13.8002 16.7311 13.2949 17.0228 12.8418 16.8386L11.2377 16.1864C11.0303 16.1021 10.7921 16.1659 10.6547 16.3426L9.59155 17.7095C9.29128 18.0956 8.70778 18.0956 8.40751 17.7095L7.34439 16.3426C7.20694 16.1659 6.96878 16.1021 6.76139 16.1864L5.15724 16.8386C4.70417 17.0228 4.19884 16.7311 4.13183 16.2466L3.8946 14.5312C3.86393 14.3095 3.68958 14.1351 3.46781 14.1045L1.75248 13.8672C1.268 13.8002 0.976246 13.2949 1.16046 12.8418L1.81267 11.2377C1.89699 11.0303 1.83317 10.7921 1.65646 10.6547L0.289552 9.59155C-0.0965168 9.29128 -0.0965176 8.70778 0.289552 8.40751L1.65646 7.34439C1.83318 7.20694 1.89699 6.96878 1.81267 6.76139L1.16046 5.15724C0.976246 4.70417 1.268 4.19884 1.75248 4.13183L3.46781 3.8946C3.68958 3.86393 3.86393 3.68958 3.8946 3.46781L4.13183 1.75248C4.19884 1.268 4.70417 0.976246 5.15724 1.16046L6.76139 1.81267C6.96878 1.89699 7.20694 1.83317 7.34439 1.65646L8.40751 0.289552ZM5.5 8.49902C5.22386 8.49902 5 8.72288 5 8.99902C5 9.27517 5.22386 9.49902 5.5 9.49902H8.5V12.499C8.5 12.7752 8.72386 12.999 9 12.999C9.27614 12.999 9.5 12.7752 9.5 12.499V9.49902H12.5C12.7761 9.49902 13 9.27517 13 8.99902C13 8.72288 12.7761 8.49902 12.5 8.49902H9.5V5.49902C9.5 5.22288 9.27614 4.99902 9 4.99902C8.72386 4.99902 8.5 5.22288 8.5 5.49902V8.49902H5.5Z" fill="var(--fill-0, #272320)"/>
</svg>
