<svg preserveAspectRatio="none" width="100%" height="100%" overflow="visible" style="display: block;" viewBox="0 0 17.9991 17.9991" fill="none" xmlns="http://www.w3.org/2000/svg">
<g id="Shape">
<path d="M5.50099 8.49904C5.22485 8.49904 5.00099 8.7229 5.00099 8.99904C5.00099 9.27518 5.22485 9.49904 5.50099 9.49904H8.50099V12.499C8.50099 12.7752 8.72485 12.999 9.00099 12.999C9.27713 12.999 9.50099 12.7752 9.50099 12.499V9.49904H12.501C12.7771 9.49904 13.001 9.27518 13.001 8.99904C13.001 8.7229 12.7771 8.49904 12.501 8.49904H9.50099V5.49904C9.50099 5.2229 9.27713 4.99904 9.00099 4.99904C8.72485 4.99904 8.50099 5.2229 8.50099 5.49904V8.49904H5.50099Z" fill="var(--fill-0, #272320)"/>
<path d="M9.59155 0.289552C9.29128 -0.0965175 8.70777 -0.096517 8.40751 0.289552L7.34439 1.65646C7.20694 1.83317 6.96878 1.89699 6.76139 1.81267L5.15724 1.16046C4.70417 0.976246 4.19884 1.268 4.13183 1.75248L3.8946 3.46781C3.86393 3.68958 3.68958 3.86393 3.46781 3.8946L1.75248 4.13183C1.268 4.19884 0.976246 4.70417 1.16046 5.15724L1.81267 6.76139C1.89699 6.96878 1.83318 7.20694 1.65646 7.34439L0.289552 8.40751C-0.0965177 8.70778 -0.0965168 9.29128 0.289552 9.59155L1.65646 10.6547C1.83317 10.7921 1.89699 11.0303 1.81267 11.2377L1.16046 12.8418C0.976246 13.2949 1.268 13.8002 1.75248 13.8672L3.46781 14.1045C3.68958 14.1351 3.86393 14.3095 3.8946 14.5312L4.13183 16.2466C4.19884 16.7311 4.70417 17.0228 5.15724 16.8386L6.76139 16.1864C6.96878 16.1021 7.20694 16.1659 7.34439 16.3426L8.40751 17.7095C8.70778 18.0956 9.29128 18.0956 9.59155 17.7095L10.6547 16.3426C10.7921 16.1659 11.0303 16.1021 11.2377 16.1864L12.8418 16.8386C13.2949 17.0228 13.8002 16.7311 13.8672 16.2466L14.1045 14.5312C14.1351 14.3095 14.3095 14.1351 14.5312 14.1045L16.2466 13.8672C16.7311 13.8002 17.0228 13.2949 16.8386 12.8418L16.1864 11.2377C16.1021 11.0303 16.1659 10.7921 16.3426 10.6547L17.7095 9.59155C18.0956 9.29128 18.0956 8.70778 17.7095 8.40751L16.3426 7.34439C16.1659 7.20694 16.1021 6.96878 16.1864 6.76139L16.8386 5.15724C17.0228 4.70417 16.7311 4.19884 16.2466 4.13183L14.5312 3.8946C14.3095 3.86393 14.1351 3.68958 14.1045 3.46781L13.8672 1.75248C13.8002 1.268 13.2949 0.976246 12.8418 1.16046L11.2377 1.81267C11.0303 1.89699 10.7921 1.83318 10.6547 1.65646L9.59155 0.289552ZM8.13375 2.27039L8.99953 1.15721L9.86531 2.27039C10.2776 2.80054 10.9921 2.99199 11.6143 2.73903L12.9207 2.20788L13.1139 3.60481C13.2059 4.27011 13.7289 4.79315 14.3942 4.88517L15.7912 5.07837L15.26 6.38475C15.0071 7.00692 15.1985 7.72141 15.7287 8.13375L16.8418 8.99953L15.7287 9.86531C15.1985 10.2776 15.0071 10.9921 15.26 11.6143L15.7912 12.9207L14.3942 13.1139C13.7289 13.2059 13.2059 13.7289 13.1139 14.3942L12.9207 15.7912L11.6143 15.26C10.9921 15.0071 10.2776 15.1985 9.86531 15.7287L8.99953 16.8418L8.13375 15.7287C7.72141 15.1985 7.00692 15.0071 6.38475 15.26L5.07837 15.7912L4.88517 14.3942C4.79315 13.7289 4.27011 13.2059 3.60481 13.1139L2.20788 12.9207L2.73903 11.6143C2.99199 10.9921 2.80055 10.2776 2.27039 9.86531L1.15721 8.99953L2.27039 8.13375C2.80054 7.72141 2.99199 7.00692 2.73903 6.38475L2.20788 5.07837L3.60481 4.88517C4.27011 4.79315 4.79315 4.27011 4.88517 3.60481L5.07837 2.20788L6.38475 2.73903C7.00692 2.99199 7.72141 2.80055 8.13375 2.27039Z" fill="var(--fill-0, #272320)"/>
</g>
</svg>
