<svg preserveAspectRatio="none" width="100%" height="100%" overflow="visible" style="display: block;" viewBox="0 0 22.0069 22.0069" fill="none" xmlns="http://www.w3.org/2000/svg">
<path id="Shape" d="M10.2141 0.386069C10.6144 -0.12869 11.3924 -0.12869 11.7928 0.386069L13.2055 2.20239C13.2742 2.29075 13.3933 2.32266 13.497 2.2805L15.6285 1.41385C16.2326 1.16823 16.9064 1.55723 16.9957 2.20321L17.311 4.48251C17.3263 4.5934 17.4135 4.68057 17.5244 4.69591L19.8037 5.01115C20.4496 5.10049 20.8386 5.77426 20.593 6.37836L19.7264 8.50992C19.6842 8.61361 19.7161 8.73269 19.8045 8.80142L21.6208 10.2141C22.1356 10.6144 22.1356 11.3924 21.6208 11.7928L19.8045 13.2055C19.7161 13.2742 19.6842 13.3933 19.7264 13.497L20.593 15.6285C20.8386 16.2326 20.4496 16.9064 19.8037 16.9957L17.5244 17.311C17.4135 17.3263 17.3263 17.4135 17.311 17.5244L16.9957 19.8037C16.9064 20.4496 16.2326 20.8386 15.6285 20.593L13.497 19.7264C13.3933 19.6842 13.2742 19.7161 13.2055 19.8045L11.7928 21.6208C11.3924 22.1356 10.6144 22.1356 10.2141 21.6208L8.80142 19.8045C8.73269 19.7161 8.61361 19.6842 8.50992 19.7264L6.37836 20.593C5.77426 20.8386 5.10049 20.4496 5.01115 19.8037L4.69591 17.5244C4.68057 17.4135 4.5934 17.3263 4.48251 17.311L2.20321 16.9957C1.55723 16.9064 1.16823 16.2326 1.41385 15.6285L2.2805 13.497C2.32266 13.3933 2.29075 13.2742 2.20239 13.2055L0.386069 11.7928C-0.12869 11.3924 -0.12869 10.6144 0.386069 10.2141L2.20239 8.80142C2.29075 8.73269 2.32266 8.61361 2.2805 8.50992L1.41385 6.37836C1.16823 5.77426 1.55723 5.10049 2.20321 5.01115L4.48251 4.69591C4.5934 4.68057 4.68057 4.5934 4.69591 4.48251L5.01115 2.20321C5.10049 1.55723 5.77426 1.16823 6.37836 1.41385L8.50992 2.2805C8.61361 2.32266 8.73269 2.29075 8.80142 2.20239L10.2141 0.386069ZM11.75 6.75293C11.75 6.33872 11.4142 6.00293 11 6.00293C10.5858 6.00293 10.25 6.33872 10.25 6.75293V10.2529H6.75C6.33579 10.2529 6 10.5887 6 11.0029C6 11.4171 6.33579 11.7529 6.75 11.7529H10.25V15.2529C10.25 15.6671 10.5858 16.0029 11 16.0029C11.4142 16.0029 11.75 15.6671 11.75 15.2529V11.7529H15.25C15.6642 11.7529 16 11.4171 16 11.0029C16 10.5887 15.6642 10.2529 15.25 10.2529H11.75V6.75293Z" fill="var(--fill-0, #272320)"/>
</svg>
