<svg preserveAspectRatio="none" width="100%" height="100%" overflow="visible" style="display: block;" viewBox="0 0 22.0069 22.0069" fill="none" xmlns="http://www.w3.org/2000/svg">
<g id="Shape">
<path d="M11.751 6.75294C11.751 6.33873 11.4152 6.00294 11.001 6.00294C10.5868 6.00294 10.251 6.33873 10.251 6.75294V10.2529H6.75099C6.33678 10.2529 6.00099 10.5887 6.00099 11.0029C6.00099 11.4172 6.33678 11.7529 6.75099 11.7529H10.251V15.2529C10.251 15.6672 10.5868 16.0029 11.001 16.0029C11.4152 16.0029 11.751 15.6672 11.751 15.2529V11.7529H15.251C15.6652 11.7529 16.001 11.4172 16.001 11.0029C16.001 10.5887 15.6652 10.2529 15.251 10.2529H11.751V6.75294Z" fill="var(--fill-0, #272320)"/>
<path d="M11.7928 0.386069C11.3924 -0.12869 10.6144 -0.12869 10.2141 0.386069L8.80142 2.20239C8.73269 2.29075 8.61361 2.32266 8.50992 2.2805L6.37836 1.41385C5.77426 1.16823 5.10049 1.55723 5.01115 2.20321L4.69591 4.48251C4.68057 4.5934 4.5934 4.68057 4.48251 4.69591L2.20321 5.01115C1.55723 5.10049 1.16823 5.77426 1.41385 6.37836L2.2805 8.50992C2.32266 8.61361 2.29075 8.73269 2.20239 8.80142L0.386069 10.2141C-0.12869 10.6144 -0.12869 11.3924 0.386069 11.7928L2.20239 13.2055C2.29075 13.2742 2.32266 13.3933 2.2805 13.497L1.41385 15.6285C1.16823 16.2326 1.55723 16.9064 2.20321 16.9957L4.48251 17.311C4.5934 17.3263 4.68057 17.4135 4.69591 17.5244L5.01115 19.8037C5.10049 20.4496 5.77426 20.8386 6.37836 20.593L8.50992 19.7264C8.61361 19.6842 8.73269 19.7161 8.80142 19.8045L10.2141 21.6208C10.6144 22.1356 11.3924 22.1356 11.7928 21.6208L13.2055 19.8045C13.2742 19.7161 13.3933 19.6842 13.497 19.7264L15.6285 20.593C16.2326 20.8386 16.9064 20.4496 16.9957 19.8037L17.311 17.5244C17.3263 17.4135 17.4135 17.3263 17.5244 17.311L19.8037 16.9957C20.4496 16.9064 20.8386 16.2326 20.593 15.6285L19.7264 13.497C19.6842 13.3933 19.7161 13.2742 19.8045 13.2055L21.6208 11.7928C22.1356 11.3924 22.1356 10.6144 21.6208 10.2141L19.8045 8.80142C19.7161 8.73269 19.6842 8.61361 19.7264 8.50992L20.593 6.37836C20.8386 5.77426 20.4496 5.10049 19.8037 5.01115L17.5244 4.69591C17.4135 4.68057 17.3263 4.5934 17.311 4.48251L16.9957 2.20321C16.9064 1.55723 16.2326 1.16823 15.6285 1.41385L13.497 2.2805C13.3933 2.32266 13.2742 2.29075 13.2055 2.20239L11.7928 0.386069ZM9.98545 3.12329L11.0034 1.81442L12.0214 3.12329C12.5025 3.7418 13.336 3.96516 14.0619 3.67004L15.5979 3.04552L15.8251 4.68801C15.9325 5.4642 16.5427 6.07441 17.3189 6.18176L18.9613 6.40893L18.3368 7.94496C18.0417 8.67082 18.2651 9.5044 18.8836 9.98546L20.1924 11.0034L18.8836 12.0214C18.2651 12.5025 18.0417 13.336 18.3368 14.0619L18.9613 15.5979L17.3189 15.8251C16.5427 15.9325 15.9325 16.5427 15.8251 17.3189L15.5979 18.9613L14.0619 18.3368C13.336 18.0417 12.5025 18.2651 12.0214 18.8836L11.0034 20.1924L9.98546 18.8836C9.5044 18.2651 8.67082 18.0417 7.94496 18.3368L6.40893 18.9613L6.18176 17.3189C6.07441 16.5427 5.4642 15.9325 4.68801 15.8251L3.04552 15.5979L3.67004 14.0619C3.96516 13.336 3.7418 12.5025 3.12329 12.0214L1.81442 11.0034L3.12329 9.98546C3.7418 9.5044 3.96516 8.67082 3.67004 7.94496L3.04552 6.40893L4.68801 6.18176C5.4642 6.07441 6.07441 5.4642 6.18176 4.68801L6.40893 3.04552L7.94496 3.67004C8.67082 3.96516 9.5044 3.7418 9.98545 3.12329Z" fill="var(--fill-0, #272320)"/>
</g>
</svg>
