<svg preserveAspectRatio="none" width="100%" height="100%" overflow="visible" style="display: block;" viewBox="0 0 26.0049 26.0049" fill="none" xmlns="http://www.w3.org/2000/svg">
<path id="Shape" d="M12.2131 0.386069C12.6135 -0.12869 13.3915 -0.128689 13.7918 0.386069L15.6029 2.71461C15.6716 2.80297 15.7907 2.83488 15.8944 2.79272L18.627 1.68166C19.2311 1.43605 19.9049 1.82505 19.9943 2.47102L20.3984 5.39313C20.4137 5.50401 20.5009 5.59118 20.6118 5.60652L23.5339 6.01066C24.1799 6.1 24.5689 6.77377 24.3232 7.37787L23.2122 10.1106C23.17 10.2142 23.2019 10.3333 23.2903 10.4021L25.6188 12.2131C26.1336 12.6135 26.1336 13.3915 25.6188 13.7918L23.2903 15.6029C23.2019 15.6716 23.17 15.7907 23.2122 15.8944L24.3232 18.627C24.5689 19.2311 24.1799 19.9049 23.5339 19.9943L20.6118 20.3984C20.5009 20.4137 20.4137 20.5009 20.3984 20.6118L19.9943 23.5339C19.9049 24.1799 19.2311 24.5689 18.627 24.3232L15.8944 23.2122C15.7907 23.17 15.6716 23.2019 15.6029 23.2903L13.7918 25.6188C13.3915 26.1336 12.6135 26.1336 12.2131 25.6188L10.4021 23.2903C10.3333 23.2019 10.2142 23.17 10.1106 23.2122L7.37787 24.3232C6.77377 24.5689 6.1 24.1799 6.01066 23.5339L5.60652 20.6118C5.59118 20.5009 5.50401 20.4137 5.39312 20.3984L2.47102 19.9943C1.82505 19.9049 1.43605 19.2311 1.68166 18.627L2.79272 15.8944C2.83488 15.7907 2.80297 15.6716 2.71461 15.6029L0.386069 13.7918C-0.12869 13.3915 -0.128689 12.6135 0.386069 12.2131L2.71461 10.4021C2.80297 10.3333 2.83488 10.2142 2.79272 10.1106L1.68166 7.37787C1.43605 6.77377 1.82505 6.1 2.47102 6.01066L5.39313 5.60652C5.50401 5.59118 5.59118 5.50401 5.60652 5.39313L6.01066 2.47102C6.1 1.82505 6.77377 1.43605 7.37787 1.68166L10.1106 2.79272C10.2142 2.83488 10.3333 2.80297 10.4021 2.71461L12.2131 0.386069ZM13.7578 7.75195C13.7578 7.33774 13.422 7.00195 13.0078 7.00195C12.5936 7.00195 12.2578 7.33774 12.2578 7.75195V12.252H7.75781C7.3436 12.252 7.00781 12.5877 7.00781 13.002C7.00781 13.4162 7.3436 13.752 7.75781 13.752H12.2578V18.252C12.2578 18.6662 12.5936 19.002 13.0078 19.002C13.422 19.002 13.7578 18.6662 13.7578 18.252V13.752H18.2578C18.672 13.752 19.0078 13.4162 19.0078 13.002C19.0078 12.5877 18.672 12.252 18.2578 12.252H13.7578V7.75195Z" fill="var(--fill-0, #272320)"/>
</svg>
