<svg preserveAspectRatio="none" width="100%" height="100%" overflow="visible" style="display: block;" viewBox="0 0 26.0049 26.0049" fill="none" xmlns="http://www.w3.org/2000/svg">
<g id="Shape">
<path d="M13.7559 7.75197C13.7559 7.33775 13.4201 7.00197 13.0059 7.00197C12.5917 7.00197 12.2559 7.33775 12.2559 7.75197V12.252H7.75587C7.34166 12.252 7.00587 12.5878 7.00587 13.002C7.00587 13.4162 7.34166 13.752 7.75587 13.752H12.2559V18.252C12.2559 18.6662 12.5917 19.002 13.0059 19.002C13.4201 19.002 13.7559 18.6662 13.7559 18.252V13.752H18.2559C18.6701 13.752 19.0059 13.4162 19.0059 13.002C19.0059 12.5878 18.6701 12.252 18.2559 12.252H13.7559V7.75197Z" fill="var(--fill-0, #272320)"/>
<path d="M13.7918 0.386069C13.3915 -0.128689 12.6135 -0.12869 12.2131 0.386069L10.4021 2.71461C10.3333 2.80297 10.2142 2.83488 10.1106 2.79272L7.37787 1.68166C6.77377 1.43605 6.1 1.82505 6.01066 2.47102L5.60652 5.39313C5.59118 5.50401 5.50401 5.59118 5.39313 5.60652L2.47102 6.01066C1.82505 6.1 1.43605 6.77377 1.68166 7.37787L2.79272 10.1106C2.83488 10.2142 2.80297 10.3333 2.71461 10.4021L0.386069 12.2131C-0.128689 12.6135 -0.12869 13.3915 0.386069 13.7918L2.71461 15.6029C2.80297 15.6716 2.83488 15.7907 2.79272 15.8944L1.68166 18.627C1.43605 19.2311 1.82505 19.9049 2.47102 19.9943L5.39312 20.3984C5.50401 20.4137 5.59118 20.5009 5.60652 20.6118L6.01066 23.5339C6.1 24.1799 6.77377 24.5689 7.37787 24.3232L10.1106 23.2122C10.2142 23.17 10.3333 23.2019 10.4021 23.2903L12.2131 25.6188C12.6135 26.1336 13.3915 26.1336 13.7918 25.6188L15.6029 23.2903C15.6716 23.2019 15.7907 23.17 15.8944 23.2122L18.627 24.3232C19.2311 24.5689 19.9049 24.1799 19.9943 23.5339L20.3984 20.6118C20.4137 20.5009 20.5009 20.4137 20.6118 20.3984L23.5339 19.9943C24.1799 19.9049 24.5689 19.2311 24.3232 18.627L23.2122 15.8944C23.17 15.7907 23.2019 15.6716 23.2903 15.6029L25.6188 13.7918C26.1336 13.3915 26.1336 12.6135 25.6188 12.2131L23.2903 10.4021C23.2019 10.3333 23.17 10.2142 23.2122 10.1106L24.3232 7.37787C24.5689 6.77377 24.1799 6.1 23.5339 6.01066L20.6118 5.60652C20.5009 5.59118 20.4137 5.50401 20.3984 5.39313L19.9943 2.47102C19.9049 1.82505 19.2311 1.43605 18.627 1.68166L15.8944 2.79272C15.7907 2.83488 15.6716 2.80297 15.6029 2.71461L13.7918 0.386069ZM11.5861 3.63551L13.0025 1.81442L14.4188 3.63551C14.8999 4.25403 15.7335 4.47738 16.4593 4.18226L18.5965 3.31334L18.9125 5.59863C19.0199 6.37481 19.6301 6.98502 20.4063 7.09237L22.6916 7.40844L21.8227 9.54559C21.5275 10.2715 21.7509 11.105 22.3694 11.5861L24.1905 13.0025L22.3694 14.4188C21.7509 14.8999 21.5275 15.7335 21.8227 16.4593L22.6916 18.5965L20.4063 18.9125C19.6301 19.0199 19.0199 19.6301 18.9125 20.4063L18.5965 22.6916L16.4593 21.8227C15.7335 21.5275 14.8999 21.7509 14.4188 22.3694L13.0025 24.1905L11.5861 22.3694C11.105 21.7509 10.2715 21.5275 9.54559 21.8227L7.40844 22.6916L7.09237 20.4063C6.98502 19.6301 6.37481 19.0199 5.59862 18.9125L3.31334 18.5965L4.18226 16.4593C4.47738 15.7335 4.25403 14.8999 3.63551 14.4188L1.81442 13.0025L3.63551 11.5861C4.25403 11.105 4.47738 10.2715 4.18226 9.54559L3.31334 7.40844L5.59863 7.09237C6.37481 6.98502 6.98502 6.37481 7.09237 5.59863L7.40844 3.31334L9.54559 4.18226C10.2715 4.47738 11.105 4.25403 11.5861 3.63551Z" fill="var(--fill-0, #272320)"/>
</g>
</svg>
