<svg preserveAspectRatio="none" width="100%" height="100%" overflow="visible" style="display: block;" viewBox="0 0 30 30" fill="none" xmlns="http://www.w3.org/2000/svg">
<path id="Shape" d="M14.0193 29.5C14.2595 29.8 14.6197 29.98 15.01 29.98L14.99 30C15.3803 30 15.7405 29.83 15.9807 29.52L18.1421 26.7397L21.4043 28.0698C21.7545 28.2099 22.1548 28.1798 22.495 27.9898C22.8252 27.7998 23.0554 27.4598 23.1054 27.0798L23.5857 23.5895L27.0781 23.1094C27.4583 23.0494 27.7985 22.8294 27.9887 22.4894C28.1888 22.1593 28.2188 21.7593 28.0687 21.3993L26.7378 18.139L29.5197 15.9788C29.8199 15.7388 30 15.3788 30 14.9887C30 14.5987 29.8299 14.2387 29.5197 13.9987L26.7378 11.8385L28.0587 8.57821C28.2088 8.21819 28.1788 7.81815 27.9887 7.47812C27.7985 7.1481 27.4683 6.91808 27.0781 6.86807L23.5957 6.38803L23.1154 2.89774C23.0654 2.51771 22.8452 2.17768 22.505 1.98767C22.1748 1.79765 21.7745 1.76765 21.4143 1.91766L18.1521 3.23777L15.9907 0.457538C15.5203 -0.152513 14.4997 -0.152513 14.0193 0.457538L11.8579 3.23777L8.59573 1.91766C8.23549 1.76765 7.83522 1.79765 7.495 1.98767C7.16478 2.17768 6.93462 2.50771 6.88459 2.89774L6.40427 6.37803L2.92195 6.85807C2.54169 6.90808 2.20147 7.13809 2.01134 7.46812C1.82121 7.79815 1.79119 8.19818 1.94129 8.55821L3.26217 11.8185L0.48032 13.9787C0.18012 14.2187 0 14.5787 0 14.9687C0 15.3588 0.170113 15.7188 0.48032 15.9588L3.26217 18.119L1.94129 21.3793C1.79119 21.7393 1.82121 22.1393 2.01134 22.4794C2.20147 22.8094 2.53169 23.0394 2.92195 23.0894L6.40427 23.5695L6.88459 27.0598C6.93462 27.4398 7.16478 27.7798 7.495 27.9698C7.83522 28.1698 8.23549 28.1999 8.59573 28.0498L11.8579 26.7197L14.0193 29.5ZM15 7.99985C15.5523 7.99985 16 8.44757 16 8.99985V13.9999H21C21.5523 13.9999 22 14.4476 22 14.9999C22 15.5521 21.5523 15.9999 21 15.9999H16V20.9999C16 21.5521 15.5523 21.9999 15 21.9999C14.4477 21.9999 14 21.5521 14 20.9999V15.9999H9C8.44771 15.9999 8 15.5521 8 14.9999C8 14.4476 8.44772 13.9999 9 13.9999H14V8.99985C14 8.44757 14.4477 7.99985 15 7.99985Z" fill="var(--fill-0, #272320)"/>
</svg>
