<svg preserveAspectRatio="none" width="100%" height="100%" overflow="visible" style="display: block;" viewBox="0 0 29.98 29.9975" fill="none" xmlns="http://www.w3.org/2000/svg">
<g id="Shape">
<path d="M15 7.97751C14.4477 7.97751 14 8.42522 14 8.97751V13.9775H9C8.44772 13.9775 8 14.4252 8 14.9775C8 15.5298 8.44771 15.9775 9 15.9775H14V20.9775C14 21.5298 14.4477 21.9775 15 21.9775C15.5523 21.9775 16 21.5298 16 20.9775V15.9775H21C21.5523 15.9775 22 15.5298 22 14.9775C22 14.4252 21.5523 13.9775 21 13.9775H16V8.97751C16 8.42522 15.5523 7.97751 15 7.97751Z" fill="var(--fill-0, #272320)"/>
<path d="M14.01 29.4975C14.25 29.7975 14.61 29.9775 15 29.9775L14.98 29.9975C15.37 29.9975 15.73 29.8275 15.97 29.5175L18.13 26.7375L21.39 28.0675C21.74 28.2075 22.14 28.1775 22.48 27.9875C22.81 27.7975 23.04 27.4575 23.09 27.0775L23.57 23.5875L27.06 23.1075C27.44 23.0475 27.78 22.8275 27.97 22.4875C28.17 22.1575 28.2 21.7575 28.05 21.3975L26.72 18.1375L29.5 15.9775C29.8 15.7375 29.98 15.3775 29.98 14.9875C29.98 14.5975 29.81 14.2375 29.5 13.9975L26.72 11.8375L28.04 8.5775C28.19 8.2175 28.16 7.8175 27.97 7.4775C27.78 7.1475 27.45 6.9175 27.06 6.8675L23.58 6.3875L23.1 2.8975C23.05 2.5175 22.83 2.1775 22.49 1.9875C22.16 1.7975 21.76 1.7675 21.4 1.9175L18.14 3.2375L15.98 0.4575C15.51 -0.1525 14.49 -0.1525 14.01 0.4575L11.85 3.2375L8.59 1.9175C8.23 1.7675 7.83 1.7975 7.49 1.9875C7.16 2.1775 6.93 2.5075 6.88 2.8975L6.4 6.3775L2.92 6.8575C2.54 6.9075 2.2 7.1375 2.01 7.4675C1.82 7.7975 1.79 8.1975 1.94 8.5575L3.26 11.8175L0.48 13.9775C0.18 14.2175 0 14.5775 0 14.9675C0 15.3575 0.17 15.7175 0.48 15.9575L3.26 18.1175L1.94 21.3775C1.79 21.7375 1.82 22.1375 2.01 22.4775C2.2 22.8075 2.53 23.0375 2.92 23.0875L6.4 23.5675L6.88 27.0575C6.93 27.4375 7.16 27.7775 7.49 27.9675C7.83 28.1675 8.23 28.1975 8.59 28.0475L11.85 26.7175L14.01 29.4975ZM13.43 25.4875C13.05 24.9875 12.45 24.7175 11.85 24.7175V24.7275C11.6 24.7275 11.34 24.7775 11.1 24.8775L8.73 25.8375L8.38 23.3075C8.26 22.4175 7.55 21.7175 6.67 21.5975L4.14 21.2475L5.1 18.8775C5.44 18.0575 5.18 17.0975 4.48 16.5475L2.46 14.9775L4.48 13.4075C5.18 12.8575 5.44 11.8975 5.1 11.0775L4.14 8.7075L6.67 8.3575C7.56 8.2375 8.26 7.5275 8.38 6.6475L8.73 4.1175L11.1 5.0775C11.92 5.4175 12.88 5.1575 13.43 4.4575L15 2.4375L16.57 4.4575C17.12 5.1575 18.07 5.4175 18.9 5.0775L21.27 4.1175L21.62 6.6475C21.75 7.5375 22.45 8.2375 23.33 8.3575L25.86 8.7075L24.9 11.0675C24.56 11.8875 24.82 12.8475 25.52 13.3975L27.54 14.9675L25.52 16.5375C24.82 17.0875 24.57 18.0375 24.9 18.8675L25.86 21.2375L23.33 21.5875C22.44 21.7175 21.74 22.4175 21.62 23.2975L21.27 25.8275L18.9 24.8675C18.08 24.5275 17.12 24.7875 16.57 25.4875L15 27.5075L13.43 25.4875Z" fill="var(--fill-0, #272320)"/>
</g>
</svg>
