<svg preserveAspectRatio="none" width="100%" height="100%" overflow="visible" style="display: block;" viewBox="0 0 43.9981 43.9981" fill="none" xmlns="http://www.w3.org/2000/svg">
<path id="Shape" d="M20.815 0.579103C21.4155 -0.193033 22.5825 -0.193036 23.1831 0.579103L26.5712 4.9354L31.6836 2.85681C32.5898 2.48839 33.6004 3.07189 33.7344 4.04085L34.4905 9.50759L39.9572 10.2637C40.9262 10.3977 41.5097 11.4083 41.1413 12.3145L39.0627 17.4269L43.419 20.815C44.1911 21.4155 44.1911 22.5825 43.419 23.1831L39.0627 26.5712L41.1413 31.6836C41.5097 32.5898 40.9262 33.6004 39.9572 33.7344L34.4905 34.4905L33.7344 39.9572C33.6004 40.9262 32.5897 41.5097 31.6836 41.1413L26.5712 39.0627L23.1831 43.419C22.5825 44.1911 21.4155 44.1911 20.815 43.419L17.4269 39.0627L12.3145 41.1413C11.4083 41.5097 10.3977 40.9262 10.2637 39.9572L9.50759 34.4905L4.04085 33.7344C3.07189 33.6004 2.48839 32.5898 2.85681 31.6836L4.9354 26.5712L0.579103 23.1831C-0.193033 22.5825 -0.193036 21.4155 0.579103 20.815L4.9354 17.4269L2.85681 12.3145C2.48839 11.4083 3.07189 10.3977 4.04085 10.2637L9.50759 9.50759L10.2637 4.04085C10.3977 3.07189 11.4083 2.48839 12.3145 2.85681L17.4269 4.9354L20.815 0.579103ZM23.25 13.249C23.25 12.5587 22.6904 11.999 22 11.999C21.3096 11.999 20.75 12.5587 20.75 13.249V20.749H13.25C12.5596 20.749 12 21.3087 12 21.999C12 22.6894 12.5596 23.249 13.25 23.249H20.75V30.749C20.75 31.4394 21.3096 31.999 22 31.999C22.6904 31.999 23.25 31.4394 23.25 30.749V23.249H30.75C31.4404 23.249 32 22.6894 32 21.999C32 21.3087 31.4404 20.749 30.75 20.749H23.25V13.249Z" fill="var(--fill-0, #272320)"/>
</svg>
