<svg preserveAspectRatio="none" width="100%" height="100%" overflow="visible" style="display: block;" viewBox="0 0 43.9981 43.9981" fill="none" xmlns="http://www.w3.org/2000/svg">
<g id="Shape">
<path d="M23.249 13.249C23.249 12.5587 22.6894 11.999 21.999 11.999C21.3087 11.999 20.749 12.5587 20.749 13.249V20.749H13.249C12.5587 20.749 11.999 21.3087 11.999 21.999C11.999 22.6894 12.5587 23.249 13.249 23.249H20.749V30.749C20.749 31.4394 21.3087 31.999 21.999 31.999C22.6894 31.999 23.249 31.4394 23.249 30.749V23.249H30.749C31.4394 23.249 31.999 22.6894 31.999 21.999C31.999 21.3087 31.4394 20.749 30.749 20.749H23.249V13.249Z" fill="var(--fill-0, #272320)"/>
<path d="M23.1831 0.579103C22.5825 -0.193036 21.4155 -0.193033 20.815 0.579103L17.4269 4.9354L12.3145 2.85681C11.4083 2.48839 10.3977 3.07189 10.2637 4.04085L9.50759 9.50759L4.04085 10.2637C3.07189 10.3977 2.48839 11.4083 2.85681 12.3145L4.9354 17.4269L0.579103 20.815C-0.193036 21.4155 -0.193033 22.5825 0.579103 23.1831L4.9354 26.5712L2.85681 31.6836C2.48839 32.5898 3.07189 33.6004 4.04085 33.7344L9.50759 34.4905L10.2637 39.9572C10.3977 40.9262 11.4083 41.5097 12.3145 41.1413L17.4269 39.0627L20.815 43.419C21.4155 44.1911 22.5825 44.1911 23.1831 43.419L26.5712 39.0627L31.6836 41.1413C32.5897 41.5097 33.6004 40.9262 33.7344 39.9572L34.4905 34.4905L39.9572 33.7344C40.9262 33.6004 41.5097 32.5898 41.1413 31.6836L39.0627 26.5712L43.419 23.1831C44.1911 22.5825 44.1911 21.4155 43.419 20.815L39.0627 17.4269L41.1413 12.3145C41.5097 11.4083 40.9262 10.3977 39.9572 10.2637L34.4905 9.50759L33.7344 4.04085C33.6004 3.07189 32.5898 2.48839 31.6836 2.85681L26.5712 4.9354L23.1831 0.579103ZM19.2841 6.61961L21.999 3.12885L24.714 6.61961C25.3325 7.41485 26.4043 7.70202 27.3375 7.32258L31.4341 5.65697L32.04 10.0376C32.178 11.0355 32.9626 11.8201 33.9605 11.9581L38.3411 12.5639L36.6755 16.6606C36.2961 17.5938 36.5832 18.6656 37.3785 19.2841L40.8692 21.999L37.3785 24.714C36.5832 25.3325 36.2961 26.4043 36.6755 27.3375L38.3411 31.4341L33.9605 32.04C32.9626 32.178 32.178 32.9626 32.04 33.9605L31.4341 38.3411L27.3375 36.6755C26.4043 36.2961 25.3325 36.5832 24.714 37.3785L21.999 40.8692L19.2841 37.3785C18.6656 36.5832 17.5938 36.2961 16.6606 36.6755L12.5639 38.3411L11.9581 33.9605C11.8201 32.9626 11.0355 32.178 10.0376 32.04L5.65697 31.4341L7.32258 27.3375C7.70202 26.4043 7.41485 25.3325 6.61962 24.714L3.12885 21.999L6.61961 19.2841C7.41485 18.6656 7.70202 17.5938 7.32258 16.6606L5.65697 12.5639L10.0376 11.9581C11.0355 11.8201 11.8201 11.0355 11.9581 10.0376L12.5639 5.65697L16.6606 7.32258C17.5938 7.70202 18.6656 7.41485 19.2841 6.61961Z" fill="var(--fill-0, #272320)"/>
</g>
</svg>
