<svg preserveAspectRatio="none" width="100%" height="100%" overflow="visible" style="display: block;" viewBox="0 0 18.9973 21" fill="none" xmlns="http://www.w3.org/2000/svg">
<path id="Shape" d="M8.46547 4.403C7.89955 4.18838 7.49727 3.64117 7.49727 3C7.49727 2.17157 8.16884 1.5 8.99727 1.5C9.82569 1.5 10.4973 2.17157 10.4973 3C10.4973 3.64127 10.0949 4.18855 9.52879 4.4031C9.1795 4.48801 8.81475 4.48797 8.46547 4.403ZM5.99727 3C5.99727 3.1352 6.00621 3.2683 6.02354 3.39876L3.14722 2.17784C2.00408 1.6926 0.679352 2.2222 0.185775 3.36177C-0.309505 4.50526 0.219734 5.82908 1.36682 6.31599L4.99978 7.85809V11.5595L3.1208 17.0165C2.71624 18.1914 3.34075 19.4719 4.51569 19.8764C5.69063 20.281 6.97107 19.6565 7.37564 18.4815L7.52082 18.0599C7.18388 17.2743 6.99731 16.4089 6.99731 15.5C6.99731 15.2947 7.00683 15.0917 7.02545 14.8912L5.95736 17.9932C5.8225 18.3848 5.39569 18.593 5.00404 18.4581C4.6124 18.3233 4.40423 17.8965 4.53908 17.5048L6.43168 12.0083C6.47677 11.8774 6.49978 11.7399 6.49978 11.6014V7.69262C6.49978 7.19101 6.19993 6.73798 5.7382 6.54199L1.95291 4.93523C1.57235 4.77369 1.39789 4.33732 1.56221 3.95794C1.72823 3.57464 2.17661 3.39538 2.56112 3.55859L7.5321 5.66865C7.6914 5.73627 7.8542 5.79238 8.01932 5.83699C8.32585 5.94264 8.65486 6 8.99727 6C9.33947 6 9.66829 5.9427 9.97466 5.83718C10.14 5.79254 10.3031 5.73636 10.4626 5.66865L15.4336 3.55859C15.8181 3.39538 16.2665 3.57464 16.4325 3.95794C16.5968 4.33732 16.4223 4.77369 16.0418 4.93523L12.2614 6.53992C11.7996 6.73591 11.4998 7.18894 11.4998 7.69055V9.3127C11.978 9.15844 12.4803 9.05807 12.9998 9.01876V7.85602L16.6279 6.31599C17.775 5.82908 18.3042 4.50526 17.8089 3.36177C17.3153 2.2222 15.9906 1.6926 14.8475 2.17784L11.971 3.39883C11.9883 3.26835 11.9973 3.13522 11.9973 3C11.9973 1.34315 10.6541 0 8.99727 0C7.34041 0 5.99727 1.34315 5.99727 3ZM7.99731 15.5C7.99731 12.4624 10.4597 10 13.4973 10C16.5349 10 18.9973 12.4624 18.9973 15.5C18.9973 18.5376 16.5349 21 13.4973 21C10.4597 21 7.99731 18.5376 7.99731 15.5ZM12.7473 18.75C12.7473 19.1642 13.0831 19.5 13.4973 19.5C13.9115 19.5 14.2473 19.1642 14.2473 18.75C14.2473 18.3358 13.9115 18 13.4973 18C13.0831 18 12.7473 18.3358 12.7473 18.75ZM11.4973 14C11.4973 14.2761 11.7212 14.5 11.9973 14.5C12.2735 14.5 12.4973 14.2761 12.4973 14C12.4973 13.4477 12.945 13 13.4973 13C14.0496 13 14.4973 13.4477 14.4973 14C14.4973 14.3706 14.4147 14.5793 14.1313 14.8975L14.0154 15.0225L13.7513 15.2921C13.2091 15.8603 12.9973 16.2695 12.9973 17C12.9973 17.2761 13.2212 17.5 13.4973 17.5C13.7735 17.5 13.9973 17.2761 13.9973 17C13.9973 16.6294 14.0799 16.4207 14.3633 16.1025L14.4793 15.9775L14.7434 15.7079C15.2855 15.1397 15.4973 14.7305 15.4973 14C15.4973 12.8954 14.6019 12 13.4973 12C12.3927 12 11.4973 12.8954 11.4973 14Z" fill="var(--fill-0, #272320)"/>
</svg>
