<svg preserveAspectRatio="none" width="100%" height="100%" overflow="visible" style="display: block;" viewBox="0 0 17 14" fill="none" xmlns="http://www.w3.org/2000/svg">
<path id="Shape" d="M3 0C1.89543 0 1 0.895431 1 2V5.25716C1.57903 4.77896 2.25761 4.41701 3 4.20703V0ZM15 12H9.40029C9.78372 11.2499 10 10.4002 10 9.5C10 8.59978 9.78372 7.75007 9.40029 7H12.5C13.3284 7 14 6.32843 14 5.5V4.5C14 3.67157 13.3284 3 12.5 3H8.5C7.67157 3 7 3.67157 7 4.5V4.59971C6.24993 4.21628 5.40022 4 4.5 4C4.33146 4 4.16468 4.00758 4 4.02242V0H15C16.1046 0 17 0.895431 17 2V10C17 11.1046 16.1046 12 15 12ZM12.5 6H8.74284C8.51939 5.72944 8.27056 5.48061 8 5.25716V4.5C8 4.22386 8.22386 4 8.5 4H12.5C12.7761 4 13 4.22386 13 4.5V5.5C13 5.77614 12.7761 6 12.5 6ZM9 9.5C9 11.9853 6.98528 14 4.5 14C2.01472 14 0 11.9853 0 9.5C0 7.01472 2.01472 5 4.5 5C6.98528 5 9 7.01472 9 9.5ZM5 7.5C5 7.22386 4.77614 7 4.5 7C4.22386 7 4 7.22386 4 7.5V9H2.5C2.22386 9 2 9.22386 2 9.5C2 9.77614 2.22386 10 2.5 10H4L4 11.5C4 11.7761 4.22386 12 4.5 12C4.77614 12 5 11.7761 5 11.5V10H6.5C6.77614 10 7 9.77614 7 9.5C7 9.22386 6.77614 9 6.5 9H5V7.5Z" fill="var(--fill-0, #272320)"/>
</svg>
