<svg preserveAspectRatio="none" width="100%" height="100%" overflow="visible" style="display: block;" viewBox="0 0 17 14" fill="none" xmlns="http://www.w3.org/2000/svg">
<path id="Shape" d="M1 2C1 0.89543 1.89543 0 3 0H15C16.1046 0 17 0.89543 17 2V10C17 11.1046 16.1046 12 15 12H9.40029C9.56223 11.6832 9.69436 11.3486 9.79297 11H15C15.5523 11 16 10.5523 16 10V2C16 1.44772 15.5523 1 15 1H5V4.02242C4.83532 4.00758 4.66854 4 4.5 4C4.33146 4 4.16468 4.00758 4 4.02242V1H3C2.44772 1 2 1.44772 2 2V4.59971C1.64222 4.78261 1.30711 5.00353 1 5.25716V2ZM12.5 7H9.40029C9.21739 6.64222 8.99647 6.30711 8.74284 6H12.5C12.7761 6 13 5.77614 13 5.5V4.5C13 4.22386 12.7761 4 12.5 4H8.5C8.22386 4 8 4.22386 8 4.5V5.25716C7.69289 5.00353 7.35778 4.78261 7 4.59971V4.5C7 3.67157 7.67157 3 8.5 3H12.5C13.3284 3 14 3.67157 14 4.5V5.5C14 6.32843 13.3284 7 12.5 7ZM9 9.5C9 11.9853 6.98528 14 4.5 14C2.01472 14 0 11.9853 0 9.5C0 7.01472 2.01472 5 4.5 5C6.98528 5 9 7.01472 9 9.5ZM5 7.5C5 7.22386 4.77614 7 4.5 7C4.22386 7 4 7.22386 4 7.5V9H2.5C2.22386 9 2 9.22386 2 9.5C2 9.77614 2.22386 10 2.5 10H4L4 11.5C4 11.7761 4.22386 12 4.5 12C4.77614 12 5 11.7761 5 11.5V10H6.5C6.77614 10 7 9.77614 7 9.5C7 9.22386 6.77614 9 6.5 9H5V7.5Z" fill="var(--fill-0, #272320)"/>
</svg>
