<svg preserveAspectRatio="none" width="100%" height="100%" overflow="visible" style="display: block;" viewBox="0 0 21 19" fill="none" xmlns="http://www.w3.org/2000/svg">
<path id="Shape" d="M1 2C1 0.895431 1.89543 0 3 0H4V7.17393C2.85258 7.44497 1.82266 8.02011 1 8.80957V2ZM15 4.5H11C10.7239 4.5 10.5 4.72386 10.5 5V6C10.5 6.27614 10.7239 6.5 11 6.5H15C15.2761 6.5 15.5 6.27614 15.5 6V5C15.5 4.72386 15.2761 4.5 15 4.5ZM11.5018 16H19C20.1046 16 21 15.1046 21 14V2C21 0.895431 20.1046 0 19 0H5.5V7C9.08985 7 12 9.91015 12 13.5C12 14.3859 11.8228 15.2304 11.5018 16ZM9 5C9 3.89543 9.89543 3 11 3H15C16.1046 3 17 3.89543 17 5V6C17 7.10457 16.1046 8 15 8H11C9.89543 8 9 7.10457 9 6V5ZM5.5 8C8.53757 8 11 10.4624 11 13.5C11 16.5376 8.53757 19 5.5 19C2.46243 19 0 16.5376 0 13.5C0 10.4624 2.46243 8 5.5 8ZM6.00111 16.5035L6.00065 14H8.49659C8.77246 14 8.99609 13.7762 8.99609 13.5C8.99609 13.2239 8.77246 13 8.49659 13H6.00046L6 10.4993C6 10.2231 5.77614 9.99927 5.5 9.99927C5.22386 9.99927 5 10.2231 5 10.4993L5.00046 13H2.4956C2.21973 13 1.99609 13.2239 1.99609 13.5C1.99609 13.7762 2.21973 14 2.4956 14H5.00065L5.00111 16.5035C5.00111 16.7797 5.22497 17.0035 5.50111 17.0035C5.77725 17.0035 6.00111 16.7797 6.00111 16.5035Z" fill="var(--fill-0, #272320)"/>
</svg>
