<svg preserveAspectRatio="none" width="100%" height="100%" overflow="visible" style="display: block;" viewBox="0 0 21 19" fill="none" xmlns="http://www.w3.org/2000/svg">
<path id="Shape" d="M1 2C1 0.895431 1.89543 0 3 0H19C20.1046 0 21 0.895431 21 2V14C21 15.1046 20.1046 16 19 16H11.5018C11.6996 15.5258 11.8428 15.0232 11.9236 14.5H19C19.2761 14.5 19.5 14.2761 19.5 14V2C19.5 1.72386 19.2761 1.5 19 1.5H6.5V7.07645C6.17403 7.02611 5.84007 7 5.5 7C5.33176 7 5.16502 7.00639 5 7.01894V1.5H3C2.72386 1.5 2.5 1.72386 2.5 2V7.73221C1.94898 8.0194 1.44427 8.38323 1 8.80957V2ZM11 3C9.89543 3 9 3.89543 9 5V6C9 7.10457 9.89543 8 11 8H15C16.1046 8 17 7.10457 17 6V5C17 3.89543 16.1046 3 15 3H11ZM15 4.5C15.2761 4.5 15.5 4.72386 15.5 5V6C15.5 6.27614 15.2761 6.5 15 6.5H11C10.7239 6.5 10.5 6.27614 10.5 6V5C10.5 4.72386 10.7239 4.5 11 4.5H15ZM5.5 8C8.53757 8 11 10.4624 11 13.5C11 16.5376 8.53757 19 5.5 19C2.46243 19 0 16.5376 0 13.5C0 10.4624 2.46243 8 5.5 8ZM6.00111 16.5035L6.00065 14H8.49659C8.77246 14 8.99609 13.7762 8.99609 13.5C8.99609 13.2239 8.77246 13 8.49659 13H6.00046L6 10.4993C6 10.2231 5.77614 9.99927 5.5 9.99927C5.22386 9.99927 5 10.2231 5 10.4993L5.00046 13H2.4956C2.21973 13 1.99609 13.2239 1.99609 13.5C1.99609 13.7762 2.21973 14 2.4956 14H5.00065L5.00111 16.5035C5.00111 16.7797 5.22497 17.0035 5.50111 17.0035C5.77725 17.0035 6.00111 16.7797 6.00111 16.5035Z" fill="var(--fill-0, #272320)"/>
</svg>
