<svg preserveAspectRatio="none" width="100%" height="100%" overflow="visible" style="display: block;" viewBox="0 0 11.9962 14.0027" fill="none" xmlns="http://www.w3.org/2000/svg">
<path id="Shape" d="M5.99805 3.5C6.96455 3.5 7.74805 2.7165 7.74805 1.75C7.74805 0.783502 6.96455 0 5.99805 0C5.03155 0 4.24805 0.783502 4.24805 1.75C4.24805 2.7165 5.03155 3.5 5.99805 3.5ZM2.19621 2.11544C1.38334 1.78702 0.45472 2.17719 0.120366 2.98764C-0.215076 3.80072 0.174691 4.72837 0.990206 5.05786L2.68541 5.74276C2.87439 5.81912 2.99811 6.00254 2.99811 6.20636L2.99811 8.1285C2.99811 8.21036 2.97801 8.29096 2.93958 8.36324L1.18471 11.6637C0.772079 12.4397 1.06669 13.4033 1.84274 13.816C2.6188 14.2286 3.58242 13.934 3.99506 13.1579L5.77765 9.80538C5.87167 9.62854 6.12509 9.62854 6.21912 9.80538L8.00179 13.1581C8.41443 13.9342 9.37805 14.2288 10.1541 13.8161C10.9302 13.4035 11.2248 12.4399 10.8121 11.6638L9.05663 8.3622C9.0182 8.28992 8.99811 8.20932 8.99811 8.12746V6.20635C8.99811 6.00253 9.12182 5.81911 9.3108 5.74276L11.006 5.05786C11.8215 4.72837 12.2113 3.80072 11.8758 2.98764C11.5415 2.17719 10.6129 1.78702 9.8 2.11544L9.01858 2.43115C8.76285 2.53447 8.57921 2.73179 8.47383 2.94893C8.02777 3.86814 7.08624 4.50013 5.99806 4.50013C4.90987 4.50013 3.96833 3.86812 3.52227 2.9489C3.4169 2.73176 3.23326 2.53443 2.97752 2.43111L2.19621 2.11544Z" fill="var(--fill-0, #272320)"/>
</svg>
