<svg preserveAspectRatio="none" width="100%" height="100%" overflow="visible" style="display: block;" viewBox="0 0 11.9962 14.0026" fill="none" xmlns="http://www.w3.org/2000/svg">
<path id="Shape" d="M4.74812 2.25C4.74812 1.55964 5.30777 1 5.99812 1C6.68848 1 7.24812 1.55964 7.24812 2.25C7.24812 2.94036 6.68848 3.5 5.99812 3.5C5.30777 3.5 4.74812 2.94036 4.74812 2.25ZM5.99812 0C4.75548 0 3.74812 1.00736 3.74812 2.25C3.74812 2.42769 3.76872 2.60057 3.80766 2.76638L2.19621 2.11531C1.38334 1.78689 0.45472 2.17707 0.120366 2.98751C-0.215076 3.8006 0.174691 4.72824 0.990206 5.05773L2.99811 5.86897L2.99811 8.25304L1.18471 11.6635C0.772079 12.4396 1.06669 13.4032 1.84274 13.8158C2.6188 14.2285 3.58242 13.9339 3.99506 13.1578L5.99838 9.39011L8.00179 13.158C8.41443 13.934 9.37805 14.2286 10.1541 13.816C10.9302 13.4034 11.2248 12.4397 10.8121 11.6637L8.99811 8.252V5.86897L11.006 5.05773C11.8215 4.72824 12.2113 3.80059 11.8758 2.98751C11.5415 2.17707 10.6129 1.78689 9.8 2.11531L8.18859 2.76636C8.22752 2.60055 8.24812 2.42768 8.24812 2.25C8.24812 1.00736 7.24076 0 5.99812 0ZM1.04479 3.36889C1.1696 3.06635 1.51816 2.91989 1.8216 3.04249L5.24889 4.42721C5.72949 4.62138 6.26671 4.62138 6.74731 4.42721L10.1746 3.04249C10.478 2.91989 10.8266 3.06635 10.9514 3.36889C11.0751 3.66879 10.9322 4.00902 10.6314 4.13055L8.6235 4.94179C8.24554 5.09449 7.99811 5.46133 7.99811 5.86897V8.252C7.99811 8.41571 8.0383 8.57692 8.11516 8.72147L9.92919 12.1332C10.0825 12.4216 9.97305 12.7797 9.68464 12.9331C9.39622 13.0864 9.03809 12.9769 8.88474 12.6885L6.88133 8.92064C6.50522 8.21327 5.49155 8.21326 5.11544 8.92064L3.11211 12.6883C2.95875 12.9768 2.60063 13.0863 2.31221 12.9329C2.0238 12.7795 1.91431 12.4214 2.06766 12.133L3.88105 8.72251C3.95791 8.57796 3.99811 8.41675 3.99811 8.25304V5.86897C3.99811 5.46133 3.75067 5.09449 3.37271 4.94179L1.36481 4.13055C1.06402 4.00902 0.921062 3.66879 1.04479 3.36889Z" fill="var(--fill-0, #272320)"/>
</svg>
