<svg preserveAspectRatio="none" width="100%" height="100%" overflow="visible" style="display: block;" viewBox="0 0 14.0041 16.0001" fill="none" xmlns="http://www.w3.org/2000/svg">
<path id="Shape" d="M7.00208 4C8.10664 4 9.00208 3.10457 9.00208 2C9.00208 0.895431 8.10664 0 7.00208 0C5.89751 0 5.00208 0.895431 5.00208 2C5.00208 3.10457 5.89751 4 7.00208 4ZM2.47397 2.15059C1.59234 1.75806 0.555607 2.15168 0.156642 3.03042C-0.243503 3.91176 0.149479 4.94681 1.03372 5.3405L3.70542 6.53002C3.88582 6.61034 4.00205 6.78931 4.00205 6.98679V8.85187C4.00205 8.91606 3.98969 8.97965 3.96564 9.03917L2.12535 13.5941C1.76329 14.4902 2.19624 15.5101 3.09236 15.8722C3.98848 16.2342 5.00843 15.8013 5.37049 14.9052L6.76799 11.4462C6.85222 11.2378 7.14736 11.2378 7.23159 11.4462L8.62901 14.905C8.99107 15.8011 10.011 16.2341 10.9071 15.872C11.8033 15.51 12.2362 14.49 11.8742 13.5939L10.0385 9.05036C10.0144 8.99084 10.0021 8.92725 10.0021 8.86306V6.98679C10.0021 6.78931 10.1183 6.61034 10.2987 6.53002L12.9704 5.3405C13.8546 4.94681 14.2476 3.91176 13.8475 3.03042C13.4485 2.15168 12.4118 1.75806 11.5301 2.15059L10.254 2.71874C10.0078 2.82838 9.83241 3.02588 9.73359 3.24269C9.26064 4.28043 8.21487 5.00012 7.00208 5.00012C5.78929 5.00012 4.74354 4.28044 4.27058 3.24271C4.17176 3.0259 3.9964 2.82841 3.75015 2.71878L2.47397 2.15059Z" fill="var(--fill-0, #272320)"/>
</svg>
