<svg preserveAspectRatio="none" width="100%" height="100%" overflow="visible" style="display: block;" viewBox="0 0 14.0041 16.0019" fill="none" xmlns="http://www.w3.org/2000/svg">
<path id="Shape" d="M5.50214 2.5C5.50214 1.67157 6.17371 1 7.00214 1C7.83057 1 8.50214 1.67157 8.50214 2.5C8.50214 3.32843 7.83057 4 7.00214 4C6.17371 4 5.50214 3.32843 5.50214 2.5ZM7.00214 0C5.62143 0 4.50214 1.11929 4.50214 2.5C4.50214 2.70188 4.52607 2.89817 4.57124 3.08618L2.47397 2.15242C1.59234 1.75989 0.555607 2.15351 0.156642 3.03225C-0.243503 3.9136 0.149479 4.94864 1.03372 5.34233L4.00205 6.66392L4.00205 8.95089L2.12535 13.5959C1.76329 14.492 2.19624 15.512 3.09236 15.874C3.98848 16.2361 5.00843 15.8031 5.37049 14.907L6.92562 11.0579C6.93509 11.0345 6.94596 11.0252 6.95402 11.0201C6.96452 11.0134 6.98037 11.0079 6.99979 11.0079C7.01921 11.0079 7.03506 11.0134 7.04556 11.0201C7.05362 11.0252 7.06449 11.0345 7.07397 11.0579L8.62901 14.9068C8.99107 15.803 10.011 16.2359 10.9071 15.8738C11.8033 15.5118 12.2362 14.4918 11.8742 13.5957L10.0021 8.96208V6.66392L12.9704 5.34233C13.8546 4.94864 14.2476 3.9136 13.8475 3.03225C13.4485 2.15351 12.4118 1.75989 11.5301 2.15242L9.43306 3.08609C9.47822 2.8981 9.50214 2.70185 9.50214 2.5C9.50214 1.11929 8.38285 0 7.00214 0ZM1.06719 3.44566C1.23902 3.0672 1.68753 2.89691 2.06723 3.06596L5.98521 4.81036C6.63248 5.09854 7.37162 5.09854 8.01889 4.81036L11.9369 3.06596C12.3166 2.89691 12.7651 3.0672 12.9369 3.44566C13.1076 3.82152 12.9407 4.26089 12.5636 4.42879L9.59531 5.75037C9.23451 5.91101 9.00205 6.26897 9.00205 6.66392V8.96208C9.00205 9.09047 9.02677 9.21765 9.07487 9.33669L10.947 13.9703C11.1021 14.3544 10.9166 14.7915 10.5325 14.9467C10.1485 15.1018 9.71137 14.9163 9.5562 14.5322L8.00115 10.6833C7.6373 9.78278 6.36228 9.78278 5.99843 10.6833L4.44331 14.5324C4.28814 14.9165 3.85102 15.102 3.46696 14.9468C3.08291 14.7917 2.89736 14.3546 3.05253 13.9705L4.92923 9.3255C4.97733 9.20646 5.00205 9.07928 5.00205 8.95089V6.66392C5.00205 6.26897 4.76959 5.91101 4.40879 5.75037L1.44046 4.42879C1.06336 4.26089 0.896542 3.82152 1.06719 3.44566Z" fill="var(--fill-0, #272320)"/>
</svg>
