<svg preserveAspectRatio="none" width="100%" height="100%" overflow="visible" style="display: block;" viewBox="0 0 17.9947 20" fill="none" xmlns="http://www.w3.org/2000/svg">
<path id="Shape" d="M8.99744 4.5C10.2401 4.5 11.2474 3.49264 11.2474 2.25C11.2474 1.00736 10.2401 0 8.99744 0C7.7548 0 6.74744 1.00736 6.74744 2.25C6.74744 3.49264 7.7548 4.5 8.99744 4.5ZM3.14722 2.17803C2.00408 1.69279 0.679352 2.22239 0.185775 3.36195C-0.309505 4.50545 0.219734 5.82927 1.36682 6.31617L4.39052 7.59966C4.7599 7.75645 4.99978 8.11888 4.99978 8.52016V11.5597L3.1208 17.0167C2.71624 18.1916 3.34075 19.4721 4.51569 19.8766C5.69063 20.2812 6.97107 19.6567 7.37564 18.4817L8.76105 14.4582C8.83846 14.2334 9.1564 14.2334 9.23381 14.4582L10.6193 18.4819C11.0239 19.6569 12.3043 20.2814 13.4793 19.8768C14.6542 19.4723 15.2787 18.1918 14.8741 17.0169L12.9998 11.56V8.51809C12.9998 8.1168 13.2397 7.75438 13.6091 7.59759L16.6279 6.31617C17.775 5.82927 18.3042 4.50545 17.8089 3.36195C17.3153 2.22239 15.9906 1.69279 14.8475 2.17803L13.2415 2.85973C12.9008 3.00435 12.6631 3.28256 12.5467 3.59067C12.0046 5.02499 10.619 6.04295 8.99739 6.04295C7.37583 6.04295 5.99016 5.025 5.4481 3.5907C5.33167 3.2826 5.09402 3.00439 4.75332 2.85978L3.14722 2.17803Z" fill="var(--fill-0, #272320)"/>
</svg>
