<svg preserveAspectRatio="none" width="100%" height="100%" overflow="visible" style="display: block;" viewBox="0 0 17.9947 19.9998" fill="none" xmlns="http://www.w3.org/2000/svg">
<path id="Shape" d="M7.49727 3C7.49727 3.64117 7.89955 4.18838 8.46547 4.403C8.81475 4.48797 9.1795 4.48801 9.52879 4.4031C10.0949 4.18855 10.4973 3.64127 10.4973 3C10.4973 2.17157 9.82569 1.5 8.99727 1.5C8.16884 1.5 7.49727 2.17157 7.49727 3ZM6.02354 3.39876C6.00621 3.2683 5.99727 3.1352 5.99727 3C5.99727 1.34315 7.34041 0 8.99727 0C10.6541 0 11.9973 1.34315 11.9973 3C11.9973 3.13522 11.9883 3.26835 11.971 3.39883L14.8475 2.17784C15.9906 1.6926 17.3153 2.2222 17.8089 3.36177C18.3042 4.50526 17.775 5.82908 16.6279 6.31599L12.9998 7.85602V11.5732L14.8741 17.0167C15.2787 18.1916 14.6542 19.4721 13.4793 19.8766C12.3043 20.2812 11.0239 19.6567 10.6193 18.4818L8.99743 13.7715L7.37564 18.4815C6.97107 19.6565 5.69063 20.281 4.51569 19.8764C3.34075 19.4719 2.71624 18.1914 3.1208 17.0165L4.99978 11.5595V7.85809L1.36682 6.31599C0.219734 5.82908 -0.309505 4.50526 0.185775 3.36177C0.679352 2.2222 2.00408 1.6926 3.14722 2.17784L6.02354 3.39876ZM8.01932 5.83699C7.8542 5.79238 7.6914 5.73627 7.5321 5.66865L2.56112 3.55859C2.17662 3.39538 1.72823 3.57464 1.56221 3.95794C1.39789 4.33732 1.57235 4.77369 1.95291 4.93523L5.7382 6.54199C6.19993 6.73798 6.49978 7.19101 6.49978 7.69262V11.6014C6.49978 11.7399 6.47677 11.8774 6.43168 12.0083L4.53908 17.5048C4.40423 17.8965 4.6124 18.3233 5.00404 18.4581C5.39569 18.593 5.8225 18.3848 5.95736 17.9932L8.06568 11.8702C8.3712 10.9821 9.62482 10.9856 9.92907 11.8699L12.0376 17.9934C12.1724 18.3851 12.5993 18.5932 12.9909 18.4584C13.3825 18.3235 13.5907 17.8967 13.4559 17.5051L11.5679 12.022C11.5228 11.891 11.4998 11.7535 11.4998 11.615V7.69055C11.4998 7.18894 11.7996 6.73591 12.2614 6.53992L16.0418 4.93523C16.4223 4.77369 16.5968 4.33732 16.4325 3.95794C16.2665 3.57464 15.8181 3.39538 15.4336 3.55859L10.4626 5.66865C10.3031 5.73636 10.14 5.79254 9.97466 5.83718C9.66829 5.9427 9.33947 6 8.99727 6C8.65486 6 8.32585 5.94264 8.01932 5.83699Z" fill="var(--fill-0, #272320)"/>
</svg>
