<svg preserveAspectRatio="none" width="100%" height="100%" overflow="visible" style="display: block;" viewBox="0 0 22 24.001" fill="none" xmlns="http://www.w3.org/2000/svg">
<path id="Shape" d="M11.0001 5.5C12.5189 5.5 13.7501 4.26878 13.7501 2.75C13.7501 1.23122 12.5189 0 11.0001 0C9.48134 0 8.25012 1.23122 8.25012 2.75C8.25012 4.26878 9.48134 5.5 11.0001 5.5ZM3.24334 3.12191C1.94219 2.69914 0.544679 3.41121 0.121911 4.71236C-0.300858 6.01351 0.411209 7.41102 1.71236 7.83379L6.30904 9.32734C6.72106 9.46121 7.00002 9.84517 7.00002 10.2784V13.375C7.00002 13.5026 6.97559 13.6291 6.92805 13.7475L4.17606 20.6038C3.66893 21.8672 4.27961 23.3059 5.54073 23.8188C6.80432 24.3327 8.24188 23.7225 8.75 22.4565L10.5191 18.049C10.6868 17.6312 11.2781 17.6305 11.4467 18.048L13.2253 22.4501C13.7378 23.7186 15.1816 24.3315 16.4501 23.819C17.7186 23.3065 18.3314 21.8627 17.8189 20.5942L15.0728 13.7974C15.0247 13.6783 15 13.5512 15 13.4228V10.2784C15 9.84517 15.279 9.46121 15.691 9.32734L20.2877 7.83379C21.5888 7.41102 22.3009 6.01351 21.8781 4.71236C21.4554 3.41121 20.0578 2.69914 18.7567 3.12191L15.6462 4.13258C15.19 4.2808 14.85 4.60008 14.6352 4.95354C13.8886 6.18219 12.5395 7.0002 11.0001 7.0002C9.46066 7.0002 8.11159 6.18221 7.36499 4.95357C7.15021 4.60012 6.81018 4.28085 6.35402 4.13263L3.24334 3.12191Z" fill="var(--fill-0, #272320)"/>
</svg>
