<svg preserveAspectRatio="none" width="100%" height="100%" overflow="visible" style="display: block;" viewBox="0 0 26 28" fill="none" xmlns="http://www.w3.org/2000/svg">
<path id="Shape" d="M13 7C14.933 7 16.5 5.433 16.5 3.5C16.5 1.567 14.933 0 13 0C11.067 0 9.5 1.567 9.5 3.5C9.5 5.433 11.067 7 13 7ZM4.0738 4.16824C2.46929 3.61576 0.720713 4.4686 0.168237 6.07311C-0.384239 7.67761 0.468601 9.42619 2.07311 9.97867L7.66282 11.9034C7.8646 11.9728 8.00004 12.1627 8.00004 12.3761V15.8934C8.00004 15.9693 7.98273 16.0443 7.94943 16.1125L4.30744 23.5797C3.56354 25.105 4.19692 26.9444 5.72214 27.6883C7.24736 28.4322 9.08684 27.7989 9.83074 26.2736L12.5485 20.7015C12.7311 20.327 13.2646 20.327 13.4473 20.7015L16.165 26.2736C16.9089 27.7989 18.7484 28.4322 20.2736 27.6883C21.7988 26.9444 22.4322 25.105 21.6883 23.5797L18.0506 16.1215C18.0173 16.0532 18 15.9782 18 15.9023V12.3761C18 12.1627 18.1355 11.9728 18.3373 11.9033L23.9269 9.97867C25.5314 9.42619 26.3842 7.67761 25.8318 6.07311C25.2793 4.4686 23.5307 3.61576 21.9262 4.16824L18.9523 5.19222C18.4328 5.37111 18.0463 5.74379 17.8128 6.16441C16.873 7.85753 15.0692 8.99978 13 8.99978C10.9308 8.99978 9.12704 7.85754 8.18726 6.16443C7.95379 5.74381 7.56726 5.37113 7.04774 5.19225L4.0738 4.16824Z" fill="var(--fill-0, #272320)"/>
</svg>
