<svg preserveAspectRatio="none" width="100%" height="100%" overflow="visible" style="display: block;" viewBox="0 0 36 40.0035" fill="none" xmlns="http://www.w3.org/2000/svg">
<path id="Shape" d="M17.9973 10.5C20.8968 10.5 23.2473 8.1495 23.2473 5.25C23.2473 2.35051 20.8968 0 17.9973 0C15.0978 0 12.7473 2.35051 12.7473 5.25C12.7473 8.1495 15.0978 10.5 17.9973 10.5ZM5.7056 6.25746C3.49961 5.45467 1.06042 6.59191 0.257502 8.79757C-0.545412 11.0032 0.592004 13.4421 2.79799 14.2449L10.67 17.1096C10.8675 17.1815 10.999 17.3692 10.999 17.5794L10.9994 22.0179C10.9994 22.3708 10.9315 22.7206 10.7992 23.0479L6.30884 34.1602C5.42943 36.3365 6.48103 38.8135 8.65765 39.6928C10.8343 40.5721 13.3117 39.5207 14.1911 37.3444L17.5347 29.0698C17.7032 28.6529 18.2934 28.6529 18.4619 29.0698L21.8056 37.3445C22.685 39.5208 25.1624 40.5722 27.339 39.6929C29.5156 38.8136 30.5672 36.3366 29.6878 34.1603L25.2006 23.0558C25.0683 22.7284 25.0004 22.3787 25.0004 22.0257L25.001 17.5794C25.001 17.3692 25.1325 17.1815 25.33 17.1096L33.202 14.2449C35.408 13.4421 36.5454 11.0032 35.7425 8.79757C34.9396 6.59191 32.5004 5.45467 30.2944 6.25746L26.4824 7.6447C25.6626 7.94303 25.0605 8.54058 24.6771 9.18867C23.326 11.4727 20.8407 12.9999 18 12.9999C15.1593 12.9999 12.674 11.4727 11.3229 9.18866C10.9395 8.54057 10.3373 7.94302 9.51754 7.64469L5.7056 6.25746Z" fill="var(--fill-0, #272320)"/>
</svg>
