<svg preserveAspectRatio="none" width="100%" height="100%" overflow="visible" style="display: block;" viewBox="0 0 36 40.0037" fill="none" xmlns="http://www.w3.org/2000/svg">
<path id="Shape" d="M13.9994 6.5C13.9994 8.07192 14.9063 9.43207 16.2254 10.0859L16.7172 10.2649C17.5458 10.5665 18.4542 10.5665 19.2828 10.2649L19.7745 10.086C21.0937 9.43212 22.0006 8.07195 22.0006 6.5C22.0006 4.29086 20.2095 2.5 18 2.5C15.7905 2.5 13.9994 4.29086 13.9994 6.5ZM11.8053 8.47739C11.6064 7.85387 11.499 7.18947 11.499 6.5C11.499 2.91015 14.4096 0 18 0C21.5904 0 24.501 2.91015 24.501 6.5C24.501 7.18947 24.3936 7.85387 24.1947 8.4774L30.2944 6.25761C32.5004 5.45482 34.9396 6.59206 35.7425 8.79772C36.5454 11.0034 35.408 13.4422 33.202 14.245L25.001 17.2295L25.0004 22.0259C25.0004 22.3789 25.0683 22.7286 25.2006 23.056L29.6878 34.1605C30.5672 36.3368 29.5156 38.8138 27.339 39.6931C25.1624 40.5723 22.685 39.5209 21.8056 37.3446L17.9983 27.9227L14.1911 37.3445C13.3117 39.5208 10.8343 40.5723 8.65765 39.693C6.48103 38.8137 5.42943 36.3367 6.30884 34.1604L10.7992 23.0481C10.9315 22.7207 10.9995 22.371 10.9994 22.0179L10.999 17.2295L2.79799 14.245C0.592004 13.4422 -0.545412 11.0034 0.257501 8.79772C1.06041 6.59206 3.49961 5.45482 5.7056 6.25761L11.8053 8.47739ZM15.249 12.391L4.85042 8.60684C3.94207 8.27628 2.9377 8.74456 2.60708 9.65277C2.27647 10.561 2.74482 11.5652 3.65317 11.8958L12.0186 14.9401C12.9076 15.2636 13.4993 16.1085 13.4993 17.0544L13.4998 22.0178C13.4998 22.6919 13.37 23.3596 13.1175 23.9846L8.62715 35.0969C8.26504 35.993 8.69805 37.013 9.59431 37.375C10.4906 37.7371 11.5107 37.3041 11.8728 36.408L15.9118 26.4125C16.67 24.5363 19.3266 24.5363 20.0848 26.4125L24.1239 36.4081C24.486 37.3042 25.5061 37.7372 26.4024 37.3751C27.2986 37.0131 27.7316 35.9931 27.3695 35.097L22.8823 23.9925C22.6298 23.3675 22.5 22.6998 22.5 22.0257L22.5006 17.0543C22.5007 16.1085 23.0924 15.2636 23.9813 14.9401L32.3468 11.8958C33.2552 11.5652 33.7235 10.561 33.3929 9.65277C33.0623 8.74456 32.0579 8.27628 31.1496 8.60684L20.7509 12.3911C19.9154 12.7818 18.9832 13 18 13C17.0167 13 16.0845 12.7817 15.249 12.391Z" fill="var(--fill-0, #272320)"/>
</svg>
