<svg preserveAspectRatio="none" width="100%" height="100%" overflow="visible" style="display: block;" viewBox="0 0 14 14" fill="none" xmlns="http://www.w3.org/2000/svg">
<path id="Shape" d="M6.90668 0C6.3496 0 5.92359 0.496559 6.0083 1.04716L6.69037 5.48063L4.80558 5.65198L3.56738 3.48513C3.39595 3.18514 3.07693 3 2.73141 3C2.32746 3 2 3.32747 2 3.73141V5.90703L0.973543 6.00034C0.433488 6.01437 0 6.45656 0 7C0 7.54344 0.433488 7.98563 0.973543 7.99966L2 8.09297V10.2686C2 10.6725 2.32746 11 2.73141 11C3.07693 11 3.39595 10.8149 3.56738 10.5149L4.80558 8.34802L6.69037 8.51937L6.0083 12.9528C5.92359 13.5034 6.34959 14 6.90668 14C7.42073 14 7.88787 13.7011 8.10328 13.2344L10.1349 8.83251C10.7503 8.88846 11.3817 9 12 9C13.1046 9 14 8.10457 14 7C14 5.89543 13.1046 5 12 5C11.3817 5 10.7503 5.11154 10.1349 5.16749L8.10328 0.765625C7.88786 0.298889 7.42073 0 6.90668 0Z" fill="var(--fill-0, #272320)"/>
</svg>
