<svg preserveAspectRatio="none" width="100%" height="100%" overflow="visible" style="display: block;" viewBox="0 0 14 14" fill="none" xmlns="http://www.w3.org/2000/svg">
<path id="Shape" d="M6.04454 1.28273C5.94077 0.608263 6.46262 0 7.14502 0C7.81858 0 8.43067 0.391636 8.71293 1.0032L10.5884 5.06665C11.0575 5.04431 11.5303 5 12 5C13.1046 5 14 5.89543 14 7C14 8.10457 13.1046 9 12 9C11.5303 9 11.0575 8.95569 10.5884 8.93335L8.71293 12.9968C8.43067 13.6084 7.81858 14 7.14502 14C6.46261 14 5.94077 13.3917 6.04454 12.7173L6.65549 8.74607L5.11991 8.67294L4.20063 10.2817C3.94681 10.7259 3.47443 11 2.96282 11C2.43107 11 2 10.5689 2 10.0372V8.52438L1.48693 8.49994C0.664523 8.49293 0 7.82407 0 7C0 6.17593 0.664523 5.50707 1.48693 5.50006L2 5.47562V3.96282C2 3.43107 2.43107 3 2.96282 3C3.47443 3 3.94681 3.27413 4.20063 3.71833L5.11991 5.32706L6.65549 5.25393L6.04454 1.28273ZM7.14502 1C7.0755 1 7.02234 1.06197 7.03291 1.13067L7.8128 6.19996L4.55559 6.35506L3.33239 4.21447C3.2628 4.09268 3.13818 4.01371 3 4.00162V6.42914L1.5119 6.5H1.5C1.22386 6.5 1 6.72386 1 7C1 7.27614 1.22386 7.5 1.5 7.5H1.5119L3 7.57086V9.99838C3.13818 9.98629 3.2628 9.90732 3.33239 9.78553L4.55559 7.64494L7.8128 7.80004L7.03291 12.8693C7.02234 12.938 7.0755 13 7.14502 13C7.42853 13 7.68617 12.8352 7.80497 12.5777L9.96281 7.90242L11.9029 7.99538C11.9347 7.99843 11.9671 8 12 8C12.5523 8 13 7.55228 13 7C13 6.44772 12.5523 6 12 6C11.9636 6 11.9273 6.00228 11.891 6.00576L9.96281 6.09758L7.80497 1.42226C7.68617 1.16484 7.42853 1 7.14502 1Z" fill="var(--fill-0, #272320)"/>
</svg>
