<svg preserveAspectRatio="none" width="100%" height="100%" overflow="visible" style="display: block;" viewBox="0 0 16 17" fill="none" xmlns="http://www.w3.org/2000/svg">
<path id="Shape" d="M6.78197 6.78958L6.09689 1.30623C6.01728 0.669379 6.46901 0.0885797 7.10586 0.00897384L7.17779 0.00224566L7.34598 0C7.94193 0 8.48135 0.352791 8.72023 0.898788L11.2322 6.64109L13.9842 6.55025C15.012 6.51599 15.8807 7.2833 15.9887 8.28967L15.9989 8.43501L16 8.5C16 9.57742 15.1266 10.4508 14.0408 10.4508L11.2332 10.358L8.72022 16.1012C8.48135 16.6472 7.94193 17 7.34598 17H7.25C6.6082 17 6.08791 16.4797 6.08791 15.8379C6.08791 15.7897 6.09091 15.7416 6.09688 15.6938L6.78198 10.2094L4.63962 10.1378L3.68219 11.8139C3.43977 12.2382 2.98862 12.5 2.5 12.5C1.94772 12.5 1.5 12.0523 1.5 11.5V10.0336L1.33875 10.0215C0.581089 9.92517 0 9.27859 0 8.5C0 7.72141 0.581089 7.07483 1.33792 6.97851L1.5 6.96635V5.5C1.5 4.94772 1.94772 4.5 2.5 4.5C2.98862 4.5 3.43977 4.76181 3.68218 5.18603L4.63955 6.86121L6.78197 6.78958ZM7.34598 1L7.2299 1.00125C7.14107 1.01236 7.07806 1.09336 7.08917 1.18222L7.91004 7.75242L4.07045 7.88079L2.81395 5.68219C2.74957 5.56953 2.62976 5.5 2.5 5.5V7.93165L1.5161 7.96641C1.22833 7.976 1 8.21206 1 8.5C1 8.78793 1.22833 9.024 1.5161 9.03359L2.5 9.06639V11.5L2.5763 11.4919C2.67546 11.4705 2.76244 11.408 2.81391 11.3179L4.07038 9.11821L7.91002 9.24658L7.08791 15.8379C7.08791 15.9274 7.16048 16 7.25 16H7.34598C7.54463 16 7.72444 15.8824 7.80407 15.7004L10.5888 9.33598L14.0492 9.45083C14.5743 9.45083 15 9.02513 15 8.5L14.9995 8.46832C14.982 7.94348 14.5423 7.5322 14.0173 7.5497L10.5878 7.66291L7.80406 1.29959C7.72444 1.1176 7.54463 1 7.34598 1Z" fill="var(--fill-0, #272320)"/>
</svg>
