<svg preserveAspectRatio="none" width="100%" height="100%" overflow="visible" style="display: block;" viewBox="0 0 19.9779 19.7583" fill="none" xmlns="http://www.w3.org/2000/svg">
<path id="Shape" d="M19.9779 9.82523C19.9779 10.925 19.0864 11.8165 17.9866 11.8165C17.9672 11.8165 17.9478 11.8162 17.9284 11.8157L13.1896 11.6761L9.73629 18.8187C9.45852 19.3933 8.87656 19.7583 8.23836 19.7583C7.72694 19.7583 7.31235 19.3437 7.31235 18.8323C7.31235 18.7955 7.31455 18.7587 7.31893 18.7221L8.18112 11.5295L4.41558 11.4195L3.92555 12.7602C3.73971 13.2685 3.25611 13.6066 2.71486 13.6066C2.21711 13.6066 1.81361 13.2031 1.81361 12.7054L1.81431 11.2287L1.00356 11.0599C0.418904 10.9379 0 10.4225 0 9.82523C0 9.22808 0.419081 8.7129 1.00373 8.59135L1.81431 8.42259L1.81361 6.94508C1.81361 6.48562 2.15742 6.10647 2.60181 6.05086L2.71486 6.04383C3.25611 6.04383 3.73971 6.38195 3.92555 6.89029L4.41666 8.23071L8.16818 8.12075L7.31893 1.03626C7.31674 1.01796 7.31509 0.999614 7.314 0.981232L7.31235 0.926012C7.31235 0.41459 7.72694 0 8.23836 0C8.82337 0 9.36113 0.306749 9.66066 0.800446L9.73629 0.939636L13.1389 7.97521L17.9284 7.83504C19.0276 7.80276 19.9448 8.66762 19.9771 9.76677L19.9779 9.82523Z" fill="var(--fill-0, #272320)"/>
</svg>
