<svg preserveAspectRatio="none" width="100%" height="100%" overflow="visible" style="display: block;" viewBox="0 0 20.032 19.8283" fill="none" xmlns="http://www.w3.org/2000/svg">
<path id="Shape" d="M7.4852 7.55735L6.78497 1.68259L6.78311 1.60899C6.78311 0.72037 7.50348 0 8.3921 0C9.19488 0 9.9378 0.419662 10.3704 1.13441L10.4568 1.29509L13.4017 7.38411L17.3588 7.26829C18.7925 7.22619 19.9888 8.35424 20.0311 9.79888L20.032 9.86412C20.032 11.2985 18.8692 12.4613 17.4129 12.461L13.4487 12.3449L10.4569 18.5331C10.074 19.3251 9.27179 19.8283 8.3921 19.8283C7.50348 19.8283 6.78311 19.1079 6.78344 18.1969L6.78995 18.079L7.49683 12.1707L5.36474 12.1085L5.09584 12.8441C4.81532 13.6115 4.08535 14.1218 3.26837 14.1218C2.39243 14.1218 1.68235 13.4117 1.68235 12.5355L1.68271 11.7759L1.52767 11.7436C0.637676 11.5578 0 10.7733 0 9.86412C0 8.95482 0.638149 8.17034 1.52822 7.98528L1.68271 7.95312L1.68235 7.19242C1.68235 6.3904 2.28047 5.71758 3.117 5.61436L3.26837 5.60641C4.01331 5.60641 4.69124 6.03157 5.03284 6.73344L5.09565 6.88358L5.36528 7.61949L7.4852 7.55735ZM8.3921 1.5C8.33191 1.5 8.28311 1.5488 8.28277 1.58662L9.16917 9.00864L4.32872 9.15051L3.70131 7.43524L3.66876 7.35617C3.5944 7.20388 3.43897 7.1064 3.31486 7.10496L3.25663 7.10711C3.21504 7.11232 3.18235 7.14909 3.18235 7.19207L3.18329 9.17288L1.83375 9.45384C1.63935 9.49426 1.5 9.66556 1.5 9.86412C1.5 10.063 1.63949 10.2346 1.83378 10.2752L3.18329 10.5561L3.18235 12.5358C3.18235 12.5833 3.22086 12.6218 3.26837 12.6218C3.45553 12.6218 3.62276 12.5049 3.68701 12.3292L4.32726 10.5775L9.18118 10.7193L8.2843 18.1905L8.28311 18.2193C8.28311 18.2795 8.33191 18.3283 8.3921 18.3283C8.69642 18.3283 8.97393 18.1542 9.10639 17.8802L12.5213 10.8171L17.4348 10.9613C18.0408 10.9613 18.5321 10.4701 18.5321 9.87513L18.5315 9.83191C18.5137 9.22635 18.0084 8.74986 17.4028 8.76765L12.4743 8.91189L9.12263 1.97973L9.07024 1.88153C8.92687 1.64523 8.66978 1.5 8.3921 1.5Z" fill="var(--fill-0, #272320)"/>
</svg>
