<svg preserveAspectRatio="none" width="100%" height="100%" overflow="visible" style="display: block;" viewBox="0 0 24 24" fill="none" xmlns="http://www.w3.org/2000/svg">
<path id="Shape" d="M10.294 0C9.52264 0 8.92522 0.675038 9.01897 1.44068L10.0153 9.57711L7.31064 9.71945L5.6677 6.84429C5.36936 6.3222 4.81414 6 4.21282 6C3.543 6 3 6.543 3 7.21282V9.94633L1.97803 10.0001C0.883583 10.0119 0 10.9028 0 12C0 13.0972 0.883583 13.9881 1.97803 13.9999L3 14.0537V16.7872C3 17.457 3.543 18 4.21282 18C4.81414 18 5.36936 17.6778 5.6677 17.1557L7.31064 14.2805L10.0153 14.4229L9.01897 22.5593C8.92522 23.325 9.52264 24 10.294 24C11.0104 24 11.6601 23.5795 11.9535 22.926L15.6384 14.7188C17.418 14.8125 19.2182 15 21 15C22.6569 15 24 13.6569 24 12C24 10.3431 22.6569 9 21 9C19.2182 9 17.418 9.18749 15.6384 9.28115L11.9535 1.07402C11.6601 0.420472 11.0104 0 10.294 0Z" fill="var(--fill-0, #272320)"/>
</svg>
