<svg preserveAspectRatio="none" width="100%" height="100%" overflow="visible" style="display: block;" viewBox="0 0 24 24" fill="none" xmlns="http://www.w3.org/2000/svg">
<path id="Shape" d="M9.03562 1.90331C8.91176 0.891804 9.70102 0 10.7201 0C11.7614 0 12.7057 0.611159 13.1322 1.5611L16.5263 9.12064C18.0157 9.08038 19.5101 9 21 9C22.6569 9 24 10.3431 24 12C24 13.6569 22.6569 15 21 15C19.5101 15 18.0157 14.9196 16.5263 14.8794L13.1322 22.4389C12.7057 23.3888 11.7614 24 10.7201 24C9.70102 24 8.91176 23.1082 9.03562 22.0967L9.94117 14.7014L7.11383 14.625L5.93421 16.6893C5.47107 17.4998 4.60914 18 3.67565 18C2.75021 18 2 17.2498 2 16.3244V14.45C0.85888 14.2184 0 13.2095 0 12C0 10.7905 0.85888 9.78164 2 9.55001V7.67565C2 6.75021 2.75021 6 3.67565 6C4.60914 6 5.47107 6.50019 5.93421 7.31069L7.11383 9.37503L9.94117 9.29861L9.03562 1.90331ZM10.7201 1.5C10.6018 1.5 10.5101 1.60355 10.5245 1.721L11.6305 10.7535L6.25689 10.8987L4.63184 8.0549C4.43577 7.71176 4.07086 7.5 3.67565 7.5C3.57864 7.5 3.5 7.57864 3.5 7.67565V10.9732L2.51013 11H2.5C1.94772 11 1.5 11.4477 1.5 12C1.5 12.5523 1.94772 13 2.5 13H2.51013L3.5 13.0268V16.3244C3.5 16.4214 3.57864 16.5 3.67565 16.5C4.07086 16.5 4.43577 16.2882 4.63184 15.9451L6.25689 13.1013L11.6305 13.2465L10.5245 22.279C10.5101 22.3965 10.6018 22.5 10.7201 22.5C11.1706 22.5 11.5793 22.2356 11.7638 21.8245L15.5674 13.3529L20.9169 13.4978C20.9443 13.4992 20.972 13.5 21 13.5C21.8284 13.5 22.5 12.8284 22.5 12C22.5 11.1716 21.8284 10.5 21 10.5C20.972 10.5 20.9443 10.5008 20.9169 10.5022L15.5674 10.6471L11.7638 2.17548C11.5793 1.76445 11.1706 1.5 10.7201 1.5Z" fill="var(--fill-0, #272320)"/>
</svg>
