<svg preserveAspectRatio="none" width="100%" height="100%" overflow="visible" style="display: block;" viewBox="0 0 28 28" fill="none" xmlns="http://www.w3.org/2000/svg">
<path id="Shape" d="M12.7578 0C11.6835 0 10.8463 0.931634 10.9608 1.99988L11.9856 11.5649L8.18657 11.7301L6.72852 8.32795C6.38326 7.52234 5.59111 7 4.71463 7C3.76766 7 3 7.76767 3 8.71463V11.9556L1.97466 12.0002C0.881769 12.0137 0 12.9039 0 14C0 15.0961 0.881769 15.9863 1.97466 15.9998L3 16.0444V19.2854C3 20.2323 3.76766 21 4.71463 21C5.59111 21 6.38326 20.4777 6.72852 19.672L8.18657 16.2699L11.9856 16.4351L10.9608 26.0001C10.8463 27.0684 11.6835 28 12.7578 28C13.6961 28 14.5441 27.4408 14.9137 26.5784L19.1278 16.7456C21.0793 16.8305 23.0468 17 25 17C26.6569 17 28 15.6569 28 14C28 12.3431 26.6569 11 25 11C23.0468 11 21.0793 11.1695 19.1278 11.2544L14.9137 1.4216C14.5441 0.559174 13.6961 0 12.7578 0Z" fill="var(--fill-0, #272320)"/>
</svg>
