<svg preserveAspectRatio="none" width="100%" height="100%" overflow="visible" style="display: block;" viewBox="0 0 28 28" fill="none" xmlns="http://www.w3.org/2000/svg">
<path id="Shape" d="M10.015 2.50015C9.87192 1.16468 10.9185 0 12.2616 0C13.5013 0 14.6217 0.738809 15.1101 1.87829L18.6985 10.2513C20.4597 10.1675 22.2369 10 24 10C26.2091 10 28 11.7909 28 14C28 16.2091 26.2091 18 24 18C22.2369 18 20.4597 17.8325 18.6985 17.7487L15.1101 26.1217C14.6217 27.2612 13.5013 28 12.2616 28C10.9185 28 9.87192 26.8353 10.015 25.4998L10.8854 17.3766L8.75573 17.2752L7.93477 19.1908C7.46438 20.2884 6.38516 21 5.19105 21C3.98096 21 3 20.019 3 18.809V17.0011L2.97387 16.9999C1.32905 16.9859 0 15.6481 0 14C0 12.3519 1.32905 11.0141 2.97387 11.0001L3 10.9989V9.19105C3 7.98096 3.98097 7 5.19105 7C6.38516 7 7.46438 7.71163 7.93477 8.8092L8.75573 10.7248L10.8854 10.6234L10.015 2.50015ZM12.2616 2C12.1074 2 11.9872 2.13374 12.0036 2.28708L13.1 12.5202L7.46427 12.7885L6.09648 9.59704C5.94125 9.23484 5.58511 9 5.19105 9C5.08553 9 5 9.08554 5 9.19105V12.9059L3.0238 13H3C2.44772 13 2 13.4477 2 14C2 14.5523 2.44772 15 3 15H3.0238L5 15.0941V18.809C5 18.9145 5.08554 19 5.19105 19C5.58511 19 5.94125 18.7652 6.09648 18.403L7.46427 15.2115L13.1 15.4798L12.0036 25.7129C11.9872 25.8663 12.1074 26 12.2616 26C12.7013 26 13.0986 25.738 13.2718 25.3339L17.4071 15.6849L23.8059 15.9908C23.8695 15.9969 23.9342 16 24 16C25.1046 16 26 15.1046 26 14C26 12.8954 25.1046 12 24 12C23.9342 12 23.8695 12.0031 23.8059 12.0092L17.4071 12.3151L13.2718 2.66613C13.0986 2.26202 12.7013 2 12.2616 2Z" fill="var(--fill-0, #272320)"/>
</svg>
