<svg preserveAspectRatio="none" width="100%" height="100%" overflow="visible" style="display: block;" viewBox="0 0 40 42" fill="none" xmlns="http://www.w3.org/2000/svg">
<path id="Shape" d="M17.0109 0C15.8154 0 14.8816 1.03306 15.0021 2.22253L16.514 17.1529L12.1473 17.4259L9.65296 13.0607C8.92479 11.7864 7.56964 11 6.10196 11C4.94108 11 4 11.9411 4 13.102V17.9351L2.95588 18.0003C1.31937 18.0239 0 19.3579 0 21C0 22.6421 1.31937 23.9761 2.95588 23.9997L4 24.0649V28.898C4 30.0589 4.94108 31 6.10196 31C7.56964 31 8.92479 30.2136 9.65296 28.9393L12.1473 24.5741L16.514 24.8471L15.0021 39.7775C14.8816 40.9669 15.8154 42 17.0109 42C18.5051 42 19.8617 41.1274 20.4813 39.7677L26.9824 25.5013C29.6397 25.6674 32.3378 26 35 26C37.7614 26 40 23.7614 40 21C40 18.2386 37.7614 16 35 16C32.3378 16 29.6397 16.3326 26.9824 16.4987L20.4813 2.23227C19.8617 0.87259 18.5051 0 17.0109 0Z" fill="var(--fill-0, #272320)"/>
</svg>
