<svg preserveAspectRatio="none" width="100%" height="100%" overflow="visible" style="display: block;" viewBox="0 0 40 42" fill="none" xmlns="http://www.w3.org/2000/svg">
<path id="Shape" d="M15.0164 2.56117C14.8776 1.19047 15.9536 0 17.3313 0C19.2273 0 20.9486 1.10722 21.7348 2.83251L27.6599 15.8349C29.9319 15.7232 32.2254 15.5 34.5 15.5C37.5376 15.5 40 17.9624 40 21C40 24.0376 37.5376 26.5 34.5 26.5C32.2254 26.5 29.9319 26.2769 27.6599 26.1651L21.7348 39.1675C20.9486 40.8928 19.2273 42 17.3313 42C15.9536 42 14.8776 40.8095 15.0164 39.4388L16.4166 25.6122L12.6597 25.4274L10.98 28.3669C10.0496 29.9951 8.31806 31 6.44274 31C5.09365 31 4 29.9063 4 28.5573V25.0015L3.96648 24.9999C1.77277 24.9819 0 23.198 0 21C0 18.802 1.77277 17.0181 3.96648 17.0001L4 16.9985V13.4427C4 12.0937 5.09365 11 6.44274 11C8.31806 11 10.0496 12.0049 10.98 13.6331L12.6597 16.5726L16.4166 16.3878L15.0164 2.56117ZM17.5238 2.5079L19.1691 18.7555L11.2503 19.1449L8.80941 14.8734C8.33359 14.0407 7.45606 13.5206 6.5 13.5006V19.3786L4.03072 19.5H4C3.17157 19.5 2.5 20.1716 2.5 21C2.5 21.8284 3.17157 22.5 4 22.5H4.03072L6.5 22.6214V28.4994C7.45606 28.4794 8.33359 27.9593 8.80942 27.1266L11.2503 22.8551L19.1691 23.2445L17.5238 39.4921C18.3629 39.423 19.1066 38.906 19.4599 38.1308L26.0884 23.5848L34.1997 23.9852C34.2981 23.995 34.3983 24 34.5 24C36.1569 24 37.5 22.6569 37.5 21C37.5 19.3431 36.1569 18 34.5 18C34.3983 18 34.2981 18.005 34.1997 18.0148L26.0884 18.4152L19.4599 3.86919C19.1066 3.09402 18.3629 2.57696 17.5238 2.5079Z" fill="var(--fill-0, #272320)"/>
</svg>
