<svg preserveAspectRatio="none" width="100%" height="100%" overflow="visible" style="display: block;" viewBox="0 0 8.5 8.5" fill="none" xmlns="http://www.w3.org/2000/svg">
<path id="Shape" d="M4.25 0C4.66421 0 5 0.335786 5 0.75V3.5H7.75C8.16421 3.5 8.5 3.83579 8.5 4.25C8.5 4.66421 8.16421 5 7.75 5H5V7.75C5 8.16421 4.66421 8.5 4.25 8.5C3.83579 8.5 3.5 8.16421 3.5 7.75V5H0.75C0.335786 5 0 4.66421 0 4.25C0 3.83579 0.335786 3.5 0.75 3.5H3.5V0.75C3.5 0.335786 3.83579 0 4.25 0Z" fill="var(--fill-0, #272320)"/>
</svg>
