<svg preserveAspectRatio="none" width="100%" height="100%" overflow="visible" style="display: block;" viewBox="0 0 12 12" fill="none" xmlns="http://www.w3.org/2000/svg">
<path id="Shape" d="M6 0C6.27614 0 6.5 0.223858 6.5 0.5V5.5H11.5C11.7761 5.5 12 5.72386 12 6C12 6.27614 11.7761 6.5 11.5 6.5H6.5V11.5C6.5 11.7761 6.27614 12 6 12C5.72386 12 5.5 11.7761 5.5 11.5V6.5H0.5C0.223858 6.5 0 6.27614 0 6C0 5.72386 0.223858 5.5 0.5 5.5H5.5V0.5C5.5 0.223858 5.72386 0 6 0Z" fill="var(--fill-0, #272320)"/>
</svg>
