<svg preserveAspectRatio="none" width="100%" height="100%" overflow="visible" style="display: block;" viewBox="0 0 26.5 26.5" fill="none" xmlns="http://www.w3.org/2000/svg">
<path id="Shape" d="M13.25 0C13.9404 0 14.5 0.559644 14.5 1.25V12H25.25C25.9404 12 26.5 12.5596 26.5 13.25C26.5 13.9404 25.9404 14.5 25.25 14.5H14.5V25.25C14.5 25.9404 13.9404 26.5 13.25 26.5C12.5596 26.5 12 25.9404 12 25.25V14.5H1.25C0.559644 14.5 0 13.9404 0 13.25C0 12.5596 0.559644 12 1.25 12H12V1.25C12 0.559644 12.5596 0 13.25 0Z" fill="var(--fill-0, #272320)"/>
</svg>
