<svg preserveAspectRatio="none" width="100%" height="100%" overflow="visible" style="display: block;" viewBox="0 0 26 26" fill="none" xmlns="http://www.w3.org/2000/svg">
<path id="Shape" d="M13.5 0.5C13.5 0.223858 13.2761 0 13 0C12.7239 0 12.5 0.223858 12.5 0.5V12.5H0.5C0.223858 12.5 0 12.7239 0 13C0 13.2761 0.223858 13.5 0.5 13.5H12.5V25.5C12.5 25.7761 12.7239 26 13 26C13.2761 26 13.5 25.7761 13.5 25.5V13.5H25.5C25.7761 13.5 26 13.2761 26 13C26 12.7239 25.7761 12.5 25.5 12.5H13.5V0.5Z" fill="var(--fill-0, #272320)"/>
</svg>
