<svg preserveAspectRatio="none" width="100%" height="100%" overflow="visible" style="display: block;" viewBox="0 0 38 38" fill="none" xmlns="http://www.w3.org/2000/svg">
<path id="Shape" d="M19 0C19.8284 0 20.5 0.671573 20.5 1.5V17.5H36.5C37.3284 17.5 38 18.1716 38 19C38 19.8284 37.3284 20.5 36.5 20.5H20.5V36.5C20.5 37.3284 19.8284 38 19 38C18.1716 38 17.5 37.3284 17.5 36.5V20.5H1.5C0.671573 20.5 0 19.8284 0 19C0 18.1716 0.671573 17.5 1.5 17.5H17.5V1.5C17.5 0.671573 18.1716 0 19 0Z" fill="var(--fill-0, #272320)"/>
</svg>
