<svg preserveAspectRatio="none" width="100%" height="100%" overflow="visible" style="display: block;" viewBox="0 0 37.5 37.5" fill="none" xmlns="http://www.w3.org/2000/svg">
<path id="Shape" d="M18.75 0C19.4404 0 20 0.559644 20 1.25V17.5H36.25C36.9404 17.5 37.5 18.0596 37.5 18.75C37.5 19.4404 36.9404 20 36.25 20H20V36.25C20 36.9404 19.4404 37.5 18.75 37.5C18.0596 37.5 17.5 36.9404 17.5 36.25V20H1.25C0.559644 20 0 19.4404 0 18.75C0 18.0596 0.559644 17.5 1.25 17.5H17.5V1.25C17.5 0.559644 18.0596 0 18.75 0Z" fill="var(--fill-0, #272320)"/>
</svg>
