<svg preserveAspectRatio="none" width="100%" height="100%" overflow="visible" style="display: block;" viewBox="0 0 10 10" fill="none" xmlns="http://www.w3.org/2000/svg">
<path id="Shape" d="M0 5C0 2.23858 2.23858 0 5 0C7.76142 0 10 2.23858 10 5C10 7.76142 7.76142 10 5 10C2.23858 10 0 7.76142 0 5ZM5 2.5C4.76988 2.5 4.58333 2.68655 4.58333 2.91667V4.58333H2.91667C2.68655 4.58333 2.5 4.76988 2.5 5C2.5 5.23012 2.68655 5.41667 2.91667 5.41667H4.58333V7.08333C4.58333 7.31345 4.76988 7.5 5 7.5C5.23012 7.5 5.41667 7.31345 5.41667 7.08333V5.41667H7.08333C7.31345 5.41667 7.5 5.23012 7.5 5C7.5 4.76988 7.31345 4.58333 7.08333 4.58333H5.41667V2.91667C5.41667 2.68655 5.23012 2.5 5 2.5Z" fill="var(--fill-0, #272320)"/>
</svg>
