<svg preserveAspectRatio="none" width="100%" height="100%" overflow="visible" style="display: block;" viewBox="0 0 24 24" fill="none" xmlns="http://www.w3.org/2000/svg">
<path id="Shape" d="M12 0C18.6274 0 24 5.37258 24 12C24 18.6274 18.6274 24 12 24C5.37258 24 0 18.6274 0 12C0 5.37258 5.37258 0 12 0ZM12 6C11.6203 6 11.3065 6.28215 11.2568 6.64823L11.25 6.75V11.25H6.75C6.33579 11.25 6 11.5858 6 12C6 12.3797 6.28215 12.6935 6.64823 12.7432L6.75 12.75H11.25V17.25C11.25 17.6642 11.5858 18 12 18C12.3797 18 12.6935 17.7178 12.7432 17.3518L12.75 17.25V12.75H17.25C17.6642 12.75 18 12.4142 18 12C18 11.6203 17.7178 11.3065 17.3518 11.2568L17.25 11.25H12.75V6.75C12.75 6.33579 12.4142 6 12 6Z" fill="var(--fill-0, #272320)"/>
</svg>
