<svg preserveAspectRatio="none" width="100%" height="100%" overflow="visible" style="display: block;" viewBox="0 0 28 28" fill="none" xmlns="http://www.w3.org/2000/svg">
<path id="Shape" d="M13 8C13 7.44771 13.4477 7 14 7C14.5523 7 15 7.44772 15 8V13H20C20.5523 13 21 13.4477 21 14C21 14.5523 20.5523 15 20 15H15V20C15 20.5523 14.5523 21 14 21C13.4477 21 13 20.5523 13 20V15H8C7.44771 15 7 14.5523 7 14C7 13.4477 7.44772 13 8 13H13V8ZM28 14C28 21.732 21.732 28 14 28C6.26801 28 0 21.732 0 14C0 6.26801 6.26801 0 14 0C21.732 0 28 6.26801 28 14ZM26 14C26 7.37258 20.6274 2 14 2C7.37258 2 2 7.37258 2 14C2 20.6274 7.37258 26 14 26C20.6274 26 26 20.6274 26 14Z" fill="var(--fill-0, #272320)"/>
</svg>
