<svg preserveAspectRatio="none" width="100%" height="100%" overflow="visible" style="display: block;" viewBox="0 0 14.001 13" fill="none" xmlns="http://www.w3.org/2000/svg">
<path id="Shape" d="M7.59134 1.74151C7.48383 1.8829 7.38736 2.02083 7.30224 2.1498C7.01865 2.57951 6.63508 2.89484 6.20332 3.00846L2.77067 3.91179L2.16602 2.66321C1.63829 1.57347 0 1.94928 0 3.16008V5.99904C0 7.15908 1.10814 7.9981 2.22469 7.68343L5.33043 6.80818L5.01759 8.21595C4.66058 9.8225 6.77709 10.7484 7.71466 9.39589L10.8207 4.91501L13.0531 4.0967C13.1035 4.07821 13.1526 4.05704 13.2001 4.03338C13.8181 3.72586 14.1775 2.9998 13.913 2.32802L13.9052 2.30865C13.8654 2.21192 13.8124 2.11641 13.7454 2.02354L13.7175 1.98527C13.6517 1.89532 13.5796 1.80097 13.5013 1.70429C12.875 0.930888 11.8541 0.00861828 10.5032 5.44786e-05C10.3055 -0.00119831 10.1154 0.0194988 9.93323 0.0578946C9.38666 0.173082 8.91142 0.447559 8.51848 0.766545C8.16036 1.05727 7.85559 1.3967 7.60803 1.71965L7.59134 1.74151ZM3.44311 2.70079L3.34422 2.57319C2.53156 1.52466 3.27885 0 4.60543 0C4.92754 0 5.2421 0.0974833 5.50776 0.279631L6.78224 1.15346C6.66382 1.31007 6.55892 1.46063 6.46762 1.59897C6.28002 1.88323 6.08122 2.00655 5.94882 2.04139L3.44311 2.70079ZM0.5 12C0.223858 12 0 12.2239 0 12.5C0 12.7761 0.223858 13 0.5 13H13.5C13.7761 13 14 12.7761 14 12.5C14 12.2239 13.7761 12 13.5 12H0.5Z" fill="var(--fill-0, #272320)"/>
</svg>
