<svg preserveAspectRatio="none" width="100%" height="100%" overflow="visible" style="display: block;" viewBox="0 0 14.001 13" fill="none" xmlns="http://www.w3.org/2000/svg">
<path id="Shape" d="M4.10878 3.55966L3.34422 2.57319C2.53156 1.52466 3.27885 0 4.60543 0C4.92754 0 5.2421 0.0974833 5.50776 0.279631L7.60803 1.71965C7.85559 1.3967 8.16036 1.05727 8.51848 0.766545C9.04239 0.341229 9.71264 -0.00495733 10.5032 5.38068e-05C12.0471 0.00984101 13.16 1.21304 13.7454 2.02354C14.3177 2.81602 13.86 3.8009 13.0531 4.0967L10.8207 4.91501L7.71466 9.39589C6.77709 10.7484 4.66058 9.8225 5.01759 8.21595L5.33043 6.80818L2.22469 7.68343C1.10814 7.99809 0 7.15908 0 5.99904V3.16008C0 1.94928 1.63829 1.57347 2.16602 2.66321L2.77067 3.91179L4.10878 3.55966ZM4.13461 1.96059L5.15964 3.28312L6.20332 3.00846C6.49899 2.93065 6.77207 2.75825 7.00591 2.5193L4.94228 1.10439C4.84311 1.03639 4.72568 1 4.60543 1C4.11021 1 3.83124 1.56917 4.13461 1.96059ZM8.13686 2.70062C7.75774 3.27508 7.18958 3.78297 6.45781 3.97554L2.62725 4.98358C2.39607 5.04442 2.15418 4.93311 2.04999 4.71797L1.266 3.09907C1.24377 3.05316 1.21935 3.03727 1.20157 3.02954C1.17879 3.01962 1.14583 3.01511 1.1087 3.02363C1.07156 3.03215 1.04387 3.05057 1.02768 3.06943C1.01505 3.08413 1 3.10908 1 3.16008V5.99904C1 6.4962 1.47492 6.85578 1.95344 6.72092L5.05918 5.84567C5.78724 5.64049 6.47071 6.2867 6.30662 7.02511L5.99378 8.43288C5.87478 8.96839 6.58028 9.27704 6.8928 8.82619L10.0891 4.2152C10.1478 4.13052 10.2312 4.06605 10.3279 4.03059L12.7089 3.1578C12.8498 3.10613 12.94 3.00476 12.9772 2.90302C13.0123 2.80717 13.0043 2.70545 12.9347 2.60904C12.3728 1.83112 11.5199 1.00652 10.4968 1.00003C10.0144 0.996976 9.56269 1.20688 9.14875 1.54292C8.73427 1.8794 8.38995 2.31713 8.13686 2.70062ZM0.5 12C0.223858 12 0 12.2239 0 12.5C0 12.7761 0.223858 13 0.5 13H13.5C13.7761 13 14 12.7761 14 12.5C14 12.2239 13.7761 12 13.5 12H0.5Z" fill="var(--fill-0, #272320)"/>
</svg>
