<svg preserveAspectRatio="none" width="100%" height="100%" overflow="visible" style="display: block;" viewBox="0 0 16 14" fill="none" xmlns="http://www.w3.org/2000/svg">
<path id="Shape" d="M9.67622 1.15917C9.53013 1.27764 9.40333 1.39002 9.29868 1.48742C9.06656 1.70345 8.82147 1.86587 8.56391 1.95172L2.75857 3.88683L2.16602 2.66324C2.10005 2.52702 2.01674 2.4137 1.92143 2.32205C1.30197 1.72632 0.176192 2.04605 0.0185276 2.94302C0.00639958 3.01202 0 3.08443 0 3.16011V6.14574C0 7.34822 1.18482 8.19245 2.3214 7.79982L5.3386 6.75754L5.04566 8.22225C4.73479 9.77657 6.73343 10.6879 7.70311 9.43405L10.801 5.42822L14.9796 4.07653C15.8176 3.80548 16.3116 2.79722 15.7173 1.9855C15.2006 1.27993 14.2922 0.29746 13.0542 0.0554833C12.8773 0.0209152 12.6938 0.0014592 12.5036 8.14199e-05C12.3904 -0.000738887 12.2785 0.00468333 12.168 0.0156254C11.1501 0.116481 10.2594 0.686293 9.67622 1.15917ZM7.11402 1.38092L3.38387 2.62431L3.34425 2.57319C2.53159 1.52466 3.27888 0 4.60546 0C4.92757 0 5.24214 0.0974832 5.5078 0.279631L7.11402 1.38092ZM0.5 13C0.223858 13 0 13.2239 0 13.5C0 13.7761 0.223858 14 0.5 14H15.5C15.7761 14 16 13.7761 16 13.5C16 13.2239 15.7761 13 15.5 13H0.5Z" fill="var(--fill-0, #272320)"/>
</svg>
