<svg preserveAspectRatio="none" width="100%" height="100%" overflow="visible" style="display: block;" viewBox="0 0 19.0283 17" fill="none" xmlns="http://www.w3.org/2000/svg">
<path id="Shape" d="M7.52245 0.410349L9.39369 1.92516C9.2028 2.1297 9.03551 2.32272 8.89522 2.49173C8.77112 2.64122 8.65672 2.69037 8.60137 2.7019L5.13761 3.42352L4.75609 2.74223C4.06844 1.51429 4.956 0 6.36338 0C6.78533 0 7.19449 0.144856 7.52245 0.410349ZM13.6924 0.502625C15.9302 0.330316 17.6017 1.74617 18.547 2.82934C19.0357 3.38933 19.1337 4.09735 18.9247 4.71216C18.7201 5.31405 18.2312 5.80882 17.5827 6.0324L12.212 7.88421L8.97629 12.1987C8.59778 12.7034 8.00372 13.0004 7.37285 13.0004C5.94626 13.0004 4.97639 11.5522 5.51953 10.2331L6.02764 8.99901L2.72694 9.6339C1.31234 9.906 0 8.82203 0 7.38149V3.69166C0 2.75761 0.757196 2.00041 1.69125 2.00041C2.31015 2.00041 2.87962 2.33847 3.17598 2.8818L4.14191 4.65266L8.80533 3.68112C9.11924 3.61572 9.42214 3.42283 9.66466 3.13069C10.0355 2.68399 10.5935 2.07622 11.2634 1.55966C11.9221 1.0518 12.7632 0.574176 13.6924 0.502625ZM0.75 15.5C0.335786 15.5 0 15.8358 0 16.25C0 16.6642 0.335786 17 0.75 17H17.25C17.6642 17 18 16.6642 18 16.25C18 15.8358 17.6642 15.5 17.25 15.5H0.75Z" fill="var(--fill-0, #272320)"/>
</svg>
