<svg preserveAspectRatio="none" width="100%" height="100%" overflow="visible" style="display: block;" viewBox="0 0 19.0283 17" fill="none" xmlns="http://www.w3.org/2000/svg">
<path id="Shape" d="M5.31551 4.40816L4.54364 3.28135C3.59057 1.89 4.58682 0 6.27329 0C6.75351 0 7.21918 0.16486 7.59243 0.467014L10.1732 2.55618C10.4827 2.22856 10.852 1.87691 11.2634 1.55966C11.9221 1.0518 12.7632 0.574176 13.6924 0.502626C15.9302 0.330319 17.6017 1.7461 18.547 2.82923C19.0357 3.38921 19.1337 4.09723 18.9247 4.71205C18.7201 5.31393 18.2312 5.80871 17.5828 6.0323L12.212 7.8842L9.04962 12.1009C8.62494 12.6672 7.95844 13.0004 7.25063 13.0004C5.83529 13.0004 4.77186 11.7086 5.04385 10.3196L5.29513 9.03636L2.7653 9.58257C1.34291 9.88968 0 8.80577 0 7.35061V3.69166C0 2.75761 0.757196 2.00041 1.69125 2.00041C2.31015 2.00041 2.87962 2.33847 3.17598 2.8818L4.14191 4.65266L5.31551 4.40816ZM5.78114 2.43365L6.90662 4.07668L8.80533 3.68112C8.89529 3.66237 8.98436 3.63316 9.07135 3.59414L6.64863 1.63288C6.54243 1.54691 6.40993 1.5 6.27329 1.5C5.79343 1.5 5.50996 2.03777 5.78114 2.43365ZM13.8076 1.9982C13.3011 2.0372 12.7399 2.31535 12.1793 2.74757C11.63 3.17109 11.1517 3.68771 10.8188 4.08877C10.3987 4.5949 9.81301 5.00339 9.11126 5.14959L3.90297 6.23465C3.5794 6.30206 3.24985 6.14971 3.09158 5.85955L1.85914 3.60008C1.82563 3.53864 1.76123 3.50041 1.69125 3.50041C1.58562 3.50041 1.5 3.58604 1.5 3.69166V7.35061C1.5 7.84985 1.96073 8.22172 2.44873 8.11636L6.09172 7.32981C6.33829 7.27657 6.59511 7.35085 6.7752 7.5275C6.95528 7.70414 7.0345 7.95949 6.98602 8.20704L6.51589 10.6078C6.42534 11.0703 6.7794 11.5004 7.25063 11.5004C7.48629 11.5004 7.7082 11.3895 7.8496 11.2009L11.15 6.80018C11.2399 6.68023 11.3638 6.59 11.5055 6.54113L17.0938 4.61424C17.3174 4.53712 17.4536 4.37897 17.5045 4.22935C17.5509 4.09266 17.5347 3.95059 17.4168 3.81553C16.5642 2.83853 15.3185 1.88186 13.8076 1.9982ZM0.75 15.5C0.335786 15.5 0 15.8358 0 16.25C0 16.6642 0.335786 17 0.75 17H17.25C17.6642 17 18 16.6642 18 16.25C18 15.8358 17.6642 15.5 17.25 15.5H0.75Z" fill="var(--fill-0, #272320)"/>
</svg>
