<svg preserveAspectRatio="none" width="100%" height="100%" overflow="visible" style="display: block;" viewBox="0 0 14 14" fill="none" xmlns="http://www.w3.org/2000/svg">
<path id="Shape" d="M10.2929 11L13.1464 13.8536C13.3417 14.0488 13.6583 14.0488 13.8536 13.8536C14.0488 13.6583 14.0488 13.3417 13.8536 13.1464L0.853553 0.146447C0.658291 -0.0488155 0.341709 -0.0488155 0.146447 0.146446C-0.0488156 0.341709 -0.0488156 0.658291 0.146447 0.853553L2.91114 3.61825C2.64722 4.19078 2.50001 4.8282 2.50001 5.5V7.9014L1.5357 10.3145C1.47415 10.4685 1.49299 10.643 1.58601 10.7804C1.67904 10.9177 1.83412 11 2 11H10.2929ZM12.4643 10.3145C12.4701 10.329 12.4752 10.3436 12.4796 10.3585L4.14367 2.02257C4.92065 1.38362 5.91553 1 7.00001 1C9.48529 1 11.5 3.01472 11.5 5.5V7.9014L12.4643 10.3145ZM6.99998 13.5C6.06806 13.5 5.28501 12.8626 5.06299 12H8.93697C8.71495 12.8626 7.9319 13.5 6.99998 13.5Z" fill="var(--fill-0, #272320)"/>
</svg>
