<svg preserveAspectRatio="none" width="100%" height="100%" overflow="visible" style="display: block;" viewBox="0 0 14 14" fill="none" xmlns="http://www.w3.org/2000/svg">
<path id="Shape" d="M10.2929 11L13.1464 13.8536C13.3417 14.0488 13.6583 14.0488 13.8536 13.8536C14.0488 13.6583 14.0488 13.3417 13.8536 13.1464L0.853553 0.146447C0.658291 -0.0488155 0.341709 -0.0488155 0.146447 0.146446C-0.0488156 0.341709 -0.0488155 0.658291 0.146447 0.853553L2.91116 3.61827C2.64722 4.19081 2.50001 4.82823 2.50001 5.50005V7.90144L1.5357 10.3145C1.47415 10.4685 1.49299 10.6431 1.58601 10.7804C1.67904 10.9178 1.83412 11 2 11H5C5 12.1084 5.89164 13 7 13C8.10835 13 9 12.1084 9 11H10.2929ZM9.29294 10H2.73826L3.46431 8.18319C3.48789 8.12418 3.50001 8.0612 3.50001 7.99765V5.50005C3.50001 5.11116 3.56343 4.73709 3.6805 4.38761L9.29294 10ZM7 12C6.44393 12 6 11.5561 6 11H8C8 11.5561 7.55607 12 7 12ZM10.6896 8.56832L10.5357 8.18319C10.5121 8.12418 10.5 8.0612 10.5 7.99765V5.50005C10.5 3.56705 8.933 2.00005 7.00001 2.00005C6.19186 2.00005 5.44769 2.27394 4.85526 2.73397L4.1438 2.02251C4.92076 1.38363 5.91559 1.00005 7.00001 1.00005C9.48529 1.00005 11.5 3.01476 11.5 5.50005V7.90144L12.4643 10.3145C12.4701 10.3289 12.4751 10.3435 12.4795 10.3582L10.6896 8.56832Z" fill="var(--fill-0, #272320)"/>
</svg>
