<svg preserveAspectRatio="none" width="100%" height="100%" overflow="visible" style="display: block;" viewBox="0 0 16 16" fill="none" xmlns="http://www.w3.org/2000/svg">
<path id="Shape" d="M2.00433 5.56824C2.03641 4.7528 2.24104 3.98294 2.58352 3.29061L0.146447 0.853553C-0.0488155 0.658291 -0.0488155 0.341709 0.146447 0.146447C0.341709 -0.0488155 0.658291 -0.0488155 0.853553 0.146447L15.8536 15.1464C16.0488 15.3417 16.0488 15.6583 15.8536 15.8536C15.6583 16.0488 15.3417 16.0488 15.1464 15.8536L12.2975 13.0046H1.7513C1.6628 13.0046 1.575 12.9889 1.49197 12.9583C1.20507 12.8526 1.0163 12.5865 1.00952 12.2422L1.01412 12.1247L1.04756 11.9952L1.99895 9.411L2.00003 5.79281L2.00433 5.56824ZM14.999 12.2546C14.999 12.426 14.9411 12.5856 14.8357 12.7144L3.78519 1.66386C4.86947 0.632648 6.35835 0 7.99759 0C11.1465 0 13.7415 2.33488 13.9821 5.3554L13.9954 5.57762L13.9999 5.80214L13.9989 9.408L14.9527 11.9951L14.9783 12.0796L14.9938 12.1664L14.999 12.2546ZM10.4496 14.0016C10.2174 15.1419 9.20888 16 7.99995 16C6.79102 16 5.78251 15.1419 5.55027 14.0016H10.4496Z" fill="var(--fill-0, #272320)"/>
</svg>
