<svg preserveAspectRatio="none" width="100%" height="100%" overflow="visible" style="display: block;" viewBox="0 0 16 16" fill="none" xmlns="http://www.w3.org/2000/svg">
<path id="Shape" d="M2.0044 5.56824C2.03648 4.75282 2.2411 3.98297 2.58356 3.29065L0.146447 0.853553C-0.0488155 0.658291 -0.0488155 0.341709 0.146447 0.146447C0.341709 -0.0488155 0.658291 -0.0488155 0.853553 0.146447L15.8536 15.1464C16.0488 15.3417 16.0488 15.6583 15.8536 15.8536C15.6583 16.0488 15.3417 16.0488 15.1464 15.8536L12.2972 13.0043L10.4996 13.004L10.4946 13.1653C10.4095 14.469 9.32518 15.5 8.00002 15.5C6.67453 15.5 5.58998 14.4685 5.50533 13.1644L5.49962 13.004L1.99891 13.0046C1.91096 13.0046 1.82358 12.993 1.73902 12.9702L1.61456 12.9277C1.20378 12.7567 0.961812 12.3392 1.01221 11.8757L1.0333 11.7483L1.07572 11.6202L1.99902 9.401L2.0001 5.79281L2.0044 5.56824ZM11.299 12.0061L3.33843 4.04552C3.16766 4.46607 3.05719 4.91575 3.01715 5.38498L3.00393 5.59723L3.00002 5.80214V9.5L2.96161 9.69217L1.9989 12.0046L11.299 12.0061ZM9.49961 13.004H6.49962L6.50697 13.1454C6.57552 13.8581 7.14275 14.425 7.85556 14.4931L8.00002 14.5C8.77971 14.5 9.42046 13.9051 9.49315 13.1445L9.49961 13.004ZM13.0384 9.6922L13.9133 11.7919L14.7653 12.644C14.9153 12.4691 15.0013 12.2458 15.0013 12.0046L14.9926 11.8733L14.9774 11.7871C14.9647 11.7302 14.947 11.6743 14.9244 11.6202L13.999 9.398L14 5.80214L13.9955 5.57762L13.9821 5.3554C13.7416 2.33488 11.1466 0 7.99766 0C6.3584 0 4.86951 0.632662 3.78523 1.66389L4.49193 2.3706C5.39369 1.52222 6.63126 1 7.99766 1C10.6947 1 12.8909 3.0349 12.996 5.60831L13.0001 5.81241L13 9.5L13.0384 9.6922Z" fill="var(--fill-0, #272320)"/>
</svg>
