<svg preserveAspectRatio="none" width="100%" height="100%" overflow="visible" style="display: block;" viewBox="0 0 19.9998 20.0002" fill="none" xmlns="http://www.w3.org/2000/svg">
<path id="Shape" d="M1.28034 0.219675C0.987445 -0.0732209 0.512571 -0.0732257 0.219675 0.219665C-0.0732209 0.512555 -0.0732257 0.987429 0.219665 1.28032L3.22385 4.28457C2.7954 5.18486 2.54098 6.18466 2.50453 7.24108L2.50011 7.491L2.50001 11.5028L1.08511 14.6633C0.870731 15.1422 1.08515 15.7042 1.56402 15.9186C1.68613 15.9733 1.8184 16.0015 1.95219 16.0015H14.9406L18.7194 19.7805C19.0123 20.0734 19.4872 20.0734 19.7801 19.7805C20.073 19.4876 20.073 19.0127 19.7801 18.7198L1.28034 0.219675ZM19.0016 15.0515C19.0016 15.2676 18.9295 15.4668 18.808 15.6264L5.05071 1.86876C6.37284 0.707076 8.10617 0.00391504 10 0.00391504C14.1421 0.00391504 17.5 3.36178 17.5 7.50392V11.5024L18.9183 14.6625C18.9732 14.7849 19.0016 14.9174 19.0016 15.0515ZM12.9583 17.003C12.7196 18.4211 11.486 19.5015 10 19.5015C8.51402 19.5015 7.28037 18.4211 7.04173 17.003H12.9583Z" fill="var(--fill-0, #272320)"/>
</svg>
