<svg preserveAspectRatio="none" width="100%" height="100%" overflow="visible" style="display: block;" viewBox="0 0 19.9998 20.0039" fill="none" xmlns="http://www.w3.org/2000/svg">
<path id="Shape" d="M3.21938 4.28387L0.219665 1.2841C-0.0732257 0.991204 -0.0732209 0.51633 0.219675 0.22344C0.512571 -0.0694503 0.987445 -0.0694455 1.28034 0.223451L19.7801 18.7236C20.073 19.0165 20.073 19.4914 19.7801 19.7843C19.4872 20.0772 19.0123 20.0771 18.7194 19.7843L15.4398 16.5045L13.0001 16.5053C13.0001 18.1621 11.657 19.5053 10.0001 19.5053C8.40243 19.5053 7.09645 18.2564 7.0052 16.6815L6.99966 16.503L2.27498 16.5038C2.10364 16.5038 1.93413 16.4686 1.77697 16.4003C1.14377 16.1252 0.853423 15.389 1.12846 14.7558L2.50011 11.5979V7.49989C2.50028 6.34757 2.7582 5.25754 3.21938 4.28387ZM13.9391 15.0038L4.36473 5.42925C4.1289 6.07405 4.00022 6.77139 4.00011 7.5V11.9096L2.65613 15.0038H13.9391ZM11.4997 16.503L8.50011 16.5053C8.50011 17.3337 9.17168 18.0053 10.0001 18.0053C10.7798 18.0053 11.4206 17.4104 11.4932 16.6497L11.4997 16.503ZM16.0001 11.9106L16.7084 13.5305L18.8958 15.7179C18.9532 15.5744 18.9848 15.4178 18.9848 15.2538C18.9848 15.0814 18.9492 14.9109 18.8801 14.753L17.5001 11.597V7.5L17.4959 7.24905C17.3568 3.19474 14.05 0 10.0001 0C8.09837 0 6.36403 0.703162 5.0433 1.86513L6.10667 2.92852C7.15366 2.03681 8.51257 1.5 10.0001 1.5C13.2417 1.5 15.8854 4.05418 15.9965 7.28765L16.0002 7.51286L16.0001 11.9106Z" fill="var(--fill-0, #272320)"/>
</svg>
