<svg preserveAspectRatio="none" width="100%" height="100%" overflow="visible" style="display: block;" viewBox="0 0 23.9998 24.0002" fill="none" xmlns="http://www.w3.org/2000/svg">
<path id="Shape" d="M1.28033 0.219674C0.987444 -0.0732214 0.51257 -0.0732252 0.219674 0.219666C-0.0732214 0.512556 -0.0732252 0.98743 0.219666 1.28033L4.47717 5.5379C3.8524 6.72131 3.4987 8.06998 3.4987 9.50125L3.49794 13.612L2.08177 17.2564L2.04049 17.3807C1.86764 18.006 2.19311 18.673 2.81078 18.9133C2.9587 18.9708 3.11602 19.0003 3.27473 19.0003H17.9394L22.7194 23.7805C23.0123 24.0734 23.4872 24.0734 23.7801 23.7805C24.073 23.4876 24.073 23.0127 23.7801 22.7198L1.28033 0.219674ZM6.33987 3.15805L21.7124 18.5308C21.8931 18.3101 22.0016 18.0279 22.0016 17.7203L21.9919 17.5627C21.9789 17.4583 21.9531 17.3558 21.915 17.2573L20.5009 13.613L20.5012 9.50125H20.4974V9.24605C20.3625 4.669 16.6097 1.00001 11.9999 1.00001C9.8262 1.00001 7.84301 1.81586 6.33987 3.15805ZM15.4656 20.0024C15.2225 21.6987 13.7635 23.0025 11.9999 23.0025C10.2364 23.0025 8.7774 21.6987 8.53429 20.0024H15.4656Z" fill="var(--fill-0, #272320)"/>
</svg>
