<svg preserveAspectRatio="none" width="100%" height="100%" overflow="visible" style="display: block;" viewBox="0 0 23.9998 24.0002" fill="none" xmlns="http://www.w3.org/2000/svg">
<path id="Shape" d="M1.28033 0.219674C0.987444 -0.0732214 0.51257 -0.0732252 0.219674 0.219666C-0.0732214 0.512556 -0.0732252 0.98743 0.219666 1.28033L4.47717 5.5379C3.8524 6.72131 3.4987 8.06998 3.4987 9.50125L3.49794 14.112L2.08177 17.7561L2.04049 17.8804C1.86764 18.5057 2.19311 19.1728 2.81078 19.413C2.9587 19.4705 3.11602 19.5 3.27473 19.5L8.49838 19.499L8.5037 19.6932C8.60343 21.5376 10.1306 23.0025 11.9999 23.0025C13.9337 23.0025 15.5014 21.4349 15.5014 19.5011L18.4395 19.5005L22.7194 23.7805C23.0123 24.0734 23.4872 24.0734 23.7801 23.7805C24.073 23.4876 24.073 23.0127 23.7801 22.7198L1.28033 0.219674ZM16.9381 17.999H3.59594L4.9477 14.5252L4.9759 14.4369C4.99101 14.377 4.9987 14.3154 4.9987 14.2534V9.50125L5.00276 9.26056C5.03395 8.33718 5.24395 7.45914 5.59923 6.65998L16.9381 17.999ZM13.9959 19.6504C13.9195 20.686 13.0551 21.5025 11.9999 21.5025C10.8946 21.5025 9.99852 20.6064 9.99852 19.5011L14.0004 19.499L13.9959 19.6504ZM6.33987 3.15805L7.40259 4.22079C8.63254 3.14906 10.2404 2.50001 11.9999 2.50001C15.8666 2.50001 19.0012 5.63457 19.0012 9.50125V14.2534L19.0069 14.3457C19.0145 14.4069 19.0296 14.467 19.052 14.5246L19.9051 16.7235L21.9007 18.7191C21.9657 18.5657 22.0016 18.3971 22.0016 18.22L21.9919 18.0624C21.9789 17.958 21.9531 17.8555 21.915 17.757L20.5009 14.113L20.5012 9.50125L20.4974 9.24605C20.3625 4.669 16.6097 1.00001 11.9999 1.00001C9.8262 1.00001 7.84301 1.81586 6.33987 3.15805Z" fill="var(--fill-0, #272320)"/>
</svg>
