<svg preserveAspectRatio="none" width="100%" height="100%" overflow="visible" style="display: block;" viewBox="0 0 13.9923 12" fill="none" xmlns="http://www.w3.org/2000/svg">
<path id="Shape" d="M4.09808 1C3.91944 1 3.75438 1.0953 3.66506 1.25L1.06699 5.75C0.977671 5.9047 0.977671 6.0953 1.06699 6.25L3.5707 10.5866C3.71841 10.8424 3.99139 11 4.28681 11C4.64754 11 4.96664 10.7662 5.0753 10.4222L7.96432 1.27622C8.20431 0.516487 8.9091 0 9.70583 0C10.3583 0 10.9612 0.348095 11.2875 0.913161L13.7913 5.25C14.0593 5.7141 14.0593 6.2859 13.7913 6.75L11.1933 11.25C10.9253 11.7141 10.4301 12 9.89423 12H7.49764C7.2215 12 6.99764 11.7761 6.99764 11.5C6.99764 11.2239 7.2215 11 7.49764 11H9.89423C10.0729 11 10.2379 10.9047 10.3272 10.75L12.9253 6.25C13.0146 6.0953 13.0146 5.9047 12.9253 5.75L10.4214 1.41316C10.2738 1.1575 10.001 1 9.70583 1C9.34535 1 9.02646 1.23369 8.91788 1.57743L6.02885 10.7234C5.78879 11.4834 5.08379 12 4.28681 12C3.63412 12 3.03102 11.6518 2.70467 11.0866L0.200962 6.75C-0.0669878 6.2859 -0.0669868 5.7141 0.200962 5.25L2.79904 0.749999C3.06699 0.285897 3.56218 0 4.09808 0H6.49764C6.77379 0 6.99764 0.223858 6.99764 0.5C6.99764 0.776142 6.77379 1 6.49764 1H4.09808Z" fill="var(--fill-0, #272320)"/>
</svg>
