<svg preserveAspectRatio="none" width="100%" height="100%" overflow="visible" style="display: block;" viewBox="0 0 28.004 26" fill="none" xmlns="http://www.w3.org/2000/svg">
<path id="Shape" d="M8.7735 2C8.41624 2 8.08611 2.1906 7.90748 2.5L2.13397 12.5C1.95534 12.8094 1.95534 13.1906 2.13397 13.5L7.8004 23.3145C8.04529 23.7387 8.49787 24 8.98765 24C9.60908 24 10.1528 23.582 10.3125 22.9815L15.7587 2.50448C16.1514 1.02781 17.4883 0 19.0164 0C20.2207 0 21.3335 0.642493 21.9357 1.68546L27.6021 11.5C28.138 12.4282 28.138 13.5718 27.6021 14.5L21.8286 24.5C21.2927 25.4282 20.3023 26 19.2305 26H15.002C14.4497 26 14.002 25.5523 14.002 25C14.002 24.4477 14.4497 24 15.002 24H19.2305C19.5878 24 19.9179 23.8094 20.0965 23.5L25.87 13.5C26.0487 13.1906 26.0487 12.8094 25.87 12.5L20.2036 2.68546C19.9587 2.26129 19.5061 2 19.0164 2C18.3949 2 17.8512 2.418 17.6915 3.01855L12.2453 23.4955C11.8526 24.9722 10.5157 26 8.98765 26C7.78334 26 6.67051 25.3575 6.06835 24.3145L0.401923 14.5C-0.133975 13.5718 -0.133974 12.4282 0.401924 11.5L6.17543 1.5C6.71133 0.571795 7.70171 0 8.7735 0H13.002C13.5543 0 14.002 0.447715 14.002 1C14.002 1.55228 13.5543 2 13.002 2H8.7735Z" fill="var(--fill-0, #272320)"/>
</svg>
