<svg preserveAspectRatio="none" width="100%" height="100%" overflow="visible" style="display: block;" viewBox="0 0 39.999 36" fill="none" xmlns="http://www.w3.org/2000/svg">
<path id="Shape" d="M21.4627 0C20.7179 0.831706 20.1517 1.83732 19.8332 2.9646L11.7971 31.4052C11.6094 32.0695 11.9958 32.7603 12.6601 32.948C13.3245 33.1357 14.0152 32.7493 14.2029 32.085L22.239 3.64438C22.8398 1.51786 24.7623 0.0406028 26.9645 0.00082353C28.9812 0.0348959 30.8358 1.12413 31.8467 2.875L39.4966 16.125C40.1664 17.2853 40.1664 18.7147 39.4966 19.875L31.2693 34.125C30.5994 35.2853 29.3615 36 28.0217 36H18.5331C19.2779 35.1683 19.8441 34.1627 20.1626 33.0354L28.2003 4.58891C28.3881 3.92457 28.0017 3.23383 27.3373 3.04612C26.673 2.85841 25.9822 3.24479 25.7945 3.90914L17.7568 32.3557C17.1562 34.4813 15.2351 35.9582 13.0341 35.9992C11.0175 35.965 9.1631 34.8758 8.1523 33.125L0.502405 19.875C-0.167468 18.7147 -0.167468 17.2853 0.502405 16.125L8.72965 1.875C9.39952 0.714746 10.6375 0 11.9772 0H21.4627Z" fill="var(--fill-0, #272320)"/>
</svg>
