<svg preserveAspectRatio="none" width="100%" height="100%" overflow="visible" style="display: block;" viewBox="0 0 12 12" fill="none" xmlns="http://www.w3.org/2000/svg">
<path id="Shape" d="M0 2.5C0 1.11929 1.11929 0 2.5 0H9.5C10.8807 0 12 1.11929 12 2.5V9.5C12 10.8807 10.8807 12 9.5 12H2.5C1.11929 12 0 10.8807 0 9.5V2.5ZM2.5 1C1.67157 1 1 1.67157 1 2.5V9.5C1 10.3284 1.67157 11 2.5 11H9.5C10.3284 11 11 10.3284 11 9.5V2.5C11 1.67157 10.3284 1 9.5 1H2.5ZM6 2.5C6.27614 2.5 6.5 2.72386 6.5 3V5.5H9C9.27614 5.5 9.5 5.72386 9.5 6C9.5 6.27614 9.27614 6.5 9 6.5H6.5V9C6.5 9.27614 6.27614 9.5 6 9.5C5.72386 9.5 5.5 9.27614 5.5 9V6.5H3C2.72386 6.5 2.5 6.27614 2.5 6C2.5 5.72386 2.72386 5.5 3 5.5H5.5V3C5.5 2.72386 5.72386 2.5 6 2.5Z" fill="var(--fill-0, #272320)"/>
</svg>
