<svg preserveAspectRatio="none" width="100%" height="100%" overflow="visible" style="display: block;" viewBox="0 0 14 14" fill="none" xmlns="http://www.w3.org/2000/svg">
<path id="Shape" d="M3 0C1.34315 0 0 1.34315 0 3V11C0 12.6569 1.34315 14 3 14H11C12.6569 14 14 12.6569 14 11V3C14 1.34315 12.6569 0 11 0H3ZM1 3C1 1.89543 1.89543 1 3 1H11C12.1046 1 13 1.89543 13 3V11C13 12.1046 12.1046 13 11 13H3C1.89543 13 1 12.1046 1 11V3ZM7.5 3.50021C7.5 3.22407 7.27614 3.00021 7 3.00021C6.72386 3.00021 6.5 3.22407 6.5 3.50021V6.50021H3.5C3.22386 6.50021 3 6.72407 3 7.00021C3 7.27636 3.22386 7.50021 3.5 7.50021H6.5V10.5002C6.5 10.7764 6.72386 11.0002 7 11.0002C7.27614 11.0002 7.5 10.7764 7.5 10.5002V7.50021H10.5C10.7761 7.50021 11 7.27636 11 7.00021C11 6.72407 10.7761 6.50021 10.5 6.50021H7.5V3.50021Z" fill="var(--fill-0, #272320)"/>
</svg>
