<svg preserveAspectRatio="none" width="100%" height="100%" overflow="visible" style="display: block;" viewBox="0 0 18 18" fill="none" xmlns="http://www.w3.org/2000/svg">
<path id="Shape" d="M0 3.25C0 1.45507 1.45507 0 3.25 0H14.75C16.5449 0 18 1.45507 18 3.25V14.75C18 16.5449 16.5449 18 14.75 18H3.25C1.45507 18 0 16.5449 0 14.75V3.25ZM9.75 4.75C9.75 4.33579 9.41421 4 9 4C8.58579 4 8.25 4.33579 8.25 4.75V8.25H4.75C4.33579 8.25 4 8.58579 4 9C4 9.41421 4.33579 9.75 4.75 9.75H8.25V13.25C8.25 13.6642 8.58579 14 9 14C9.41421 14 9.75 13.6642 9.75 13.25V9.75H13.25C13.6642 9.75 14 9.41421 14 9C14 8.58579 13.6642 8.25 13.25 8.25H9.75V4.75Z" fill="var(--fill-0, #272320)"/>
</svg>
