<svg preserveAspectRatio="none" width="100%" height="100%" overflow="visible" style="display: block;" viewBox="0 0 22 22" fill="none" xmlns="http://www.w3.org/2000/svg">
<path id="Shape" d="M0 3.75C0 1.67893 1.67893 0 3.75 0H18.25C20.3211 0 22 1.67893 22 3.75V18.25C22 20.3211 20.3211 22 18.25 22H3.75C1.67893 22 0 20.3211 0 18.25V3.75ZM10.9991 4.5C10.5849 4.5 10.2491 4.83579 10.2491 5.25V10.25H5.25C4.83579 10.25 4.5 10.5858 4.5 11C4.5 11.4142 4.83579 11.75 5.25 11.75H10.2491V16.75C10.2491 17.1642 10.5849 17.5 10.9991 17.5C11.4134 17.5 11.7491 17.1642 11.7491 16.75V11.75H16.75C17.1642 11.75 17.5 11.4142 17.5 11C17.5 10.5858 17.1642 10.25 16.75 10.25H11.7491V5.25C11.7491 4.83579 11.4134 4.5 10.9991 4.5Z" fill="var(--fill-0, #272320)"/>
</svg>
