<svg preserveAspectRatio="none" width="100%" height="100%" overflow="visible" style="display: block;" viewBox="0 0 22 22" fill="none" xmlns="http://www.w3.org/2000/svg">
<path id="Shape" d="M3.75 0C1.67893 0 0 1.67893 0 3.75V18.25C0 20.3211 1.67893 22 3.75 22H18.25C20.3211 22 22 20.3211 22 18.25V3.75C22 1.67893 20.3211 0 18.25 0H3.75ZM1.5 3.75C1.5 2.50736 2.50736 1.5 3.75 1.5H18.25C19.4926 1.5 20.5 2.50736 20.5 3.75V18.25C20.5 19.4926 19.4926 20.5 18.25 20.5H3.75C2.50736 20.5 1.5 19.4926 1.5 18.25V3.75ZM11.0001 4.5C11.4143 4.5 11.7501 4.83579 11.7501 5.25V10.25H16.751C17.1652 10.25 17.501 10.5858 17.501 11C17.501 11.4142 17.1652 11.75 16.751 11.75H11.7501V16.75C11.7501 17.1642 11.4143 17.5 11.0001 17.5C10.5859 17.5 10.2501 17.1642 10.2501 16.75V11.75H5.25098C4.83676 11.75 4.50098 11.4142 4.50098 11C4.50098 10.5858 4.83676 10.25 5.25098 10.25H10.2501V5.25C10.2501 4.83579 10.5859 4.5 11.0001 4.5Z" fill="var(--fill-0, #272320)"/>
</svg>
