<svg preserveAspectRatio="none" width="100%" height="100%" overflow="visible" style="display: block;" viewBox="0 0 26 26" fill="none" xmlns="http://www.w3.org/2000/svg">
<path id="Shape" d="M0 4.5C0 2.01472 2.01472 0 4.5 0H21.5C23.9853 0 26 2.01472 26 4.5V21.5C26 23.9853 23.9853 26 21.5 26H4.5C2.01472 26 0 23.9853 0 21.5V4.5ZM4.5 2C3.11929 2 2 3.11929 2 4.5V21.5C2 22.8807 3.11929 24 4.5 24H21.5C22.8807 24 24 22.8807 24 21.5V4.5C24 3.11929 22.8807 2 21.5 2H4.5ZM13 5C13.5523 5 14 5.44772 14 6V12H20C20.5523 12 21 12.4477 21 13C21 13.5523 20.5523 14 20 14H14V20C14 20.5523 13.5523 21 13 21C12.4477 21 12 20.5523 12 20V14H6C5.44772 14 5 13.5523 5 13C5 12.4477 5.44771 12 6 12H12V6C12 5.44772 12.4477 5 13 5Z" fill="var(--fill-0, #272320)"/>
</svg>
