<svg preserveAspectRatio="none" width="100%" height="100%" overflow="visible" style="display: block;" viewBox="0 0 36 36" fill="none" xmlns="http://www.w3.org/2000/svg">
<path id="Shape" d="M0 6.25C0 2.79822 2.79822 0 6.25 0H29.75C33.2018 0 36 2.79822 36 6.25V29.75C36 33.2018 33.2018 36 29.75 36H6.25C2.79822 36 0 33.2018 0 29.75V6.25ZM18 8C17.3096 8 16.75 8.55964 16.75 9.25V16.75H9.25C8.55964 16.75 8 17.3096 8 18C8 18.6904 8.55964 19.25 9.25 19.25H16.75V26.75C16.75 27.4404 17.3096 28 18 28C18.6904 28 19.25 27.4404 19.25 26.75V19.25H26.75C27.4404 19.25 28 18.6904 28 18C28 17.3096 27.4404 16.75 26.75 16.75H19.25V9.25C19.25 8.55964 18.6904 8 18 8Z" fill="var(--fill-0, #272320)"/>
</svg>
