<svg preserveAspectRatio="none" width="100%" height="100%" overflow="visible" style="display: block;" viewBox="0 0 36 36" fill="none" xmlns="http://www.w3.org/2000/svg">
<path id="Shape" d="M6.25 0C2.79822 0 0 2.79822 0 6.25V29.75C0 33.2018 2.79822 36 6.25 36H29.75C33.2018 36 36 33.2018 36 29.75V6.25C36 2.79822 33.2018 0 29.75 0H6.25ZM2.5 6.25C2.5 4.17893 4.17893 2.5 6.25 2.5H29.75C31.8211 2.5 33.5 4.17893 33.5 6.25V29.75C33.5 31.8211 31.8211 33.5 29.75 33.5H6.25C4.17893 33.5 2.5 31.8211 2.5 29.75V6.25ZM18 8C18.6904 8 19.25 8.55964 19.25 9.25V16.75H26.75C27.4404 16.75 28 17.3096 28 18C28 18.6904 27.4404 19.25 26.75 19.25H19.25V26.75C19.25 27.4404 18.6904 28 18 28C17.3096 28 16.75 27.4404 16.75 26.75V19.25H9.25C8.55964 19.25 8 18.6904 8 18C8 17.3096 8.55964 16.75 9.25 16.75H16.75V9.25C16.75 8.55964 17.3096 8 18 8Z" fill="var(--fill-0, #272320)"/>
</svg>
