<svg preserveAspectRatio="none" width="100%" height="100%" overflow="visible" style="display: block;" viewBox="0 0 19.0041 17" fill="none" xmlns="http://www.w3.org/2000/svg">
<path id="Shape" d="M14.5041 8C16.9893 8 19.0041 10.0147 19.0041 12.5C19.0041 14.9853 16.9893 17 14.5041 17C12.0188 16.9999 10.0041 14.9852 10.0041 12.5C10.0041 10.0148 12.0188 8.00008 14.5041 8ZM9.92202 0C9.61235 0.344894 9.37955 0.764722 9.25405 1.23535L5.85268 13.9883C5.85185 13.9914 5.85014 13.9941 5.8478 13.9961L5.84682 14.002L5.84975 14C5.78346 14.203 5.85859 14.5293 6.16225 14.6016C6.51713 14.6857 6.71469 14.5116 6.79604 14.3203C6.80453 14.296 6.81277 14.2713 6.81948 14.2461L10.2199 1.49316C10.4546 0.612913 11.2522 9.96334e-05 12.1632 0C12.8543 0 13.4973 0.355159 13.8654 0.939453L13.8683 0.944336L13.8703 0.948242L17.7912 7.24414C17.9794 7.54644 18.0414 7.90139 17.9836 8.24023C17.0356 7.46511 15.824 7 14.5041 7C12.8175 7.00009 11.3088 7.7598 10.2999 8.95508L12.1525 2.00781C12.1535 2.00421 12.1568 2.00108 12.1603 2L12.1613 1.99609L12.1544 2C12.2208 1.79688 12.1461 1.47054 11.8419 1.39844C11.4854 1.3141 11.2876 1.4902 11.2072 1.68262C11.1996 1.70481 11.1928 1.72804 11.1867 1.75098L7.7853 14.5039C7.55003 15.3861 6.75105 16 5.83803 16C5.14623 15.9999 4.50297 15.6447 4.13393 15.0596L0.269667 8.93359C-0.0898891 8.36332 -0.0898889 7.63668 0.269667 7.06641L4.21205 0.816406C4.5325 0.30843 5.09096 0.000179678 5.69155 0H9.92202ZM14.5041 10C14.228 10.0001 14.0041 10.2239 14.0041 10.5V12H12.5041C12.228 12.0001 12.0041 12.2239 12.0041 12.5C12.0041 12.7761 12.228 12.9999 12.5041 13H14.0041V14.5C14.0041 14.7761 14.228 14.9999 14.5041 15C14.7802 15 15.0041 14.7761 15.0041 14.5V13H16.5041C16.7802 13 17.0041 12.7761 17.0041 12.5C17.0041 12.2239 16.7802 12 16.5041 12H15.0041V10.5C15.0041 10.2239 14.7802 10 14.5041 10Z" fill="var(--fill-0, #272320)"/>
</svg>
