<svg preserveAspectRatio="none" width="100%" height="100%" overflow="visible" style="display: block;" viewBox="0 0 16 12.5002" fill="none" xmlns="http://www.w3.org/2000/svg">
<path id="Shape" d="M0.58399 0.222681C0.737178 -0.00707525 1.04762 -0.0691457 1.27737 0.0840426L2.77737 1.08416C3.00713 1.23735 3.0692 1.54778 2.91601 1.77754C2.76282 2.0073 2.45238 2.06937 2.22263 1.91618L0.722628 0.916064C0.492872 0.762875 0.430801 0.452437 0.58399 0.222681ZM8.00001 0.000175165C5.51473 0.000175165 3.50001 2.01489 3.50001 4.50018V6.90157L2.5357 9.31463C2.47415 9.46867 2.49299 9.64321 2.58601 9.78056C2.67904 9.9179 2.83412 10.0002 3 10.0002H13C13.1659 10.0002 13.321 9.9179 13.414 9.78056C13.507 9.64321 13.5259 9.46867 13.4643 9.31463L12.5 6.90157V4.50018C12.5 2.01489 10.4853 0.000175165 8.00001 0.000175165ZM7.99998 12.5002C7.06806 12.5002 6.28501 11.8628 6.06299 11.0002H9.93697C9.71495 11.8628 8.9319 12.5002 7.99998 12.5002ZM14.7226 0.0841647C14.9524 -0.0690237 15.2628 -0.00695318 15.416 0.222803C15.5692 0.452559 15.5071 0.762997 15.2774 0.916186L13.7774 1.9163C13.5476 2.06949 13.2372 2.00742 13.084 1.77766C12.9308 1.54791 12.9929 1.23747 13.2226 1.08428L14.7226 0.0841647ZM0 4.50018C0 4.22403 0.223858 4.00018 0.5 4.00018H2C2.27614 4.00018 2.5 4.22403 2.5 4.50018C2.5 4.77632 2.27614 5.00018 2 5.00018H0.5C0.223858 5.00018 0 4.77632 0 4.50018ZM15.5 4.00018C15.7761 4.00018 16 4.22403 16 4.50018C16 4.77632 15.7761 5.00018 15.5 5.00018H14C13.7239 5.00018 13.5 4.77632 13.5 4.50018C13.5 4.22403 13.7239 4.00018 14 4.00018H15.5Z" fill="var(--fill-0, #272320)"/>
</svg>
