<svg preserveAspectRatio="none" width="100%" height="100%" overflow="visible" style="display: block;" viewBox="0 0 19 16.0015" fill="none" xmlns="http://www.w3.org/2000/svg">
<path id="Shape" d="M1.2964 0.10003C1.07549 -0.0656559 0.762085 -0.0208848 0.596399 0.200029C0.430714 0.420943 0.475485 0.734343 0.696398 0.900029L2.6984 2.40154C2.91932 2.56722 3.23272 2.52245 3.3984 2.30154C3.56409 2.08062 3.51932 1.76722 3.2984 1.60154L1.2964 0.10003ZM0.5 5.00156C0.223858 5.00156 0 5.22541 0 5.50156C0 5.7777 0.223858 6.00156 0.5 6.00156H2C2.27614 6.00156 2.5 5.7777 2.5 5.50156C2.5 5.22541 2.27614 5.00156 2 5.00156H0.5ZM11.9497 14.0031C11.7174 15.1434 10.7089 16.0015 9.50001 16.0015C8.29108 16.0015 7.28257 15.1434 7.05033 14.0031H11.9497ZM9.49765 0.00152588C12.6466 0.00152588 15.2415 2.33641 15.4821 5.35693L15.4955 5.57914L15.5 5.80367L15.499 9.40953L16.4528 11.9967L16.4784 12.0812L16.4939 12.1679L16.4991 12.2561C16.4991 12.5712 16.3034 12.8465 15.9771 12.9633L15.8636 12.9962L15.7491 13.0061H3.25136C3.16286 13.0061 3.07506 12.9904 2.99203 12.9598C2.70513 12.8541 2.51636 12.588 2.50958 12.2437L2.51418 12.1262L2.54762 11.9967L3.49901 9.41253L3.50009 5.79433L3.50439 5.56976C3.62701 2.45268 6.27103 0.00152588 9.49765 0.00152588ZM18.4036 0.200029C18.2379 -0.0208848 17.9245 -0.0656559 17.7036 0.10003L15.7016 1.60154C15.4807 1.76722 15.4359 2.08062 15.6016 2.30154C15.7673 2.52245 16.0807 2.56722 16.3016 2.40154L18.3036 0.900029C18.5245 0.734343 18.5693 0.420943 18.4036 0.200029ZM19 5.50156C19 5.22541 18.7761 5.00156 18.5 5.00156H17C16.7239 5.00156 16.5 5.22541 16.5 5.50156C16.5 5.7777 16.7239 6.00156 17 6.00156H18.5C18.7761 6.00156 19 5.7777 19 5.50156Z" fill="var(--fill-0, #272320)"/>
</svg>
