<svg preserveAspectRatio="none" width="100%" height="100%" overflow="visible" style="display: block;" viewBox="0 0 19 15.5015" fill="none" xmlns="http://www.w3.org/2000/svg">
<path id="Shape" d="M1.2964 0.10003C1.07549 -0.0656559 0.762085 -0.0208848 0.596399 0.200029C0.430714 0.420943 0.475485 0.734343 0.696398 0.900029L2.6984 2.40154C2.91932 2.56722 3.23272 2.52245 3.3984 2.30154C3.56409 2.08062 3.51932 1.76722 3.2984 1.60154L1.2964 0.10003ZM0.5 5.00156C0.223858 5.00156 0 5.22541 0 5.50156C0 5.7777 0.223858 6.00156 0.5 6.00156H2C2.27614 6.00156 2.5 5.7777 2.5 5.50156C2.5 5.22541 2.27614 5.00156 2 5.00156H0.5ZM9.49766 0.00152588C12.6466 0.00152588 15.2416 2.33641 15.4821 5.35693L15.4955 5.57914L15.5 5.80367L15.499 9.39953L16.4244 11.6217C16.447 11.6758 16.4647 11.7317 16.4774 11.7887L16.4926 11.8749L16.5013 12.0061C16.5013 12.4542 16.2048 12.8402 15.7521 12.9692L15.6358 12.996L15.5013 13.0061L11.9996 13.0055L11.9946 13.1669C11.9095 14.4705 10.8252 15.5015 9.50002 15.5015C8.17453 15.5015 7.08998 14.47 7.00533 13.1659L6.99962 13.0055L3.49891 13.0061C3.41096 13.0061 3.32358 12.9945 3.23902 12.9717L3.11456 12.9293C2.70378 12.7583 2.46181 12.3408 2.51221 11.8772L2.5333 11.7498L2.57572 11.6217L3.49902 9.40253L3.5001 5.79433L3.5044 5.56976C3.62702 2.45268 6.27104 0.00152588 9.49766 0.00152588ZM10.9996 13.0055H7.99962L8.00697 13.1469C8.07552 13.8596 8.64275 14.4265 9.35556 14.4947L9.50002 14.5015C10.2797 14.5015 10.9205 13.9066 10.9931 13.146L10.9996 13.0055ZM9.49766 1.00153C6.87511 1.00153 4.72717 2.92524 4.51715 5.3865L4.50393 5.59875L4.50002 5.80367V9.50153L4.46161 9.6937L3.4989 12.0061L15.4566 12.0081L15.5019 12.0061L14.5384 9.69372L14.5 9.50153L14.5001 5.81394L14.496 5.60983C14.3909 3.03643 12.1947 1.00153 9.49766 1.00153ZM18.4036 0.200029C18.2379 -0.0208848 17.9245 -0.0656559 17.7036 0.10003L15.7016 1.60154C15.4807 1.76722 15.4359 2.08062 15.6016 2.30154C15.7673 2.52245 16.0807 2.56722 16.3016 2.40154L18.3036 0.900029C18.5245 0.734343 18.5693 0.420943 18.4036 0.200029ZM19 5.50156C19 5.22541 18.7761 5.00156 18.5 5.00156H17C16.7239 5.00156 16.5 5.22541 16.5 5.50156C16.5 5.7777 16.7239 6.00156 17 6.00156H18.5C18.7761 6.00156 19 5.7777 19 5.50156Z" fill="var(--fill-0, #272320)"/>
</svg>
