<svg preserveAspectRatio="none" width="100%" height="100%" overflow="visible" style="display: block;" viewBox="0 0 23.5 19.4976" fill="none" xmlns="http://www.w3.org/2000/svg">
<path id="Shape" d="M8.79173 16.9991H14.7083C14.4696 18.4172 13.236 19.4976 11.75 19.4976C10.264 19.4976 9.03037 18.4172 8.79173 16.9991ZM11.75 0C15.8921 0 19.25 3.35786 19.25 7.5V11.4985L20.6683 14.6586C20.7232 14.7809 20.7516 14.9135 20.7516 15.0476C20.7516 15.5723 20.3263 15.9976 19.8016 15.9976H3.70219C3.5684 15.9976 3.43612 15.9693 3.31402 15.9147C2.83514 15.7003 2.62073 15.1383 2.83511 14.6594L4.25 11.4989L4.25011 7.48708L4.25453 7.23717C4.3936 3.20644 7.70587 0 11.75 0ZM22.75 6.24611C23.1642 6.24611 23.5 6.58189 23.5 6.99611C23.5 7.3758 23.2178 7.6896 22.8518 7.73926L22.75 7.74611H20.75C20.3358 7.74611 20 7.41032 20 6.99611C20 6.61641 20.2822 6.30261 20.6482 6.25295L20.75 6.24611H22.75ZM2.75 6.24611C3.16421 6.24611 3.5 6.58189 3.5 6.99611C3.5 7.3758 3.21785 7.6896 2.85177 7.73926L2.75 7.74611H0.75C0.335786 7.74611 0 7.41032 0 6.99611C0 6.61641 0.282154 6.30261 0.648229 6.25295L0.75 6.24611H2.75ZM22.35 0.546106C22.5759 0.847352 22.541 1.26325 22.2838 1.5231L22.2 1.59611L20.2 3.09611C19.8686 3.34463 19.3985 3.27748 19.15 2.94611C18.9241 2.64486 18.959 2.22896 19.2162 1.96911L19.3 1.89611L21.3 0.396106C21.6314 0.147578 22.1015 0.214735 22.35 0.546106ZM2.2 0.396106L4.2 1.89611C4.53137 2.14463 4.59853 2.61473 4.35 2.94611C4.10147 3.27748 3.63137 3.34463 3.3 3.09611L1.3 1.59611C0.968629 1.34758 0.901472 0.877476 1.15 0.546106C1.39853 0.214735 1.86863 0.147578 2.2 0.396106Z" fill="var(--fill-0, #272320)"/>
</svg>
